<?xml version="1.0" encoding="UTF-8" standalone="no"?><svg xmlns="http://www.w3.org/2000/svg" xmlns:xlink="http://www.w3.org/1999/xlink" contentScriptType="application/ecmascript" contentStyleType="text/css" height="768px" preserveAspectRatio="none" style="width:620px;height:768px;" version="1.1" viewBox="0 0 620 768" width="620px" zoomAndPan="magnify"><defs><filter height="300%" id="fxtdo2jqydc4q" width="300%" x="-1" y="-1"><feGaussianBlur result="blurOut" stdDeviation="2.0"/><feColorMatrix in="blurOut" result="blurOut2" type="matrix" values="0 0 0 0 0 0 0 0 0 0 0 0 0 0 0 0 0 0 .4 0"/><feOffset dx="4.0" dy="4.0" in="blurOut2" result="blurOut3"/><feBlend in="SourceGraphic" in2="blurOut3" mode="normal"/></filter></defs><g><!--MD5=[27f772719433d509ddbc20ff768eba08]
cluster domain--><polygon fill="#FFFFFF" filter="url(#fxtdo2jqydc4q)" points="14,16,77,16,84,38.2969,598,38.2969,598,756,14,756,14,16" style="stroke: #000000; stroke-width: 1.5;"/><line style="stroke: #000000; stroke-width: 1.5;" x1="14" x2="84" y1="38.2969" y2="38.2969"/><text fill="#000000" font-family="sans-serif" font-size="14" font-weight="bold" lengthAdjust="spacingAndGlyphs" textLength="57" x="18" y="30.9951">domain</text><!--MD5=[c2ad25ceabb2d4c1646fab0eac5e3291]
class domain.BaseString--><rect fill="#FEFECE" filter="url(#fxtdo2jqydc4q)" height="163.2422" id="domain.BaseString" style="stroke: #A80036; stroke-width: 1.5;" width="530" x="41" y="43"/><ellipse cx="267.75" cy="59" fill="#7FFFD4" rx="11" ry="11" style="stroke: #A80036; stroke-width: 1.0;"/><path d="M267.2344,59.5625 Q265.375,58.8594 264.7188,58.0938 Q264.0781,57.3125 264.0781,56 Q264.0781,54.3125 265.1563,53.3438 Q266.2344,52.375 268.1094,52.375 Q268.9688,52.375 269.8125,52.5781 Q270.6719,52.7656 271.5156,53.1563 L271.5156,55.5469 Q270.7344,54.9844 269.9063,54.7031 Q269.0938,54.4063 268.2969,54.4063 Q267.4219,54.4063 266.9375,54.7656 Q266.4688,55.125 266.4688,55.7813 Q266.4688,56.2969 266.8125,56.6406 Q267.1563,56.9688 268.25,57.375 L269.3125,57.7813 Q270.7969,58.3281 271.5,59.2344 Q272.2188,60.1406 272.2188,61.5156 Q272.2188,63.3906 271.1094,64.3125 Q270,65.2344 267.75,65.2344 Q266.8281,65.2344 265.9063,65.0156 Q264.9844,64.7969 264.125,64.375 L264.125,61.8438 Q265.0938,62.5313 266.0156,62.875 Q266.9375,63.2188 267.8281,63.2188 Q268.7344,63.2188 269.2344,62.8125 Q269.7344,62.3906 269.7344,61.6563 Q269.7344,61.0938 269.3906,60.6875 Q269.0625,60.2656 268.4375,60.0156 L267.2344,59.5625 Z "/><text fill="#000000" font-family="sans-serif" font-size="12" lengthAdjust="spacingAndGlyphs" textLength="68" x="288.25" y="63.1543">BaseString</text><line style="stroke: #A80036; stroke-width: 1.5;" x1="42" x2="570" y1="75" y2="75"/><ellipse cx="52" cy="86" fill="none" rx="3" ry="3" style="stroke: #038048; stroke-width: 1.0;"/><text fill="#000000" font-family="sans-serif" font-size="11" lengthAdjust="spacingAndGlyphs" textLength="115" x="61" y="89.2104">ID primitive.ObjectID</text><ellipse cx="52" cy="98.8047" fill="none" rx="3" ry="3" style="stroke: #038048; stroke-width: 1.0;"/><text fill="#000000" font-family="sans-serif" font-size="11" lengthAdjust="spacingAndGlyphs" textLength="160" x="61" y="102.0151">SourceLanguage *Language</text><ellipse cx="52" cy="111.6094" fill="none" rx="3" ry="3" style="stroke: #038048; stroke-width: 1.0;"/><text fill="#000000" font-family="sans-serif" font-size="11" lengthAdjust="spacingAndGlyphs" textLength="87" x="61" y="114.8198">Identifier string</text><ellipse cx="52" cy="124.4141" fill="none" rx="3" ry="3" style="stroke: #038048; stroke-width: 1.0;"/><text fill="#000000" font-family="sans-serif" font-size="11" lengthAdjust="spacingAndGlyphs" textLength="80" x="61" y="127.6245">Group *Group</text><ellipse cx="52" cy="137.2188" fill="none" rx="3" ry="3" style="stroke: #038048; stroke-width: 1.0;"/><text fill="#000000" font-family="sans-serif" font-size="11" lengthAdjust="spacingAndGlyphs" textLength="74" x="61" y="140.4292">Author *User</text><ellipse cx="52" cy="150.0234" fill="none" rx="3" ry="3" style="stroke: #038048; stroke-width: 1.0;"/><text fill="#000000" font-family="sans-serif" font-size="11" lengthAdjust="spacingAndGlyphs" textLength="61" x="61" y="153.2339">Active bool</text><ellipse cx="52" cy="162.8281" fill="none" rx="3" ry="3" style="stroke: #038048; stroke-width: 1.0;"/><text fill="#000000" font-family="sans-serif" font-size="11" lengthAdjust="spacingAndGlyphs" textLength="147" x="61" y="166.0386">Translations []Translation</text><line style="stroke: #A80036; stroke-width: 1.5;" x1="42" x2="570" y1="172.6328" y2="172.6328"/><ellipse cx="52" cy="183.6328" fill="#84BE84" rx="3" ry="3" style="stroke: #038048; stroke-width: 1.0;"/><text fill="#000000" font-family="sans-serif" font-size="11" lengthAdjust="spacingAndGlyphs" textLength="379" x="61" y="186.8433">FindTranslationLastVersionByLanguage(language Language) string</text><ellipse cx="52" cy="196.4375" fill="#84BE84" rx="3" ry="3" style="stroke: #038048; stroke-width: 1.0;"/><text fill="#000000" font-family="sans-serif" font-size="11" lengthAdjust="spacingAndGlyphs" textLength="504" x="61" y="199.6479">FindTranslationLastVersionByLanguageAndState(language Language, state Stage) string</text><!--MD5=[863f1825d6635ffa2f584082db8395ae]
class domain.Group--><rect fill="#FEFECE" filter="url(#fxtdo2jqydc4q)" height="124.8281" id="domain.Group" style="stroke: #A80036; stroke-width: 1.5;" width="173" x="75.5" y="272.5"/><ellipse cx="138.75" cy="288.5" fill="#7FFFD4" rx="11" ry="11" style="stroke: #A80036; stroke-width: 1.0;"/><path d="M138.2344,289.0625 Q136.375,288.3594 135.7188,287.5938 Q135.0781,286.8125 135.0781,285.5 Q135.0781,283.8125 136.1563,282.8438 Q137.2344,281.875 139.1094,281.875 Q139.9688,281.875 140.8125,282.0781 Q141.6719,282.2656 142.5156,282.6563 L142.5156,285.0469 Q141.7344,284.4844 140.9063,284.2031 Q140.0938,283.9063 139.2969,283.9063 Q138.4219,283.9063 137.9375,284.2656 Q137.4688,284.625 137.4688,285.2813 Q137.4688,285.7969 137.8125,286.1406 Q138.1563,286.4688 139.25,286.875 L140.3125,287.2813 Q141.7969,287.8281 142.5,288.7344 Q143.2188,289.6406 143.2188,291.0156 Q143.2188,292.8906 142.1094,293.8125 Q141,294.7344 138.75,294.7344 Q137.8281,294.7344 136.9063,294.5156 Q135.9844,294.2969 135.125,293.875 L135.125,291.3438 Q136.0938,292.0313 137.0156,292.375 Q137.9375,292.7188 138.8281,292.7188 Q139.7344,292.7188 140.2344,292.3125 Q140.7344,291.8906 140.7344,291.1563 Q140.7344,290.5938 140.3906,290.1875 Q140.0625,289.7656 139.4375,289.5156 L138.2344,289.0625 Z "/><text fill="#000000" font-family="sans-serif" font-size="12" lengthAdjust="spacingAndGlyphs" textLength="38" x="159.25" y="292.6543">Group</text><line style="stroke: #A80036; stroke-width: 1.5;" x1="76.5" x2="247.5" y1="304.5" y2="304.5"/><ellipse cx="86.5" cy="315.5" fill="none" rx="3" ry="3" style="stroke: #038048; stroke-width: 1.0;"/><text fill="#000000" font-family="sans-serif" font-size="11" lengthAdjust="spacingAndGlyphs" textLength="115" x="95.5" y="318.7104">ID primitive.ObjectID</text><ellipse cx="86.5" cy="328.3047" fill="none" rx="3" ry="3" style="stroke: #038048; stroke-width: 1.0;"/><text fill="#000000" font-family="sans-serif" font-size="11" lengthAdjust="spacingAndGlyphs" textLength="70" x="95.5" y="331.5151">Name string</text><ellipse cx="86.5" cy="341.1094" fill="none" rx="3" ry="3" style="stroke: #038048; stroke-width: 1.0;"/><text fill="#000000" font-family="sans-serif" font-size="11" lengthAdjust="spacingAndGlyphs" textLength="74" x="95.5" y="344.3198">Owner *User</text><ellipse cx="86.5" cy="353.9141" fill="none" rx="3" ry="3" style="stroke: #038048; stroke-width: 1.0;"/><text fill="#000000" font-family="sans-serif" font-size="11" lengthAdjust="spacingAndGlyphs" textLength="147" x="95.5" y="357.1245">Permissions []Permission</text><ellipse cx="86.5" cy="366.7188" fill="none" rx="3" ry="3" style="stroke: #038048; stroke-width: 1.0;"/><text fill="#000000" font-family="sans-serif" font-size="11" lengthAdjust="spacingAndGlyphs" textLength="61" x="95.5" y="369.9292">Active bool</text><ellipse cx="86.5" cy="379.5234" fill="none" rx="3" ry="3" style="stroke: #038048; stroke-width: 1.0;"/><text fill="#000000" font-family="sans-serif" font-size="11" lengthAdjust="spacingAndGlyphs" textLength="61" x="95.5" y="382.7339">Public bool</text><line style="stroke: #A80036; stroke-width: 1.5;" x1="76.5" x2="247.5" y1="389.3281" y2="389.3281"/><!--MD5=[c17524741a03264fd90aa714fe1c3562]
class domain.Language--><rect fill="#FEFECE" filter="url(#fxtdo2jqydc4q)" height="99.2188" id="domain.Language" style="stroke: #A80036; stroke-width: 1.5;" width="141" x="198.5" y="464"/><ellipse cx="234.65" cy="480" fill="#7FFFD4" rx="11" ry="11" style="stroke: #A80036; stroke-width: 1.0;"/><path d="M234.1344,480.5625 Q232.275,479.8594 231.6188,479.0938 Q230.9781,478.3125 230.9781,477 Q230.9781,475.3125 232.0563,474.3438 Q233.1344,473.375 235.0094,473.375 Q235.8688,473.375 236.7125,473.5781 Q237.5719,473.7656 238.4156,474.1563 L238.4156,476.5469 Q237.6344,475.9844 236.8063,475.7031 Q235.9938,475.4063 235.1969,475.4063 Q234.3219,475.4063 233.8375,475.7656 Q233.3688,476.125 233.3688,476.7813 Q233.3688,477.2969 233.7125,477.6406 Q234.0563,477.9688 235.15,478.375 L236.2125,478.7813 Q237.6969,479.3281 238.4,480.2344 Q239.1188,481.1406 239.1188,482.5156 Q239.1188,484.3906 238.0094,485.3125 Q236.9,486.2344 234.65,486.2344 Q233.7281,486.2344 232.8063,486.0156 Q231.8844,485.7969 231.025,485.375 L231.025,482.8438 Q231.9938,483.5313 232.9156,483.875 Q233.8375,484.2188 234.7281,484.2188 Q235.6344,484.2188 236.1344,483.8125 Q236.6344,483.3906 236.6344,482.6563 Q236.6344,482.0938 236.2906,481.6875 Q235.9625,481.2656 235.3375,481.0156 L234.1344,480.5625 Z "/><text fill="#000000" font-family="sans-serif" font-size="12" lengthAdjust="spacingAndGlyphs" textLength="62" x="253.35" y="484.1543">Language</text><line style="stroke: #A80036; stroke-width: 1.5;" x1="199.5" x2="338.5" y1="496" y2="496"/><ellipse cx="209.5" cy="507" fill="none" rx="3" ry="3" style="stroke: #038048; stroke-width: 1.0;"/><text fill="#000000" font-family="sans-serif" font-size="11" lengthAdjust="spacingAndGlyphs" textLength="115" x="218.5" y="510.2104">ID primitive.ObjectID</text><ellipse cx="209.5" cy="519.8047" fill="none" rx="3" ry="3" style="stroke: #038048; stroke-width: 1.0;"/><text fill="#000000" font-family="sans-serif" font-size="11" lengthAdjust="spacingAndGlyphs" textLength="83" x="218.5" y="523.0151">IsoCode string</text><ellipse cx="209.5" cy="532.6094" fill="none" rx="3" ry="3" style="stroke: #038048; stroke-width: 1.0;"/><text fill="#000000" font-family="sans-serif" font-size="11" lengthAdjust="spacingAndGlyphs" textLength="101" x="218.5" y="535.8198">Description string</text><ellipse cx="209.5" cy="545.4141" fill="none" rx="3" ry="3" style="stroke: #038048; stroke-width: 1.0;"/><text fill="#000000" font-family="sans-serif" font-size="11" lengthAdjust="spacingAndGlyphs" textLength="61" x="218.5" y="548.6245">Active bool</text><line style="stroke: #A80036; stroke-width: 1.5;" x1="199.5" x2="338.5" y1="555.2188" y2="555.2188"/><!--MD5=[31e87857781726aef1a9645d85eb2642]
class domain.Permission--><rect fill="#FEFECE" filter="url(#fxtdo2jqydc4q)" height="73.6094" id="domain.Permission" style="stroke: #A80036; stroke-width: 1.5;" width="104" x="22" y="476.5"/><ellipse cx="38.8" cy="492.5" fill="#7FFFD4" rx="11" ry="11" style="stroke: #A80036; stroke-width: 1.0;"/><path d="M38.2844,493.0625 Q36.425,492.3594 35.7688,491.5938 Q35.1281,490.8125 35.1281,489.5 Q35.1281,487.8125 36.2063,486.8438 Q37.2844,485.875 39.1594,485.875 Q40.0188,485.875 40.8625,486.0781 Q41.7219,486.2656 42.5656,486.6563 L42.5656,489.0469 Q41.7844,488.4844 40.9563,488.2031 Q40.1438,487.9063 39.3469,487.9063 Q38.4719,487.9063 37.9875,488.2656 Q37.5188,488.625 37.5188,489.2813 Q37.5188,489.7969 37.8625,490.1406 Q38.2063,490.4688 39.3,490.875 L40.3625,491.2813 Q41.8469,491.8281 42.55,492.7344 Q43.2688,493.6406 43.2688,495.0156 Q43.2688,496.8906 42.1594,497.8125 Q41.05,498.7344 38.8,498.7344 Q37.8781,498.7344 36.9563,498.5156 Q36.0344,498.2969 35.175,497.875 L35.175,495.3438 Q36.1438,496.0313 37.0656,496.375 Q37.9875,496.7188 38.8781,496.7188 Q39.7844,496.7188 40.2844,496.3125 Q40.7844,495.8906 40.7844,495.1563 Q40.7844,494.5938 40.4406,494.1875 Q40.1125,493.7656 39.4875,493.5156 L38.2844,493.0625 Z "/><text fill="#000000" font-family="sans-serif" font-size="12" lengthAdjust="spacingAndGlyphs" textLength="68" x="53.2" y="496.6543">Permission</text><line style="stroke: #A80036; stroke-width: 1.5;" x1="23" x2="125" y1="508.5" y2="508.5"/><ellipse cx="33" cy="519.5" fill="none" rx="3" ry="3" style="stroke: #038048; stroke-width: 1.0;"/><text fill="#000000" font-family="sans-serif" font-size="11" lengthAdjust="spacingAndGlyphs" textLength="64" x="42" y="522.7104">User *User</text><ellipse cx="33" cy="532.3047" fill="none" rx="3" ry="3" style="stroke: #038048; stroke-width: 1.0;"/><text fill="#000000" font-family="sans-serif" font-size="11" lengthAdjust="spacingAndGlyphs" textLength="78" x="42" y="535.5151">CanWrite bool</text><line style="stroke: #A80036; stroke-width: 1.5;" x1="23" x2="125" y1="542.1094" y2="542.1094"/><!--MD5=[9a7789b2fe37cd0457e308260b86b1c2]
class domain.Stage--><rect fill="#FEFECE" filter="url(#fxtdo2jqydc4q)" height="86.4141" id="domain.Stage" style="stroke: #A80036; stroke-width: 1.5;" width="141" x="374.5" y="470.5"/><ellipse cx="422.25" cy="486.5" fill="#7FFFD4" rx="11" ry="11" style="stroke: #A80036; stroke-width: 1.0;"/><path d="M421.7344,487.0625 Q419.875,486.3594 419.2188,485.5938 Q418.5781,484.8125 418.5781,483.5 Q418.5781,481.8125 419.6563,480.8438 Q420.7344,479.875 422.6094,479.875 Q423.4688,479.875 424.3125,480.0781 Q425.1719,480.2656 426.0156,480.6563 L426.0156,483.0469 Q425.2344,482.4844 424.4063,482.2031 Q423.5938,481.9063 422.7969,481.9063 Q421.9219,481.9063 421.4375,482.2656 Q420.9688,482.625 420.9688,483.2813 Q420.9688,483.7969 421.3125,484.1406 Q421.6563,484.4688 422.75,484.875 L423.8125,485.2813 Q425.2969,485.8281 426,486.7344 Q426.7188,487.6406 426.7188,489.0156 Q426.7188,490.8906 425.6094,491.8125 Q424.5,492.7344 422.25,492.7344 Q421.3281,492.7344 420.4063,492.5156 Q419.4844,492.2969 418.625,491.875 L418.625,489.3438 Q419.5938,490.0313 420.5156,490.375 Q421.4375,490.7188 422.3281,490.7188 Q423.2344,490.7188 423.7344,490.3125 Q424.2344,489.8906 424.2344,489.1563 Q424.2344,488.5938 423.8906,488.1875 Q423.5625,487.7656 422.9375,487.5156 L421.7344,487.0625 Z "/><text fill="#000000" font-family="sans-serif" font-size="12" lengthAdjust="spacingAndGlyphs" textLength="37" x="442.75" y="490.6543">Stage</text><line style="stroke: #A80036; stroke-width: 1.5;" x1="375.5" x2="514.5" y1="502.5" y2="502.5"/><ellipse cx="385.5" cy="513.5" fill="none" rx="3" ry="3" style="stroke: #038048; stroke-width: 1.0;"/><text fill="#000000" font-family="sans-serif" font-size="11" lengthAdjust="spacingAndGlyphs" textLength="115" x="394.5" y="516.7104">ID primitive.ObjectID</text><ellipse cx="385.5" cy="526.3047" fill="none" rx="3" ry="3" style="stroke: #038048; stroke-width: 1.0;"/><text fill="#000000" font-family="sans-serif" font-size="11" lengthAdjust="spacingAndGlyphs" textLength="70" x="394.5" y="529.5151">Name string</text><ellipse cx="385.5" cy="539.1094" fill="none" rx="3" ry="3" style="stroke: #038048; stroke-width: 1.0;"/><text fill="#000000" font-family="sans-serif" font-size="11" lengthAdjust="spacingAndGlyphs" textLength="61" x="394.5" y="542.3198">Active bool</text><line style="stroke: #A80036; stroke-width: 1.5;" x1="375.5" x2="514.5" y1="548.9141" y2="548.9141"/><!--MD5=[0134179867525364293e41d4802e5b11]
class domain.Translation--><rect fill="#FEFECE" filter="url(#fxtdo2jqydc4q)" height="137.6328" id="domain.Translation" style="stroke: #A80036; stroke-width: 1.5;" width="146" x="352" y="266"/><ellipse cx="386.8" cy="282" fill="#7FFFD4" rx="11" ry="11" style="stroke: #A80036; stroke-width: 1.0;"/><path d="M386.2844,282.5625 Q384.425,281.8594 383.7688,281.0938 Q383.1281,280.3125 383.1281,279 Q383.1281,277.3125 384.2063,276.3438 Q385.2844,275.375 387.1594,275.375 Q388.0188,275.375 388.8625,275.5781 Q389.7219,275.7656 390.5656,276.1563 L390.5656,278.5469 Q389.7844,277.9844 388.9563,277.7031 Q388.1438,277.4063 387.3469,277.4063 Q386.4719,277.4063 385.9875,277.7656 Q385.5188,278.125 385.5188,278.7813 Q385.5188,279.2969 385.8625,279.6406 Q386.2063,279.9688 387.3,280.375 L388.3625,280.7813 Q389.8469,281.3281 390.55,282.2344 Q391.2688,283.1406 391.2688,284.5156 Q391.2688,286.3906 390.1594,287.3125 Q389.05,288.2344 386.8,288.2344 Q385.8781,288.2344 384.9563,288.0156 Q384.0344,287.7969 383.175,287.375 L383.175,284.8438 Q384.1438,285.5313 385.0656,285.875 Q385.9875,286.2188 386.8781,286.2188 Q387.7844,286.2188 388.2844,285.8125 Q388.7844,285.3906 388.7844,284.6563 Q388.7844,284.0938 388.4406,283.6875 Q388.1125,283.2656 387.4875,283.0156 L386.2844,282.5625 Z "/><text fill="#000000" font-family="sans-serif" font-size="12" lengthAdjust="spacingAndGlyphs" textLength="70" x="405.2" y="286.1543">Translation</text><line style="stroke: #A80036; stroke-width: 1.5;" x1="353" x2="497" y1="298" y2="298"/><ellipse cx="363" cy="309" fill="none" rx="3" ry="3" style="stroke: #038048; stroke-width: 1.0;"/><text fill="#000000" font-family="sans-serif" font-size="11" lengthAdjust="spacingAndGlyphs" textLength="81" x="372" y="312.2104">Content string</text><ellipse cx="363" cy="321.8047" fill="none" rx="3" ry="3" style="stroke: #038048; stroke-width: 1.0;"/><text fill="#000000" font-family="sans-serif" font-size="11" lengthAdjust="spacingAndGlyphs" textLength="120" x="372" y="325.0151">Language *Language</text><ellipse cx="363" cy="334.6094" fill="none" rx="3" ry="3" style="stroke: #038048; stroke-width: 1.0;"/><text fill="#000000" font-family="sans-serif" font-size="11" lengthAdjust="spacingAndGlyphs" textLength="61" x="372" y="337.8198">Version int</text><ellipse cx="363" cy="347.4141" fill="none" rx="3" ry="3" style="stroke: #038048; stroke-width: 1.0;"/><text fill="#000000" font-family="sans-serif" font-size="11" lengthAdjust="spacingAndGlyphs" textLength="61" x="372" y="350.6245">Active bool</text><ellipse cx="363" cy="360.2188" fill="none" rx="3" ry="3" style="stroke: #038048; stroke-width: 1.0;"/><text fill="#000000" font-family="sans-serif" font-size="11" lengthAdjust="spacingAndGlyphs" textLength="74" x="372" y="363.4292">Author *User</text><ellipse cx="363" cy="373.0234" fill="none" rx="3" ry="3" style="stroke: #038048; stroke-width: 1.0;"/><text fill="#000000" font-family="sans-serif" font-size="11" lengthAdjust="spacingAndGlyphs" textLength="87" x="372" y="376.2339">Date time.Time</text><ellipse cx="363" cy="385.8281" fill="none" rx="3" ry="3" style="stroke: #038048; stroke-width: 1.0;"/><text fill="#000000" font-family="sans-serif" font-size="11" lengthAdjust="spacingAndGlyphs" textLength="76" x="372" y="389.0386">Stage *Stage</text><line style="stroke: #A80036; stroke-width: 1.5;" x1="353" x2="497" y1="395.6328" y2="395.6328"/><!--MD5=[8650bc9010346a63b380831969c88903]
class domain.User--><rect fill="#FEFECE" filter="url(#fxtdo2jqydc4q)" height="124.8281" id="domain.User" style="stroke: #A80036; stroke-width: 1.5;" width="141" x="269.5" y="623"/><ellipse cx="321.25" cy="639" fill="#7FFFD4" rx="11" ry="11" style="stroke: #A80036; stroke-width: 1.0;"/><path d="M320.7344,639.5625 Q318.875,638.8594 318.2188,638.0938 Q317.5781,637.3125 317.5781,636 Q317.5781,634.3125 318.6563,633.3438 Q319.7344,632.375 321.6094,632.375 Q322.4688,632.375 323.3125,632.5781 Q324.1719,632.7656 325.0156,633.1563 L325.0156,635.5469 Q324.2344,634.9844 323.4063,634.7031 Q322.5938,634.4063 321.7969,634.4063 Q320.9219,634.4063 320.4375,634.7656 Q319.9688,635.125 319.9688,635.7813 Q319.9688,636.2969 320.3125,636.6406 Q320.6563,636.9688 321.75,637.375 L322.8125,637.7813 Q324.2969,638.3281 325,639.2344 Q325.7188,640.1406 325.7188,641.5156 Q325.7188,643.3906 324.6094,644.3125 Q323.5,645.2344 321.25,645.2344 Q320.3281,645.2344 319.4063,645.0156 Q318.4844,644.7969 317.625,644.375 L317.625,641.8438 Q318.5938,642.5313 319.5156,642.875 Q320.4375,643.2188 321.3281,643.2188 Q322.2344,643.2188 322.7344,642.8125 Q323.2344,642.3906 323.2344,641.6563 Q323.2344,641.0938 322.8906,640.6875 Q322.5625,640.2656 321.9375,640.0156 L320.7344,639.5625 Z "/><text fill="#000000" font-family="sans-serif" font-size="12" lengthAdjust="spacingAndGlyphs" textLength="29" x="341.75" y="643.1543">User</text><line style="stroke: #A80036; stroke-width: 1.5;" x1="270.5" x2="409.5" y1="655" y2="655"/><ellipse cx="280.5" cy="666" fill="none" rx="3" ry="3" style="stroke: #038048; stroke-width: 1.0;"/><text fill="#000000" font-family="sans-serif" font-size="11" lengthAdjust="spacingAndGlyphs" textLength="115" x="289.5" y="669.2104">ID primitive.ObjectID</text><ellipse cx="280.5" cy="678.8047" fill="none" rx="3" ry="3" style="stroke: #038048; stroke-width: 1.0;"/><text fill="#000000" font-family="sans-serif" font-size="11" lengthAdjust="spacingAndGlyphs" textLength="68" x="289.5" y="682.0151">Email string</text><ellipse cx="280.5" cy="691.6094" fill="none" rx="3" ry="3" style="stroke: #038048; stroke-width: 1.0;"/><text fill="#000000" font-family="sans-serif" font-size="11" lengthAdjust="spacingAndGlyphs" textLength="93" x="289.5" y="694.8198">Password string</text><ellipse cx="280.5" cy="704.4141" fill="none" rx="3" ry="3" style="stroke: #038048; stroke-width: 1.0;"/><text fill="#000000" font-family="sans-serif" font-size="11" lengthAdjust="spacingAndGlyphs" textLength="63" x="289.5" y="707.6245">Admin bool</text><ellipse cx="280.5" cy="717.2188" fill="none" rx="3" ry="3" style="stroke: #038048; stroke-width: 1.0;"/><text fill="#000000" font-family="sans-serif" font-size="11" lengthAdjust="spacingAndGlyphs" textLength="61" x="289.5" y="720.4292">Active bool</text><line style="stroke: #A80036; stroke-width: 1.5;" x1="270.5" x2="409.5" y1="727.0234" y2="727.0234"/><ellipse cx="280.5" cy="738.0234" fill="#84BE84" rx="3" ry="3" style="stroke: #038048; stroke-width: 1.0;"/><text fill="#000000" font-family="sans-serif" font-size="11" lengthAdjust="spacingAndGlyphs" textLength="94" x="289.5" y="741.2339">ClearPassword()</text><!--MD5=[a58f670ca5da764943dbfd91898f76ec]
reverse link domain.BaseString to domain.Group--><path d="M242.6593,217.0917 C229.8952,235.7505 216.7626,254.9477 204.8978,272.2918 " fill="none" id="domain.BaseString&lt;-domain.Group" style="stroke: #A80036; stroke-width: 1.0;"/><polygon fill="#FFFFFF" points="250.1197,206.1861,243.4306,208.8798,243.3444,216.0904,250.0335,213.3967,250.1197,206.1861" style="stroke: #A80036; stroke-width: 1.0;"/><!--MD5=[8f85cd1f7e91c3dd879d00692f2a4a02]
reverse link domain.BaseString to domain.Language--><path d="M296.9983,219.1392 C289.6571,296.3214 279.5776,402.2924 273.7293,463.7782 " fill="none" id="domain.BaseString&lt;-domain.Language" style="stroke: #A80036; stroke-width: 1.0;"/><polygon fill="#FFFFFF" points="298.2436,206.0471,293.6934,211.6414,297.1073,217.9932,301.6575,212.3989,298.2436,206.0471" style="stroke: #A80036; stroke-width: 1.0;"/><!--MD5=[75eba63f8ac88756bc8943574f37d34f]
reverse link domain.BaseString to domain.Translation--><path d="M358.7878,217.8768 C367.9334,234.0545 377.2933,250.6113 385.9883,265.9919 " fill="none" id="domain.BaseString&lt;-domain.Translation" style="stroke: #A80036; stroke-width: 1.0;"/><polygon fill="#FFFFFF" points="352.1788,206.1861,351.6495,213.3777,358.0843,216.6324,358.6137,209.4407,352.1788,206.1861" style="stroke: #A80036; stroke-width: 1.0;"/><!--MD5=[a970db55fdda3fd5dba5999d7a7488e2]
reverse link domain.BaseString to domain.User--><path d="M470.8723,214.8765 C488.1938,230.0005 503.8713,247.0378 516,266 C564.0323,341.0944 540.866,375.1441 548,464 C551.5213,507.8589 569.835,524.8001 548,563 C518.7282,614.2105 458.7686,646.1394 410.7143,664.5087 " fill="none" id="domain.BaseString&lt;-domain.User" style="stroke: #A80036; stroke-width: 1.0;"/><polygon fill="#FFFFFF" points="460.498,206.1927,462.5315,213.1112,469.6998,213.8951,467.6664,206.9766,460.498,206.1927" style="stroke: #A80036; stroke-width: 1.0;"/><!--MD5=[690aeaad0f6f877cb18637ae13a146f1]
reverse link domain.Group to domain.Permission--><path d="M125.2263,409.592 C113.8502,432.6675 101.8114,457.087 92.265,476.4512 " fill="none" id="domain.Group&lt;-domain.Permission" style="stroke: #A80036; stroke-width: 1.0;"/><polygon fill="#FFFFFF" points="131.0982,397.6814,124.8574,401.2942,125.792,408.4445,132.0328,404.8317,131.0982,397.6814" style="stroke: #A80036; stroke-width: 1.0;"/><!--MD5=[b095e4e198b25f375cd07fcaab573238]
reverse link domain.Group to domain.User--><path d="M153.4131,410.979 C151.6369,457.547 155.8725,516.8665 181,563 C200.8348,599.4162 236.5861,628.4465 269.1706,649.0886 " fill="none" id="domain.Group&lt;-domain.User" style="stroke: #A80036; stroke-width: 1.0;"/><polygon fill="#FFFFFF" points="154.0808,397.8956,149.7802,403.6839,153.4692,409.88,157.7698,404.0917,154.0808,397.8956" style="stroke: #A80036; stroke-width: 1.0;"/><!--MD5=[5dbfd629f36032bae3f0c07711dbd3d6]
reverse link domain.Permission to domain.User--><path d="M137.3667,554.474 C177.0491,580.1333 228.2503,613.2408 269.2558,639.7556 " fill="none" id="domain.Permission&lt;-domain.User" style="stroke: #A80036; stroke-width: 1.0;"/><polygon fill="#FFFFFF" points="126.2357,547.2764,129.1022,553.8933,136.3126,553.7922,133.4461,547.1753,126.2357,547.2764" style="stroke: #A80036; stroke-width: 1.0;"/><!--MD5=[9e4ca911e1cc4d6d466066babcc23625]
reverse link domain.Translation to domain.Language--><path d="M356.0361,413.9107 C341.2301,430.8521 325.9838,448.2974 312.4701,463.7602 " fill="none" id="domain.Translation&lt;-domain.Language" style="stroke: #A80036; stroke-width: 1.0;"/><polygon fill="#FFFFFF" points="364.6863,404.0128,357.7261,405.8984,356.7897,413.0485,363.7499,411.1628,364.6863,404.0128" style="stroke: #A80036; stroke-width: 1.0;"/><!--MD5=[fb4756a55770ea16f00e7e6869b144ec]
reverse link domain.Translation to domain.Stage--><path d="M434.1889,417.0114 C436.2575,435.4735 438.3727,454.3514 440.1773,470.4573 " fill="none" id="domain.Translation&lt;-domain.Stage" style="stroke: #A80036; stroke-width: 1.0;"/><polygon fill="#FFFFFF" points="432.7325,404.0128,429.4255,410.4209,434.0687,415.9382,437.3757,409.5301,432.7325,404.0128" style="stroke: #A80036; stroke-width: 1.0;"/><!--MD5=[752fd56d52fdfdd37179b84cd78292a4]
reverse link domain.Translation to domain.User--><path d="M505.6837,414.6462 C516.8682,429.9122 526.6786,446.602 533,464 C548.0259,505.3548 554.1958,524.4418 533,563 C507.0952,610.1244 454.5431,641.6822 410.8098,660.95 " fill="none" id="domain.Translation&lt;-domain.User" style="stroke: #A80036; stroke-width: 1.0;"/><polygon fill="#FFFFFF" points="497.747,404.3138,498.2298,411.5087,505.057,413.8303,504.5742,406.6354,497.747,404.3138" style="stroke: #A80036; stroke-width: 1.0;"/><!--MD5=[fce3158b970986ddef1c3166cecb5e2f]
@startuml
namespace domain {
    class BaseString << (S,Aquamarine) >> {
        + ID primitive.ObjectID
        + SourceLanguage *Language
        + Identifier string
        + Group *Group
        + Author *User
        + Active bool
        + Translations []Translation

        + FindTranslationLastVersionByLanguage(language Language) string
        + FindTranslationLastVersionByLanguageAndState(language Language, state Stage) string

    }
    class Group << (S,Aquamarine) >> {
        + ID primitive.ObjectID
        + Name string
        + Owner *User
        + Permissions []Permission
        + Active bool
        + Public bool

    }
    class Language << (S,Aquamarine) >> {
        + ID primitive.ObjectID
        + IsoCode string
        + Description string
        + Active bool

    }
    class Permission << (S,Aquamarine) >> {
        + User *User
        + CanWrite bool

    }
    class Stage << (S,Aquamarine) >> {
        + ID primitive.ObjectID
        + Name string
        + Active bool

    }
    class Translation << (S,Aquamarine) >> {
        + Content string
        + Language *Language
        + Version int
        + Active bool
        + Author *User
        + Date time.Time
        + Stage *Stage

    }
    class User << (S,Aquamarine) >> {
        + ID primitive.ObjectID
        + Email string
        + Password string
        + Admin bool
        + Active bool

        + ClearPassword() 

    }
}


"domain.BaseString" o- - "domain.Group"
"domain.BaseString" o- - "domain.Language"
"domain.BaseString" o- - "domain.Translation"
"domain.BaseString" o- - "domain.User"
"domain.Group" o- - "domain.Permission"
"domain.Group" o- - "domain.User"
"domain.Permission" o- - "domain.User"
"domain.Translation" o- - "domain.Language"
"domain.Translation" o- - "domain.Stage"
"domain.Translation" o- - "domain.User"

@enduml

PlantUML version 1.2020.06(Sun Apr 05 12:38:32 GMT 2020)
(GPL source distribution)
Java Runtime: OpenJDK Runtime Environment
JVM: OpenJDK 64-Bit Server VM
Java Version: 14-ea+33
Operating System: Linux
Default Encoding: UTF-8
Language: en
Country: US
--></g></svg>