<?xml version="1.0" encoding="UTF-8" standalone="no"?><svg xmlns="http://www.w3.org/2000/svg" xmlns:xlink="http://www.w3.org/1999/xlink" contentScriptType="application/ecmascript" contentStyleType="text/css" height="729px" preserveAspectRatio="none" style="width:744px;height:729px;" version="1.1" viewBox="0 0 744 729" width="744px" zoomAndPan="magnify"><defs><filter height="300%" id="flhffi5yo5ki0" width="300%" x="-1" y="-1"><feGaussianBlur result="blurOut" stdDeviation="2.0"/><feColorMatrix in="blurOut" result="blurOut2" type="matrix" values="0 0 0 0 0 0 0 0 0 0 0 0 0 0 0 0 0 0 .4 0"/><feOffset dx="4.0" dy="4.0" in="blurOut2" result="blurOut3"/><feBlend in="SourceGraphic" in2="blurOut3" mode="normal"/></filter></defs><g><!--MD5=[27f772719433d509ddbc20ff768eba08]
cluster domain--><polygon fill="#FFFFFF" filter="url(#flhffi5yo5ki0)" points="14,16,77,16,84,38.2969,636,38.2969,636,717,14,717,14,16" style="stroke: #000000; stroke-width: 1.5;"/><line style="stroke: #000000; stroke-width: 1.5;" x1="14" x2="84" y1="38.2969" y2="38.2969"/><text fill="#000000" font-family="sans-serif" font-size="14" font-weight="bold" lengthAdjust="spacingAndGlyphs" textLength="57" x="18" y="30.9951">domain</text><!--MD5=[3dab47d3fc3e186ff10f67819eb99ff8]
cluster time--><polygon fill="#FFFFFF" filter="url(#flhffi5yo5ki0)" points="644,271,684,271,691,293.2969,722,293.2969,722,354,644,354,644,271" style="stroke: #000000; stroke-width: 1.5;"/><line style="stroke: #000000; stroke-width: 1.5;" x1="644" x2="691" y1="293.2969" y2="293.2969"/><text fill="#000000" font-family="sans-serif" font-size="14" font-weight="bold" lengthAdjust="spacingAndGlyphs" textLength="34" x="648" y="285.9951">time</text><!--MD5=[c2ad25ceabb2d4c1646fab0eac5e3291]
class domain.BaseString--><rect fill="#FEFECE" filter="url(#flhffi5yo5ki0)" height="137.6328" id="domain.BaseString" style="stroke: #A80036; stroke-width: 1.5;" width="180" x="166" y="253"/><ellipse cx="217.75" cy="269" fill="#7FFFD4" rx="11" ry="11" style="stroke: #A80036; stroke-width: 1.0;"/><path d="M217.2344,269.5625 Q215.375,268.8594 214.7188,268.0938 Q214.0781,267.3125 214.0781,266 Q214.0781,264.3125 215.1563,263.3438 Q216.2344,262.375 218.1094,262.375 Q218.9688,262.375 219.8125,262.5781 Q220.6719,262.7656 221.5156,263.1563 L221.5156,265.5469 Q220.7344,264.9844 219.9063,264.7031 Q219.0938,264.4063 218.2969,264.4063 Q217.4219,264.4063 216.9375,264.7656 Q216.4688,265.125 216.4688,265.7813 Q216.4688,266.2969 216.8125,266.6406 Q217.1563,266.9688 218.25,267.375 L219.3125,267.7813 Q220.7969,268.3281 221.5,269.2344 Q222.2188,270.1406 222.2188,271.5156 Q222.2188,273.3906 221.1094,274.3125 Q220,275.2344 217.75,275.2344 Q216.8281,275.2344 215.9063,275.0156 Q214.9844,274.7969 214.125,274.375 L214.125,271.8438 Q215.0938,272.5313 216.0156,272.875 Q216.9375,273.2188 217.8281,273.2188 Q218.7344,273.2188 219.2344,272.8125 Q219.7344,272.3906 219.7344,271.6563 Q219.7344,271.0938 219.3906,270.6875 Q219.0625,270.2656 218.4375,270.0156 L217.2344,269.5625 Z "/><text fill="#000000" font-family="sans-serif" font-size="12" lengthAdjust="spacingAndGlyphs" textLength="68" x="238.25" y="273.1543">BaseString</text><line style="stroke: #A80036; stroke-width: 1.5;" x1="167" x2="345" y1="285" y2="285"/><ellipse cx="177" cy="296" fill="none" rx="3" ry="3" style="stroke: #038048; stroke-width: 1.0;"/><text fill="#000000" font-family="sans-serif" font-size="11" lengthAdjust="spacingAndGlyphs" textLength="115" x="186" y="299.2104">ID primitive.ObjectID</text><ellipse cx="177" cy="308.8047" fill="none" rx="3" ry="3" style="stroke: #038048; stroke-width: 1.0;"/><text fill="#000000" font-family="sans-serif" font-size="11" lengthAdjust="spacingAndGlyphs" textLength="154" x="186" y="312.0151">SourceLanguage Language</text><ellipse cx="177" cy="321.6094" fill="none" rx="3" ry="3" style="stroke: #038048; stroke-width: 1.0;"/><text fill="#000000" font-family="sans-serif" font-size="11" lengthAdjust="spacingAndGlyphs" textLength="101" x="186" y="324.8198">Description string</text><ellipse cx="177" cy="334.4141" fill="none" rx="3" ry="3" style="stroke: #038048; stroke-width: 1.0;"/><text fill="#000000" font-family="sans-serif" font-size="11" lengthAdjust="spacingAndGlyphs" textLength="85" x="186" y="337.6245">LastVersion int</text><ellipse cx="177" cy="347.2188" fill="none" rx="3" ry="3" style="stroke: #038048; stroke-width: 1.0;"/><text fill="#000000" font-family="sans-serif" font-size="11" lengthAdjust="spacingAndGlyphs" textLength="70" x="186" y="350.4292">Stage Stage</text><ellipse cx="177" cy="360.0234" fill="none" rx="3" ry="3" style="stroke: #038048; stroke-width: 1.0;"/><text fill="#000000" font-family="sans-serif" font-size="11" lengthAdjust="spacingAndGlyphs" textLength="74" x="186" y="363.2339">Group Group</text><ellipse cx="177" cy="372.8281" fill="none" rx="3" ry="3" style="stroke: #038048; stroke-width: 1.0;"/><text fill="#000000" font-family="sans-serif" font-size="11" lengthAdjust="spacingAndGlyphs" textLength="68" x="186" y="376.0386">Author User</text><line style="stroke: #A80036; stroke-width: 1.5;" x1="167" x2="345" y1="382.6328" y2="382.6328"/><!--MD5=[863f1825d6635ffa2f584082db8395ae]
class domain.Group--><rect fill="#FEFECE" filter="url(#flhffi5yo5ki0)" height="86.4141" id="domain.Group" style="stroke: #A80036; stroke-width: 1.5;" width="141" x="449.5" y="451"/><ellipse cx="496.75" cy="467" fill="#7FFFD4" rx="11" ry="11" style="stroke: #A80036; stroke-width: 1.0;"/><path d="M496.2344,467.5625 Q494.375,466.8594 493.7188,466.0938 Q493.0781,465.3125 493.0781,464 Q493.0781,462.3125 494.1563,461.3438 Q495.2344,460.375 497.1094,460.375 Q497.9688,460.375 498.8125,460.5781 Q499.6719,460.7656 500.5156,461.1563 L500.5156,463.5469 Q499.7344,462.9844 498.9063,462.7031 Q498.0938,462.4063 497.2969,462.4063 Q496.4219,462.4063 495.9375,462.7656 Q495.4688,463.125 495.4688,463.7813 Q495.4688,464.2969 495.8125,464.6406 Q496.1563,464.9688 497.25,465.375 L498.3125,465.7813 Q499.7969,466.3281 500.5,467.2344 Q501.2188,468.1406 501.2188,469.5156 Q501.2188,471.3906 500.1094,472.3125 Q499,473.2344 496.75,473.2344 Q495.8281,473.2344 494.9063,473.0156 Q493.9844,472.7969 493.125,472.375 L493.125,469.8438 Q494.0938,470.5313 495.0156,470.875 Q495.9375,471.2188 496.8281,471.2188 Q497.7344,471.2188 498.2344,470.8125 Q498.7344,470.3906 498.7344,469.6563 Q498.7344,469.0938 498.3906,468.6875 Q498.0625,468.2656 497.4375,468.0156 L496.2344,467.5625 Z "/><text fill="#000000" font-family="sans-serif" font-size="12" lengthAdjust="spacingAndGlyphs" textLength="38" x="517.25" y="471.1543">Group</text><line style="stroke: #A80036; stroke-width: 1.5;" x1="450.5" x2="589.5" y1="483" y2="483"/><ellipse cx="460.5" cy="494" fill="none" rx="3" ry="3" style="stroke: #038048; stroke-width: 1.0;"/><text fill="#000000" font-family="sans-serif" font-size="11" lengthAdjust="spacingAndGlyphs" textLength="115" x="469.5" y="497.2104">ID primitive.ObjectID</text><ellipse cx="460.5" cy="506.8047" fill="none" rx="3" ry="3" style="stroke: #038048; stroke-width: 1.0;"/><text fill="#000000" font-family="sans-serif" font-size="11" lengthAdjust="spacingAndGlyphs" textLength="70" x="469.5" y="510.0151">Name string</text><ellipse cx="460.5" cy="519.6094" fill="none" rx="3" ry="3" style="stroke: #038048; stroke-width: 1.0;"/><text fill="#000000" font-family="sans-serif" font-size="11" lengthAdjust="spacingAndGlyphs" textLength="68" x="469.5" y="522.8198">Owner User</text><line style="stroke: #A80036; stroke-width: 1.5;" x1="450.5" x2="589.5" y1="529.4141" y2="529.4141"/><!--MD5=[c17524741a03264fd90aa714fe1c3562]
class domain.Language--><rect fill="#FEFECE" filter="url(#flhffi5yo5ki0)" height="86.4141" id="domain.Language" style="stroke: #A80036; stroke-width: 1.5;" width="141" x="59.5" y="451"/><ellipse cx="95.65" cy="467" fill="#7FFFD4" rx="11" ry="11" style="stroke: #A80036; stroke-width: 1.0;"/><path d="M95.1344,467.5625 Q93.275,466.8594 92.6188,466.0938 Q91.9781,465.3125 91.9781,464 Q91.9781,462.3125 93.0563,461.3438 Q94.1344,460.375 96.0094,460.375 Q96.8688,460.375 97.7125,460.5781 Q98.5719,460.7656 99.4156,461.1563 L99.4156,463.5469 Q98.6344,462.9844 97.8063,462.7031 Q96.9938,462.4063 96.1969,462.4063 Q95.3219,462.4063 94.8375,462.7656 Q94.3688,463.125 94.3688,463.7813 Q94.3688,464.2969 94.7125,464.6406 Q95.0563,464.9688 96.15,465.375 L97.2125,465.7813 Q98.6969,466.3281 99.4,467.2344 Q100.1188,468.1406 100.1188,469.5156 Q100.1188,471.3906 99.0094,472.3125 Q97.9,473.2344 95.65,473.2344 Q94.7281,473.2344 93.8063,473.0156 Q92.8844,472.7969 92.025,472.375 L92.025,469.8438 Q92.9938,470.5313 93.9156,470.875 Q94.8375,471.2188 95.7281,471.2188 Q96.6344,471.2188 97.1344,470.8125 Q97.6344,470.3906 97.6344,469.6563 Q97.6344,469.0938 97.2906,468.6875 Q96.9625,468.2656 96.3375,468.0156 L95.1344,467.5625 Z "/><text fill="#000000" font-family="sans-serif" font-size="12" lengthAdjust="spacingAndGlyphs" textLength="62" x="114.35" y="471.1543">Language</text><line style="stroke: #A80036; stroke-width: 1.5;" x1="60.5" x2="199.5" y1="483" y2="483"/><ellipse cx="70.5" cy="494" fill="none" rx="3" ry="3" style="stroke: #038048; stroke-width: 1.0;"/><text fill="#000000" font-family="sans-serif" font-size="11" lengthAdjust="spacingAndGlyphs" textLength="115" x="79.5" y="497.2104">ID primitive.ObjectID</text><ellipse cx="70.5" cy="506.8047" fill="none" rx="3" ry="3" style="stroke: #038048; stroke-width: 1.0;"/><text fill="#000000" font-family="sans-serif" font-size="11" lengthAdjust="spacingAndGlyphs" textLength="83" x="79.5" y="510.0151">IsoCode string</text><ellipse cx="70.5" cy="519.6094" fill="none" rx="3" ry="3" style="stroke: #038048; stroke-width: 1.0;"/><text fill="#000000" font-family="sans-serif" font-size="11" lengthAdjust="spacingAndGlyphs" textLength="101" x="79.5" y="522.8198">Description string</text><line style="stroke: #A80036; stroke-width: 1.5;" x1="60.5" x2="199.5" y1="529.4141" y2="529.4141"/><!--MD5=[31e87857781726aef1a9645d85eb2642]
class domain.Permission--><rect fill="#FEFECE" filter="url(#flhffi5yo5ki0)" height="99.2188" id="domain.Permission" style="stroke: #A80036; stroke-width: 1.5;" width="141" x="462.5" y="272.5"/><ellipse cx="495.95" cy="288.5" fill="#7FFFD4" rx="11" ry="11" style="stroke: #A80036; stroke-width: 1.0;"/><path d="M495.4344,289.0625 Q493.575,288.3594 492.9188,287.5938 Q492.2781,286.8125 492.2781,285.5 Q492.2781,283.8125 493.3563,282.8438 Q494.4344,281.875 496.3094,281.875 Q497.1688,281.875 498.0125,282.0781 Q498.8719,282.2656 499.7156,282.6563 L499.7156,285.0469 Q498.9344,284.4844 498.1063,284.2031 Q497.2938,283.9063 496.4969,283.9063 Q495.6219,283.9063 495.1375,284.2656 Q494.6688,284.625 494.6688,285.2813 Q494.6688,285.7969 495.0125,286.1406 Q495.3563,286.4688 496.45,286.875 L497.5125,287.2813 Q498.9969,287.8281 499.7,288.7344 Q500.4188,289.6406 500.4188,291.0156 Q500.4188,292.8906 499.3094,293.8125 Q498.2,294.7344 495.95,294.7344 Q495.0281,294.7344 494.1063,294.5156 Q493.1844,294.2969 492.325,293.875 L492.325,291.3438 Q493.2938,292.0313 494.2156,292.375 Q495.1375,292.7188 496.0281,292.7188 Q496.9344,292.7188 497.4344,292.3125 Q497.9344,291.8906 497.9344,291.1563 Q497.9344,290.5938 497.5906,290.1875 Q497.2625,289.7656 496.6375,289.5156 L495.4344,289.0625 Z "/><text fill="#000000" font-family="sans-serif" font-size="12" lengthAdjust="spacingAndGlyphs" textLength="68" x="514.05" y="292.6543">Permission</text><line style="stroke: #A80036; stroke-width: 1.5;" x1="463.5" x2="602.5" y1="304.5" y2="304.5"/><ellipse cx="473.5" cy="315.5" fill="none" rx="3" ry="3" style="stroke: #038048; stroke-width: 1.0;"/><text fill="#000000" font-family="sans-serif" font-size="11" lengthAdjust="spacingAndGlyphs" textLength="115" x="482.5" y="318.7104">ID primitive.ObjectID</text><ellipse cx="473.5" cy="328.3047" fill="none" rx="3" ry="3" style="stroke: #038048; stroke-width: 1.0;"/><text fill="#000000" font-family="sans-serif" font-size="11" lengthAdjust="spacingAndGlyphs" textLength="58" x="482.5" y="331.5151">User User</text><ellipse cx="473.5" cy="341.1094" fill="none" rx="3" ry="3" style="stroke: #038048; stroke-width: 1.0;"/><text fill="#000000" font-family="sans-serif" font-size="11" lengthAdjust="spacingAndGlyphs" textLength="74" x="482.5" y="344.3198">Group Group</text><ellipse cx="473.5" cy="353.9141" fill="none" rx="3" ry="3" style="stroke: #038048; stroke-width: 1.0;"/><text fill="#000000" font-family="sans-serif" font-size="11" lengthAdjust="spacingAndGlyphs" textLength="113" x="482.5" y="357.1245">CanWriteGroup bool</text><line style="stroke: #A80036; stroke-width: 1.5;" x1="463.5" x2="602.5" y1="363.7188" y2="363.7188"/><!--MD5=[9a7789b2fe37cd0457e308260b86b1c2]
class domain.Stage--><rect fill="#FEFECE" filter="url(#flhffi5yo5ki0)" height="73.6094" id="domain.Stage" style="stroke: #A80036; stroke-width: 1.5;" width="141" x="273.5" y="457"/><ellipse cx="321.25" cy="473" fill="#7FFFD4" rx="11" ry="11" style="stroke: #A80036; stroke-width: 1.0;"/><path d="M320.7344,473.5625 Q318.875,472.8594 318.2188,472.0938 Q317.5781,471.3125 317.5781,470 Q317.5781,468.3125 318.6563,467.3438 Q319.7344,466.375 321.6094,466.375 Q322.4688,466.375 323.3125,466.5781 Q324.1719,466.7656 325.0156,467.1563 L325.0156,469.5469 Q324.2344,468.9844 323.4063,468.7031 Q322.5938,468.4063 321.7969,468.4063 Q320.9219,468.4063 320.4375,468.7656 Q319.9688,469.125 319.9688,469.7813 Q319.9688,470.2969 320.3125,470.6406 Q320.6563,470.9688 321.75,471.375 L322.8125,471.7813 Q324.2969,472.3281 325,473.2344 Q325.7188,474.1406 325.7188,475.5156 Q325.7188,477.3906 324.6094,478.3125 Q323.5,479.2344 321.25,479.2344 Q320.3281,479.2344 319.4063,479.0156 Q318.4844,478.7969 317.625,478.375 L317.625,475.8438 Q318.5938,476.5313 319.5156,476.875 Q320.4375,477.2188 321.3281,477.2188 Q322.2344,477.2188 322.7344,476.8125 Q323.2344,476.3906 323.2344,475.6563 Q323.2344,475.0938 322.8906,474.6875 Q322.5625,474.2656 321.9375,474.0156 L320.7344,473.5625 Z "/><text fill="#000000" font-family="sans-serif" font-size="12" lengthAdjust="spacingAndGlyphs" textLength="37" x="341.75" y="477.1543">Stage</text><line style="stroke: #A80036; stroke-width: 1.5;" x1="274.5" x2="413.5" y1="489" y2="489"/><ellipse cx="284.5" cy="500" fill="none" rx="3" ry="3" style="stroke: #038048; stroke-width: 1.0;"/><text fill="#000000" font-family="sans-serif" font-size="11" lengthAdjust="spacingAndGlyphs" textLength="115" x="293.5" y="503.2104">ID primitive.ObjectID</text><ellipse cx="284.5" cy="512.8047" fill="none" rx="3" ry="3" style="stroke: #038048; stroke-width: 1.0;"/><text fill="#000000" font-family="sans-serif" font-size="11" lengthAdjust="spacingAndGlyphs" textLength="70" x="293.5" y="516.0151">Name string</text><line style="stroke: #A80036; stroke-width: 1.5;" x1="274.5" x2="413.5" y1="522.6094" y2="522.6094"/><!--MD5=[0134179867525364293e41d4802e5b11]
class domain.Translation--><rect fill="#FEFECE" filter="url(#flhffi5yo5ki0)" height="150.4375" id="domain.Translation" style="stroke: #A80036; stroke-width: 1.5;" width="156" x="115" y="43"/><ellipse cx="154.3" cy="59" fill="#7FFFD4" rx="11" ry="11" style="stroke: #A80036; stroke-width: 1.0;"/><path d="M153.7844,59.5625 Q151.925,58.8594 151.2688,58.0938 Q150.6281,57.3125 150.6281,56 Q150.6281,54.3125 151.7063,53.3438 Q152.7844,52.375 154.6594,52.375 Q155.5188,52.375 156.3625,52.5781 Q157.2219,52.7656 158.0656,53.1563 L158.0656,55.5469 Q157.2844,54.9844 156.4563,54.7031 Q155.6438,54.4063 154.8469,54.4063 Q153.9719,54.4063 153.4875,54.7656 Q153.0188,55.125 153.0188,55.7813 Q153.0188,56.2969 153.3625,56.6406 Q153.7063,56.9688 154.8,57.375 L155.8625,57.7813 Q157.3469,58.3281 158.05,59.2344 Q158.7688,60.1406 158.7688,61.5156 Q158.7688,63.3906 157.6594,64.3125 Q156.55,65.2344 154.3,65.2344 Q153.3781,65.2344 152.4563,65.0156 Q151.5344,64.7969 150.675,64.375 L150.675,61.8438 Q151.6438,62.5313 152.5656,62.875 Q153.4875,63.2188 154.3781,63.2188 Q155.2844,63.2188 155.7844,62.8125 Q156.2844,62.3906 156.2844,61.6563 Q156.2844,61.0938 155.9406,60.6875 Q155.6125,60.2656 154.9875,60.0156 L153.7844,59.5625 Z "/><text fill="#000000" font-family="sans-serif" font-size="12" lengthAdjust="spacingAndGlyphs" textLength="70" x="173.7" y="63.1543">Translation</text><line style="stroke: #A80036; stroke-width: 1.5;" x1="116" x2="270" y1="75" y2="75"/><ellipse cx="126" cy="86" fill="none" rx="3" ry="3" style="stroke: #038048; stroke-width: 1.0;"/><text fill="#000000" font-family="sans-serif" font-size="11" lengthAdjust="spacingAndGlyphs" textLength="115" x="135" y="89.2104">ID primitive.ObjectID</text><ellipse cx="126" cy="98.8047" fill="none" rx="3" ry="3" style="stroke: #038048; stroke-width: 1.0;"/><text fill="#000000" font-family="sans-serif" font-size="11" lengthAdjust="spacingAndGlyphs" textLength="81" x="135" y="102.0151">Content string</text><ellipse cx="126" cy="111.6094" fill="none" rx="3" ry="3" style="stroke: #038048; stroke-width: 1.0;"/><text fill="#000000" font-family="sans-serif" font-size="11" lengthAdjust="spacingAndGlyphs" textLength="114" x="135" y="114.8198">Language Language</text><ellipse cx="126" cy="124.4141" fill="none" rx="3" ry="3" style="stroke: #038048; stroke-width: 1.0;"/><text fill="#000000" font-family="sans-serif" font-size="11" lengthAdjust="spacingAndGlyphs" textLength="61" x="135" y="127.6245">Version int</text><ellipse cx="126" cy="137.2188" fill="none" rx="3" ry="3" style="stroke: #038048; stroke-width: 1.0;"/><text fill="#000000" font-family="sans-serif" font-size="11" lengthAdjust="spacingAndGlyphs" textLength="61" x="135" y="140.4292">Active bool</text><ellipse cx="126" cy="150.0234" fill="none" rx="3" ry="3" style="stroke: #038048; stroke-width: 1.0;"/><text fill="#000000" font-family="sans-serif" font-size="11" lengthAdjust="spacingAndGlyphs" textLength="130" x="135" y="153.2339">BaseString BaseString</text><ellipse cx="126" cy="162.8281" fill="none" rx="3" ry="3" style="stroke: #038048; stroke-width: 1.0;"/><text fill="#000000" font-family="sans-serif" font-size="11" lengthAdjust="spacingAndGlyphs" textLength="68" x="135" y="166.0386">Author User</text><ellipse cx="126" cy="175.6328" fill="none" rx="3" ry="3" style="stroke: #038048; stroke-width: 1.0;"/><text fill="#000000" font-family="sans-serif" font-size="11" lengthAdjust="spacingAndGlyphs" textLength="87" x="135" y="178.8433">Date time.Time</text><line style="stroke: #A80036; stroke-width: 1.5;" x1="116" x2="270" y1="185.4375" y2="185.4375"/><!--MD5=[8650bc9010346a63b380831969c88903]
class domain.User--><rect fill="#FEFECE" filter="url(#flhffi5yo5ki0)" height="112.0234" id="domain.User" style="stroke: #A80036; stroke-width: 1.5;" width="141" x="307.5" y="597"/><ellipse cx="359.25" cy="613" fill="#7FFFD4" rx="11" ry="11" style="stroke: #A80036; stroke-width: 1.0;"/><path d="M358.7344,613.5625 Q356.875,612.8594 356.2188,612.0938 Q355.5781,611.3125 355.5781,610 Q355.5781,608.3125 356.6563,607.3438 Q357.7344,606.375 359.6094,606.375 Q360.4688,606.375 361.3125,606.5781 Q362.1719,606.7656 363.0156,607.1563 L363.0156,609.5469 Q362.2344,608.9844 361.4063,608.7031 Q360.5938,608.4063 359.7969,608.4063 Q358.9219,608.4063 358.4375,608.7656 Q357.9688,609.125 357.9688,609.7813 Q357.9688,610.2969 358.3125,610.6406 Q358.6563,610.9688 359.75,611.375 L360.8125,611.7813 Q362.2969,612.3281 363,613.2344 Q363.7188,614.1406 363.7188,615.5156 Q363.7188,617.3906 362.6094,618.3125 Q361.5,619.2344 359.25,619.2344 Q358.3281,619.2344 357.4063,619.0156 Q356.4844,618.7969 355.625,618.375 L355.625,615.8438 Q356.5938,616.5313 357.5156,616.875 Q358.4375,617.2188 359.3281,617.2188 Q360.2344,617.2188 360.7344,616.8125 Q361.2344,616.3906 361.2344,615.6563 Q361.2344,615.0938 360.8906,614.6875 Q360.5625,614.2656 359.9375,614.0156 L358.7344,613.5625 Z "/><text fill="#000000" font-family="sans-serif" font-size="12" lengthAdjust="spacingAndGlyphs" textLength="29" x="379.75" y="617.1543">User</text><line style="stroke: #A80036; stroke-width: 1.5;" x1="308.5" x2="447.5" y1="629" y2="629"/><ellipse cx="318.5" cy="640" fill="none" rx="3" ry="3" style="stroke: #038048; stroke-width: 1.0;"/><text fill="#000000" font-family="sans-serif" font-size="11" lengthAdjust="spacingAndGlyphs" textLength="115" x="327.5" y="643.2104">ID primitive.ObjectID</text><ellipse cx="318.5" cy="652.8047" fill="none" rx="3" ry="3" style="stroke: #038048; stroke-width: 1.0;"/><text fill="#000000" font-family="sans-serif" font-size="11" lengthAdjust="spacingAndGlyphs" textLength="68" x="327.5" y="656.0151">Email string</text><ellipse cx="318.5" cy="665.6094" fill="none" rx="3" ry="3" style="stroke: #038048; stroke-width: 1.0;"/><text fill="#000000" font-family="sans-serif" font-size="11" lengthAdjust="spacingAndGlyphs" textLength="93" x="327.5" y="668.8198">Password string</text><ellipse cx="318.5" cy="678.4141" fill="none" rx="3" ry="3" style="stroke: #038048; stroke-width: 1.0;"/><text fill="#000000" font-family="sans-serif" font-size="11" lengthAdjust="spacingAndGlyphs" textLength="73" x="327.5" y="681.6245">IsAdmin bool</text><ellipse cx="318.5" cy="691.2188" fill="none" rx="3" ry="3" style="stroke: #038048; stroke-width: 1.0;"/><text fill="#000000" font-family="sans-serif" font-size="11" lengthAdjust="spacingAndGlyphs" textLength="71" x="327.5" y="694.4292">IsActive bool</text><line style="stroke: #A80036; stroke-width: 1.5;" x1="308.5" x2="447.5" y1="701.0234" y2="701.0234"/><!--MD5=[ea2b67ea657b96457b0a6a6da986a68b]
class time.Time--><rect fill="#FEFECE" filter="url(#flhffi5yo5ki0)" height="48" id="time.Time" style="stroke: #A80036; stroke-width: 1.5;" width="61" x="652.5" y="298"/><ellipse cx="667.5" cy="314" fill="#ADD1B2" rx="11" ry="11" style="stroke: #A80036; stroke-width: 1.0;"/><path d="M670.4688,319.6406 Q669.8906,319.9375 669.25,320.0781 Q668.6094,320.2344 667.9063,320.2344 Q665.4063,320.2344 664.0781,318.5938 Q662.7656,316.9375 662.7656,313.8125 Q662.7656,310.6875 664.0781,309.0313 Q665.4063,307.375 667.9063,307.375 Q668.6094,307.375 669.25,307.5313 Q669.9063,307.6875 670.4688,307.9844 L670.4688,310.7031 Q669.8438,310.125 669.25,309.8594 Q668.6563,309.5781 668.0313,309.5781 Q666.6875,309.5781 666,310.6563 Q665.3125,311.7188 665.3125,313.8125 Q665.3125,315.9063 666,316.9844 Q666.6875,318.0469 668.0313,318.0469 Q668.6563,318.0469 669.25,317.7813 Q669.8438,317.5 670.4688,316.9219 L670.4688,319.6406 Z "/><text fill="#000000" font-family="sans-serif" font-size="12" lengthAdjust="spacingAndGlyphs" textLength="29" x="681.5" y="318.1543">Time</text><line style="stroke: #A80036; stroke-width: 1.5;" x1="653.5" x2="712.5" y1="330" y2="330"/><line style="stroke: #A80036; stroke-width: 1.5;" x1="653.5" x2="712.5" y1="338" y2="338"/><!--MD5=[a58f670ca5da764943dbfd91898f76ec]
reverse link domain.BaseString to domain.Group--><path d="M357.4042,388.0663 C389.6618,409.0827 424.4991,431.7797 453.6213,450.7533 " fill="none" id="domain.BaseString&lt;-domain.Group" style="stroke: #A80036; stroke-width: 1.0;"/><polygon fill="#FFFFFF" points="346.1154,380.7116,348.959,387.3383,356.1697,387.2622,353.3261,380.6354,346.1154,380.7116" style="stroke: #A80036; stroke-width: 1.0;"/><!--MD5=[8f85cd1f7e91c3dd879d00692f2a4a02]
reverse link domain.BaseString to domain.Language--><path d="M197.1294,402.3631 C184.9034,419.0526 172.4691,436.0264 161.6788,450.7559 " fill="none" id="domain.BaseString&lt;-domain.Language" style="stroke: #A80036; stroke-width: 1.0;"/><polygon fill="#FFFFFF" points="205.1142,391.4632,198.3416,393.9396,198.0227,401.1436,204.7953,398.6672,205.1142,391.4632" style="stroke: #A80036; stroke-width: 1.0;"/><!--MD5=[80a69dd18c239eff6f9b9812e02c3dad]
reverse link domain.BaseString to domain.Stage--><path d="M297.4962,403.1062 C307.1232,421.9227 316.9106,441.0525 325.0069,456.8771 " fill="none" id="domain.BaseString&lt;-domain.Stage" style="stroke: #A80036; stroke-width: 1.0;"/><polygon fill="#FFFFFF" points="291.5393,391.4632,290.7112,398.6266,297.0051,402.1462,297.8332,394.9828,291.5393,391.4632" style="stroke: #A80036; stroke-width: 1.0;"/><!--MD5=[a970db55fdda3fd5dba5999d7a7488e2]
reverse link domain.BaseString to domain.User--><path d="M241.091,404.2356 C237.2267,445.6389 238.2707,495.6784 256,537 C267.0053,562.6501 286.7777,585.3058 307.2444,603.6317 " fill="none" id="domain.BaseString&lt;-domain.User" style="stroke: #A80036; stroke-width: 1.0;"/><polygon fill="#FFFFFF" points="242.5031,391.1185,237.8838,396.6558,241.2186,403.0496,245.8379,397.5122,242.5031,391.1185" style="stroke: #A80036; stroke-width: 1.0;"/><!--MD5=[b095e4e198b25f375cd07fcaab573238]
reverse link domain.Group to domain.User--><path d="M472.8637,546.7794 C458.5324,562.8264 442.7332,580.517 428.2075,596.7817 " fill="none" id="domain.Group&lt;-domain.User" style="stroke: #A80036; stroke-width: 1.0;"/><polygon fill="#FFFFFF" points="481.5728,537.0277,474.5927,538.8384,473.5795,545.978,480.5596,544.1673,481.5728,537.0277" style="stroke: #A80036; stroke-width: 1.0;"/><!--MD5=[c40b0910f93893ed51eadcb1cacd64b2]
reverse link domain.Permission to domain.Group--><path d="M528.2596,384.7197 C526.601,406.6631 524.7773,430.7932 523.2663,450.7845 " fill="none" id="domain.Permission&lt;-domain.Group" style="stroke: #A80036; stroke-width: 1.0;"/><polygon fill="#FFFFFF" points="529.2399,371.7495,524.799,377.4309,528.3354,383.7154,532.7763,378.0339,529.2399,371.7495" style="stroke: #A80036; stroke-width: 1.0;"/><!--MD5=[5dbfd629f36032bae3f0c07711dbd3d6]
reverse link domain.Permission to domain.User--><path d="M581.1419,382.3695 C610.6888,427.2496 637.6767,488.7951 608,537 C573.4765,593.0776 502.5731,623.0226 448.563,638.3445 " fill="none" id="domain.Permission&lt;-domain.User" style="stroke: #A80036; stroke-width: 1.0;"/><polygon fill="#FFFFFF" points="573.8114,371.6248,573.8886,378.8355,580.5743,381.5376,580.4971,374.3269,573.8114,371.6248" style="stroke: #A80036; stroke-width: 1.0;"/><!--MD5=[257603dc96d23d59db0ce3c08258fc6a]
reverse link domain.Translation to domain.BaseString--><path d="M220.0586,205.6182 C224.9318,221.3983 229.9498,237.647 234.6333,252.8126 " fill="none" id="domain.Translation&lt;-domain.BaseString" style="stroke: #A80036; stroke-width: 1.0;"/><polygon fill="#FFFFFF" points="216.1905,193.093,214.1391,200.0061,219.7314,204.5587,221.7829,197.6455,216.1905,193.093" style="stroke: #A80036; stroke-width: 1.0;"/><!--MD5=[9e4ca911e1cc4d6d466066babcc23625]
reverse link domain.Translation to domain.Language--><path d="M161.0102,206.0368 C156.3349,221.5205 152.0701,237.6075 149,253 C135.3723,321.3246 131.429,402.3743 130.3408,450.9177 " fill="none" id="domain.Translation&lt;-domain.Language" style="stroke: #A80036; stroke-width: 1.0;"/><polygon fill="#FFFFFF" points="165.0168,193.2009,159.4107,197.7366,161.4413,204.6559,167.0474,200.1202,165.0168,193.2009" style="stroke: #A80036; stroke-width: 1.0;"/><!--MD5=[752fd56d52fdfdd37179b84cd78292a4]
reverse link domain.Translation to domain.User--><path d="M118.4866,203.4007 C49.8755,292.9013 -31.0597,434.4859 42,537 C73.2941,580.9104 218.429,618.9249 307.4034,638.632 " fill="none" id="domain.Translation&lt;-domain.User" style="stroke: #A80036; stroke-width: 1.0;"/><polygon fill="#FFFFFF" points="126.5681,193.0202,119.726,195.2974,119.1965,202.489,126.0386,200.2118,126.5681,193.0202" style="stroke: #A80036; stroke-width: 1.0;"/><!--MD5=[1e50a9419db36b51887b30dc7073299c]
reverse link domain.Translation to time.Time--><path d="M284.4924,125.2806 C382.773,137.3273 538.9552,169.1613 644,253 C658.4114,264.5021 668.4214,282.868 674.6891,297.7608 " fill="none" id="domain.Translation&lt;-time.Time" style="stroke: #A80036; stroke-width: 1.0;"/><polygon fill="#FFFFFF" points="271.3175,123.7417,276.8129,128.4108,283.2365,125.134,277.7411,120.4648,271.3175,123.7417" style="stroke: #A80036; stroke-width: 1.0;"/><!--MD5=[2e366eefca7512f1b4e631e93348725b]
@startuml
namespace domain {
    class BaseString << (S,Aquamarine) >> {
        + ID primitive.ObjectID
        + SourceLanguage Language
        + Description string
        + LastVersion int
        + Stage Stage
        + Group Group
        + Author User

    }
    class Group << (S,Aquamarine) >> {
        + ID primitive.ObjectID
        + Name string
        + Owner User

    }
    class Language << (S,Aquamarine) >> {
        + ID primitive.ObjectID
        + IsoCode string
        + Description string

    }
    class Permission << (S,Aquamarine) >> {
        + ID primitive.ObjectID
        + User User
        + Group Group
        + CanWriteGroup bool

    }
    class Stage << (S,Aquamarine) >> {
        + ID primitive.ObjectID
        + Name string

    }
    class Translation << (S,Aquamarine) >> {
        + ID primitive.ObjectID
        + Content string
        + Language Language
        + Version int
        + Active bool
        + BaseString BaseString
        + Author User
        + Date time.Time

    }
    class User << (S,Aquamarine) >> {
        + ID primitive.ObjectID
        + Email string
        + Password string
        + IsAdmin bool
        + IsActive bool

    }
}


"domain.BaseString" o- - "domain.Group"
"domain.BaseString" o- - "domain.Language"
"domain.BaseString" o- - "domain.Stage"
"domain.BaseString" o- - "domain.User"
"domain.Group" o- - "domain.User"
"domain.Permission" o- - "domain.Group"
"domain.Permission" o- - "domain.User"
"domain.Translation" o- - "domain.BaseString"
"domain.Translation" o- - "domain.Language"
"domain.Translation" o- - "domain.User"
"domain.Translation" o- - "time.Time"

@enduml

PlantUML version 1.2020.06(Sun Apr 05 12:38:32 GMT 2020)
(GPL source distribution)
Java Runtime: OpenJDK Runtime Environment
JVM: OpenJDK 64-Bit Server VM
Java Version: 14-ea+33
Operating System: Linux
Default Encoding: UTF-8
Language: en
Country: US
--></g></svg>