<?xml version="1.0" encoding="UTF-8" standalone="no"?><svg xmlns="http://www.w3.org/2000/svg" xmlns:xlink="http://www.w3.org/1999/xlink" contentScriptType="application/ecmascript" contentStyleType="text/css" height="743px" preserveAspectRatio="none" style="width:661px;height:743px;" version="1.1" viewBox="0 0 661 743" width="661px" zoomAndPan="magnify"><defs><filter height="300%" id="fw370p2dt8mfl" width="300%" x="-1" y="-1"><feGaussianBlur result="blurOut" stdDeviation="2.0"/><feColorMatrix in="blurOut" result="blurOut2" type="matrix" values="0 0 0 0 0 0 0 0 0 0 0 0 0 0 0 0 0 0 .4 0"/><feOffset dx="4.0" dy="4.0" in="blurOut2" result="blurOut3"/><feBlend in="SourceGraphic" in2="blurOut3" mode="normal"/></filter></defs><g><!--MD5=[27f772719433d509ddbc20ff768eba08]
cluster domain--><polygon fill="#FFFFFF" filter="url(#fw370p2dt8mfl)" points="14,16,77,16,84,38.2969,634,38.2969,634,731,14,731,14,16" style="stroke: #000000; stroke-width: 1.5;"/><line style="stroke: #000000; stroke-width: 1.5;" x1="14" x2="84" y1="38.2969" y2="38.2969"/><text fill="#000000" font-family="sans-serif" font-size="14" font-weight="bold" lengthAdjust="spacingAndGlyphs" textLength="57" x="18" y="30.9951">domain</text><!--MD5=[c2ad25ceabb2d4c1646fab0eac5e3291]
class domain.BaseString--><rect fill="#FEFECE" filter="url(#fw370p2dt8mfl)" height="137.6328" id="domain.BaseString" style="stroke: #A80036; stroke-width: 1.5;" width="180" x="318" y="43"/><ellipse cx="369.75" cy="59" fill="#7FFFD4" rx="11" ry="11" style="stroke: #A80036; stroke-width: 1.0;"/><path d="M369.2344,59.5625 Q367.375,58.8594 366.7188,58.0938 Q366.0781,57.3125 366.0781,56 Q366.0781,54.3125 367.1563,53.3438 Q368.2344,52.375 370.1094,52.375 Q370.9688,52.375 371.8125,52.5781 Q372.6719,52.7656 373.5156,53.1563 L373.5156,55.5469 Q372.7344,54.9844 371.9063,54.7031 Q371.0938,54.4063 370.2969,54.4063 Q369.4219,54.4063 368.9375,54.7656 Q368.4688,55.125 368.4688,55.7813 Q368.4688,56.2969 368.8125,56.6406 Q369.1563,56.9688 370.25,57.375 L371.3125,57.7813 Q372.7969,58.3281 373.5,59.2344 Q374.2188,60.1406 374.2188,61.5156 Q374.2188,63.3906 373.1094,64.3125 Q372,65.2344 369.75,65.2344 Q368.8281,65.2344 367.9063,65.0156 Q366.9844,64.7969 366.125,64.375 L366.125,61.8438 Q367.0938,62.5313 368.0156,62.875 Q368.9375,63.2188 369.8281,63.2188 Q370.7344,63.2188 371.2344,62.8125 Q371.7344,62.3906 371.7344,61.6563 Q371.7344,61.0938 371.3906,60.6875 Q371.0625,60.2656 370.4375,60.0156 L369.2344,59.5625 Z "/><text fill="#000000" font-family="sans-serif" font-size="12" lengthAdjust="spacingAndGlyphs" textLength="68" x="390.25" y="63.1543">BaseString</text><line style="stroke: #A80036; stroke-width: 1.5;" x1="319" x2="497" y1="75" y2="75"/><ellipse cx="329" cy="86" fill="none" rx="3" ry="3" style="stroke: #038048; stroke-width: 1.0;"/><text fill="#000000" font-family="sans-serif" font-size="11" lengthAdjust="spacingAndGlyphs" textLength="115" x="338" y="89.2104">ID primitive.ObjectID</text><ellipse cx="329" cy="98.8047" fill="none" rx="3" ry="3" style="stroke: #038048; stroke-width: 1.0;"/><text fill="#000000" font-family="sans-serif" font-size="11" lengthAdjust="spacingAndGlyphs" textLength="154" x="338" y="102.0151">SourceLanguage Language</text><ellipse cx="329" cy="111.6094" fill="none" rx="3" ry="3" style="stroke: #038048; stroke-width: 1.0;"/><text fill="#000000" font-family="sans-serif" font-size="11" lengthAdjust="spacingAndGlyphs" textLength="87" x="338" y="114.8198">Identifier string</text><ellipse cx="329" cy="124.4141" fill="none" rx="3" ry="3" style="stroke: #038048; stroke-width: 1.0;"/><text fill="#000000" font-family="sans-serif" font-size="11" lengthAdjust="spacingAndGlyphs" textLength="74" x="338" y="127.6245">Group Group</text><ellipse cx="329" cy="137.2188" fill="none" rx="3" ry="3" style="stroke: #038048; stroke-width: 1.0;"/><text fill="#000000" font-family="sans-serif" font-size="11" lengthAdjust="spacingAndGlyphs" textLength="68" x="338" y="140.4292">Author User</text><ellipse cx="329" cy="150.0234" fill="none" rx="3" ry="3" style="stroke: #038048; stroke-width: 1.0;"/><text fill="#000000" font-family="sans-serif" font-size="11" lengthAdjust="spacingAndGlyphs" textLength="61" x="338" y="153.2339">Active bool</text><ellipse cx="329" cy="162.8281" fill="none" rx="3" ry="3" style="stroke: #038048; stroke-width: 1.0;"/><text fill="#000000" font-family="sans-serif" font-size="11" lengthAdjust="spacingAndGlyphs" textLength="147" x="338" y="166.0386">Translations []Translation</text><line style="stroke: #A80036; stroke-width: 1.5;" x1="319" x2="497" y1="172.6328" y2="172.6328"/><!--MD5=[863f1825d6635ffa2f584082db8395ae]
class domain.Group--><rect fill="#FEFECE" filter="url(#fw370p2dt8mfl)" height="124.8281" id="domain.Group" style="stroke: #A80036; stroke-width: 1.5;" width="173" x="111.5" y="247.5"/><ellipse cx="174.75" cy="263.5" fill="#7FFFD4" rx="11" ry="11" style="stroke: #A80036; stroke-width: 1.0;"/><path d="M174.2344,264.0625 Q172.375,263.3594 171.7188,262.5938 Q171.0781,261.8125 171.0781,260.5 Q171.0781,258.8125 172.1563,257.8438 Q173.2344,256.875 175.1094,256.875 Q175.9688,256.875 176.8125,257.0781 Q177.6719,257.2656 178.5156,257.6563 L178.5156,260.0469 Q177.7344,259.4844 176.9063,259.2031 Q176.0938,258.9063 175.2969,258.9063 Q174.4219,258.9063 173.9375,259.2656 Q173.4688,259.625 173.4688,260.2813 Q173.4688,260.7969 173.8125,261.1406 Q174.1563,261.4688 175.25,261.875 L176.3125,262.2813 Q177.7969,262.8281 178.5,263.7344 Q179.2188,264.6406 179.2188,266.0156 Q179.2188,267.8906 178.1094,268.8125 Q177,269.7344 174.75,269.7344 Q173.8281,269.7344 172.9063,269.5156 Q171.9844,269.2969 171.125,268.875 L171.125,266.3438 Q172.0938,267.0313 173.0156,267.375 Q173.9375,267.7188 174.8281,267.7188 Q175.7344,267.7188 176.2344,267.3125 Q176.7344,266.8906 176.7344,266.1563 Q176.7344,265.5938 176.3906,265.1875 Q176.0625,264.7656 175.4375,264.5156 L174.2344,264.0625 Z "/><text fill="#000000" font-family="sans-serif" font-size="12" lengthAdjust="spacingAndGlyphs" textLength="38" x="195.25" y="267.6543">Group</text><line style="stroke: #A80036; stroke-width: 1.5;" x1="112.5" x2="283.5" y1="279.5" y2="279.5"/><ellipse cx="122.5" cy="290.5" fill="none" rx="3" ry="3" style="stroke: #038048; stroke-width: 1.0;"/><text fill="#000000" font-family="sans-serif" font-size="11" lengthAdjust="spacingAndGlyphs" textLength="115" x="131.5" y="293.7104">ID primitive.ObjectID</text><ellipse cx="122.5" cy="303.3047" fill="none" rx="3" ry="3" style="stroke: #038048; stroke-width: 1.0;"/><text fill="#000000" font-family="sans-serif" font-size="11" lengthAdjust="spacingAndGlyphs" textLength="70" x="131.5" y="306.5151">Name string</text><ellipse cx="122.5" cy="316.1094" fill="none" rx="3" ry="3" style="stroke: #038048; stroke-width: 1.0;"/><text fill="#000000" font-family="sans-serif" font-size="11" lengthAdjust="spacingAndGlyphs" textLength="68" x="131.5" y="319.3198">Owner User</text><ellipse cx="122.5" cy="328.9141" fill="none" rx="3" ry="3" style="stroke: #038048; stroke-width: 1.0;"/><text fill="#000000" font-family="sans-serif" font-size="11" lengthAdjust="spacingAndGlyphs" textLength="147" x="131.5" y="332.1245">Permissions []Permission</text><ellipse cx="122.5" cy="341.7188" fill="none" rx="3" ry="3" style="stroke: #038048; stroke-width: 1.0;"/><text fill="#000000" font-family="sans-serif" font-size="11" lengthAdjust="spacingAndGlyphs" textLength="61" x="131.5" y="344.9292">Active bool</text><ellipse cx="122.5" cy="354.5234" fill="none" rx="3" ry="3" style="stroke: #038048; stroke-width: 1.0;"/><text fill="#000000" font-family="sans-serif" font-size="11" lengthAdjust="spacingAndGlyphs" textLength="61" x="131.5" y="357.7339">Public bool</text><line style="stroke: #A80036; stroke-width: 1.5;" x1="112.5" x2="283.5" y1="364.3281" y2="364.3281"/><!--MD5=[c17524741a03264fd90aa714fe1c3562]
class domain.Language--><rect fill="#FEFECE" filter="url(#fw370p2dt8mfl)" height="99.2188" id="domain.Language" style="stroke: #A80036; stroke-width: 1.5;" width="141" x="234.5" y="439"/><ellipse cx="270.65" cy="455" fill="#7FFFD4" rx="11" ry="11" style="stroke: #A80036; stroke-width: 1.0;"/><path d="M270.1344,455.5625 Q268.275,454.8594 267.6188,454.0938 Q266.9781,453.3125 266.9781,452 Q266.9781,450.3125 268.0563,449.3438 Q269.1344,448.375 271.0094,448.375 Q271.8688,448.375 272.7125,448.5781 Q273.5719,448.7656 274.4156,449.1563 L274.4156,451.5469 Q273.6344,450.9844 272.8063,450.7031 Q271.9938,450.4063 271.1969,450.4063 Q270.3219,450.4063 269.8375,450.7656 Q269.3688,451.125 269.3688,451.7813 Q269.3688,452.2969 269.7125,452.6406 Q270.0563,452.9688 271.15,453.375 L272.2125,453.7813 Q273.6969,454.3281 274.4,455.2344 Q275.1188,456.1406 275.1188,457.5156 Q275.1188,459.3906 274.0094,460.3125 Q272.9,461.2344 270.65,461.2344 Q269.7281,461.2344 268.8063,461.0156 Q267.8844,460.7969 267.025,460.375 L267.025,457.8438 Q267.9938,458.5313 268.9156,458.875 Q269.8375,459.2188 270.7281,459.2188 Q271.6344,459.2188 272.1344,458.8125 Q272.6344,458.3906 272.6344,457.6563 Q272.6344,457.0938 272.2906,456.6875 Q271.9625,456.2656 271.3375,456.0156 L270.1344,455.5625 Z "/><text fill="#000000" font-family="sans-serif" font-size="12" lengthAdjust="spacingAndGlyphs" textLength="62" x="289.35" y="459.1543">Language</text><line style="stroke: #A80036; stroke-width: 1.5;" x1="235.5" x2="374.5" y1="471" y2="471"/><ellipse cx="245.5" cy="482" fill="none" rx="3" ry="3" style="stroke: #038048; stroke-width: 1.0;"/><text fill="#000000" font-family="sans-serif" font-size="11" lengthAdjust="spacingAndGlyphs" textLength="115" x="254.5" y="485.2104">ID primitive.ObjectID</text><ellipse cx="245.5" cy="494.8047" fill="none" rx="3" ry="3" style="stroke: #038048; stroke-width: 1.0;"/><text fill="#000000" font-family="sans-serif" font-size="11" lengthAdjust="spacingAndGlyphs" textLength="83" x="254.5" y="498.0151">IsoCode string</text><ellipse cx="245.5" cy="507.6094" fill="none" rx="3" ry="3" style="stroke: #038048; stroke-width: 1.0;"/><text fill="#000000" font-family="sans-serif" font-size="11" lengthAdjust="spacingAndGlyphs" textLength="101" x="254.5" y="510.8198">Description string</text><ellipse cx="245.5" cy="520.4141" fill="none" rx="3" ry="3" style="stroke: #038048; stroke-width: 1.0;"/><text fill="#000000" font-family="sans-serif" font-size="11" lengthAdjust="spacingAndGlyphs" textLength="61" x="254.5" y="523.6245">Active bool</text><line style="stroke: #A80036; stroke-width: 1.5;" x1="235.5" x2="374.5" y1="530.2188" y2="530.2188"/><!--MD5=[31e87857781726aef1a9645d85eb2642]
class domain.Permission--><rect fill="#FEFECE" filter="url(#fw370p2dt8mfl)" height="73.6094" id="domain.Permission" style="stroke: #A80036; stroke-width: 1.5;" width="139" x="22.5" y="451.5"/><ellipse cx="55.05" cy="467.5" fill="#7FFFD4" rx="11" ry="11" style="stroke: #A80036; stroke-width: 1.0;"/><path d="M54.5344,468.0625 Q52.675,467.3594 52.0188,466.5938 Q51.3781,465.8125 51.3781,464.5 Q51.3781,462.8125 52.4563,461.8438 Q53.5344,460.875 55.4094,460.875 Q56.2688,460.875 57.1125,461.0781 Q57.9719,461.2656 58.8156,461.6563 L58.8156,464.0469 Q58.0344,463.4844 57.2063,463.2031 Q56.3938,462.9063 55.5969,462.9063 Q54.7219,462.9063 54.2375,463.2656 Q53.7688,463.625 53.7688,464.2813 Q53.7688,464.7969 54.1125,465.1406 Q54.4563,465.4688 55.55,465.875 L56.6125,466.2813 Q58.0969,466.8281 58.8,467.7344 Q59.5188,468.6406 59.5188,470.0156 Q59.5188,471.8906 58.4094,472.8125 Q57.3,473.7344 55.05,473.7344 Q54.1281,473.7344 53.2063,473.5156 Q52.2844,473.2969 51.425,472.875 L51.425,470.3438 Q52.3938,471.0313 53.3156,471.375 Q54.2375,471.7188 55.1281,471.7188 Q56.0344,471.7188 56.5344,471.3125 Q57.0344,470.8906 57.0344,470.1563 Q57.0344,469.5938 56.6906,469.1875 Q56.3625,468.7656 55.7375,468.5156 L54.5344,468.0625 Z "/><text fill="#000000" font-family="sans-serif" font-size="12" lengthAdjust="spacingAndGlyphs" textLength="68" x="72.95" y="471.6543">Permission</text><line style="stroke: #A80036; stroke-width: 1.5;" x1="23.5" x2="160.5" y1="483.5" y2="483.5"/><ellipse cx="33.5" cy="494.5" fill="none" rx="3" ry="3" style="stroke: #038048; stroke-width: 1.0;"/><text fill="#000000" font-family="sans-serif" font-size="11" lengthAdjust="spacingAndGlyphs" textLength="58" x="42.5" y="497.7104">User User</text><ellipse cx="33.5" cy="507.3047" fill="none" rx="3" ry="3" style="stroke: #038048; stroke-width: 1.0;"/><text fill="#000000" font-family="sans-serif" font-size="11" lengthAdjust="spacingAndGlyphs" textLength="113" x="42.5" y="510.5151">CanWriteGroup bool</text><line style="stroke: #A80036; stroke-width: 1.5;" x1="23.5" x2="160.5" y1="517.1094" y2="517.1094"/><!--MD5=[9a7789b2fe37cd0457e308260b86b1c2]
class domain.Stage--><rect fill="#FEFECE" filter="url(#fw370p2dt8mfl)" height="86.4141" id="domain.Stage" style="stroke: #A80036; stroke-width: 1.5;" width="141" x="410.5" y="445.5"/><ellipse cx="458.25" cy="461.5" fill="#7FFFD4" rx="11" ry="11" style="stroke: #A80036; stroke-width: 1.0;"/><path d="M457.7344,462.0625 Q455.875,461.3594 455.2188,460.5938 Q454.5781,459.8125 454.5781,458.5 Q454.5781,456.8125 455.6563,455.8438 Q456.7344,454.875 458.6094,454.875 Q459.4688,454.875 460.3125,455.0781 Q461.1719,455.2656 462.0156,455.6563 L462.0156,458.0469 Q461.2344,457.4844 460.4063,457.2031 Q459.5938,456.9063 458.7969,456.9063 Q457.9219,456.9063 457.4375,457.2656 Q456.9688,457.625 456.9688,458.2813 Q456.9688,458.7969 457.3125,459.1406 Q457.6563,459.4688 458.75,459.875 L459.8125,460.2813 Q461.2969,460.8281 462,461.7344 Q462.7188,462.6406 462.7188,464.0156 Q462.7188,465.8906 461.6094,466.8125 Q460.5,467.7344 458.25,467.7344 Q457.3281,467.7344 456.4063,467.5156 Q455.4844,467.2969 454.625,466.875 L454.625,464.3438 Q455.5938,465.0313 456.5156,465.375 Q457.4375,465.7188 458.3281,465.7188 Q459.2344,465.7188 459.7344,465.3125 Q460.2344,464.8906 460.2344,464.1563 Q460.2344,463.5938 459.8906,463.1875 Q459.5625,462.7656 458.9375,462.5156 L457.7344,462.0625 Z "/><text fill="#000000" font-family="sans-serif" font-size="12" lengthAdjust="spacingAndGlyphs" textLength="37" x="478.75" y="465.6543">Stage</text><line style="stroke: #A80036; stroke-width: 1.5;" x1="411.5" x2="550.5" y1="477.5" y2="477.5"/><ellipse cx="421.5" cy="488.5" fill="none" rx="3" ry="3" style="stroke: #038048; stroke-width: 1.0;"/><text fill="#000000" font-family="sans-serif" font-size="11" lengthAdjust="spacingAndGlyphs" textLength="115" x="430.5" y="491.7104">ID primitive.ObjectID</text><ellipse cx="421.5" cy="501.3047" fill="none" rx="3" ry="3" style="stroke: #038048; stroke-width: 1.0;"/><text fill="#000000" font-family="sans-serif" font-size="11" lengthAdjust="spacingAndGlyphs" textLength="70" x="430.5" y="504.5151">Name string</text><ellipse cx="421.5" cy="514.1094" fill="none" rx="3" ry="3" style="stroke: #038048; stroke-width: 1.0;"/><text fill="#000000" font-family="sans-serif" font-size="11" lengthAdjust="spacingAndGlyphs" textLength="61" x="430.5" y="517.3198">Active bool</text><line style="stroke: #A80036; stroke-width: 1.5;" x1="411.5" x2="550.5" y1="523.9141" y2="523.9141"/><!--MD5=[0134179867525364293e41d4802e5b11]
class domain.Translation--><rect fill="#FEFECE" filter="url(#fw370p2dt8mfl)" height="137.6328" id="domain.Translation" style="stroke: #A80036; stroke-width: 1.5;" width="140" x="398" y="241"/><ellipse cx="430.1" cy="257" fill="#7FFFD4" rx="11" ry="11" style="stroke: #A80036; stroke-width: 1.0;"/><path d="M429.5844,257.5625 Q427.725,256.8594 427.0688,256.0938 Q426.4281,255.3125 426.4281,254 Q426.4281,252.3125 427.5063,251.3438 Q428.5844,250.375 430.4594,250.375 Q431.3188,250.375 432.1625,250.5781 Q433.0219,250.7656 433.8656,251.1563 L433.8656,253.5469 Q433.0844,252.9844 432.2563,252.7031 Q431.4438,252.4063 430.6469,252.4063 Q429.7719,252.4063 429.2875,252.7656 Q428.8188,253.125 428.8188,253.7813 Q428.8188,254.2969 429.1625,254.6406 Q429.5063,254.9688 430.6,255.375 L431.6625,255.7813 Q433.1469,256.3281 433.85,257.2344 Q434.5688,258.1406 434.5688,259.5156 Q434.5688,261.3906 433.4594,262.3125 Q432.35,263.2344 430.1,263.2344 Q429.1781,263.2344 428.2563,263.0156 Q427.3344,262.7969 426.475,262.375 L426.475,259.8438 Q427.4438,260.5313 428.3656,260.875 Q429.2875,261.2188 430.1781,261.2188 Q431.0844,261.2188 431.5844,260.8125 Q432.0844,260.3906 432.0844,259.6563 Q432.0844,259.0938 431.7406,258.6875 Q431.4125,258.2656 430.7875,258.0156 L429.5844,257.5625 Z "/><text fill="#000000" font-family="sans-serif" font-size="12" lengthAdjust="spacingAndGlyphs" textLength="70" x="447.9" y="261.1543">Translation</text><line style="stroke: #A80036; stroke-width: 1.5;" x1="399" x2="537" y1="273" y2="273"/><ellipse cx="409" cy="284" fill="none" rx="3" ry="3" style="stroke: #038048; stroke-width: 1.0;"/><text fill="#000000" font-family="sans-serif" font-size="11" lengthAdjust="spacingAndGlyphs" textLength="81" x="418" y="287.2104">Content string</text><ellipse cx="409" cy="296.8047" fill="none" rx="3" ry="3" style="stroke: #038048; stroke-width: 1.0;"/><text fill="#000000" font-family="sans-serif" font-size="11" lengthAdjust="spacingAndGlyphs" textLength="114" x="418" y="300.0151">Language Language</text><ellipse cx="409" cy="309.6094" fill="none" rx="3" ry="3" style="stroke: #038048; stroke-width: 1.0;"/><text fill="#000000" font-family="sans-serif" font-size="11" lengthAdjust="spacingAndGlyphs" textLength="61" x="418" y="312.8198">Version int</text><ellipse cx="409" cy="322.4141" fill="none" rx="3" ry="3" style="stroke: #038048; stroke-width: 1.0;"/><text fill="#000000" font-family="sans-serif" font-size="11" lengthAdjust="spacingAndGlyphs" textLength="61" x="418" y="325.6245">Active bool</text><ellipse cx="409" cy="335.2188" fill="none" rx="3" ry="3" style="stroke: #038048; stroke-width: 1.0;"/><text fill="#000000" font-family="sans-serif" font-size="11" lengthAdjust="spacingAndGlyphs" textLength="68" x="418" y="338.4292">Author User</text><ellipse cx="409" cy="348.0234" fill="none" rx="3" ry="3" style="stroke: #038048; stroke-width: 1.0;"/><text fill="#000000" font-family="sans-serif" font-size="11" lengthAdjust="spacingAndGlyphs" textLength="87" x="418" y="351.2339">Date time.Time</text><ellipse cx="409" cy="360.8281" fill="none" rx="3" ry="3" style="stroke: #038048; stroke-width: 1.0;"/><text fill="#000000" font-family="sans-serif" font-size="11" lengthAdjust="spacingAndGlyphs" textLength="70" x="418" y="364.0386">Stage Stage</text><line style="stroke: #A80036; stroke-width: 1.5;" x1="399" x2="537" y1="370.6328" y2="370.6328"/><!--MD5=[8650bc9010346a63b380831969c88903]
class domain.User--><rect fill="#FEFECE" filter="url(#fw370p2dt8mfl)" height="124.8281" id="domain.User" style="stroke: #A80036; stroke-width: 1.5;" width="141" x="305.5" y="598"/><ellipse cx="357.25" cy="614" fill="#7FFFD4" rx="11" ry="11" style="stroke: #A80036; stroke-width: 1.0;"/><path d="M356.7344,614.5625 Q354.875,613.8594 354.2188,613.0938 Q353.5781,612.3125 353.5781,611 Q353.5781,609.3125 354.6563,608.3438 Q355.7344,607.375 357.6094,607.375 Q358.4688,607.375 359.3125,607.5781 Q360.1719,607.7656 361.0156,608.1563 L361.0156,610.5469 Q360.2344,609.9844 359.4063,609.7031 Q358.5938,609.4063 357.7969,609.4063 Q356.9219,609.4063 356.4375,609.7656 Q355.9688,610.125 355.9688,610.7813 Q355.9688,611.2969 356.3125,611.6406 Q356.6563,611.9688 357.75,612.375 L358.8125,612.7813 Q360.2969,613.3281 361,614.2344 Q361.7188,615.1406 361.7188,616.5156 Q361.7188,618.3906 360.6094,619.3125 Q359.5,620.2344 357.25,620.2344 Q356.3281,620.2344 355.4063,620.0156 Q354.4844,619.7969 353.625,619.375 L353.625,616.8438 Q354.5938,617.5313 355.5156,617.875 Q356.4375,618.2188 357.3281,618.2188 Q358.2344,618.2188 358.7344,617.8125 Q359.2344,617.3906 359.2344,616.6563 Q359.2344,616.0938 358.8906,615.6875 Q358.5625,615.2656 357.9375,615.0156 L356.7344,614.5625 Z "/><text fill="#000000" font-family="sans-serif" font-size="12" lengthAdjust="spacingAndGlyphs" textLength="29" x="377.75" y="618.1543">User</text><line style="stroke: #A80036; stroke-width: 1.5;" x1="306.5" x2="445.5" y1="630" y2="630"/><ellipse cx="316.5" cy="641" fill="none" rx="3" ry="3" style="stroke: #038048; stroke-width: 1.0;"/><text fill="#000000" font-family="sans-serif" font-size="11" lengthAdjust="spacingAndGlyphs" textLength="115" x="325.5" y="644.2104">ID primitive.ObjectID</text><ellipse cx="316.5" cy="653.8047" fill="none" rx="3" ry="3" style="stroke: #038048; stroke-width: 1.0;"/><text fill="#000000" font-family="sans-serif" font-size="11" lengthAdjust="spacingAndGlyphs" textLength="68" x="325.5" y="657.0151">Email string</text><ellipse cx="316.5" cy="666.6094" fill="none" rx="3" ry="3" style="stroke: #038048; stroke-width: 1.0;"/><text fill="#000000" font-family="sans-serif" font-size="11" lengthAdjust="spacingAndGlyphs" textLength="93" x="325.5" y="669.8198">Password string</text><ellipse cx="316.5" cy="679.4141" fill="none" rx="3" ry="3" style="stroke: #038048; stroke-width: 1.0;"/><text fill="#000000" font-family="sans-serif" font-size="11" lengthAdjust="spacingAndGlyphs" textLength="63" x="325.5" y="682.6245">Admin bool</text><ellipse cx="316.5" cy="692.2188" fill="none" rx="3" ry="3" style="stroke: #038048; stroke-width: 1.0;"/><text fill="#000000" font-family="sans-serif" font-size="11" lengthAdjust="spacingAndGlyphs" textLength="61" x="325.5" y="695.4292">Active bool</text><line style="stroke: #A80036; stroke-width: 1.5;" x1="306.5" x2="445.5" y1="702.0234" y2="702.0234"/><ellipse cx="316.5" cy="713.0234" fill="#84BE84" rx="3" ry="3" style="stroke: #038048; stroke-width: 1.0;"/><text fill="#000000" font-family="sans-serif" font-size="11" lengthAdjust="spacingAndGlyphs" textLength="94" x="325.5" y="716.2339">ClearPassword()</text><!--MD5=[a58f670ca5da764943dbfd91898f76ec]
reverse link domain.BaseString to domain.Group--><path d="M325.0789,190.1828 C304.9336,209.1769 283.6526,229.2418 264.3867,247.4068 " fill="none" id="domain.BaseString&lt;-domain.Group" style="stroke: #A80036; stroke-width: 1.0;"/><polygon fill="#FFFFFF" points="334.5522,181.2508,327.4426,182.4565,325.8212,189.483,332.9307,188.2772,334.5522,181.2508" style="stroke: #A80036; stroke-width: 1.0;"/><!--MD5=[8f85cd1f7e91c3dd879d00692f2a4a02]
reverse link domain.BaseString to domain.Language--><path d="M385.659,193.6638 C365.2332,268.3273 335.6799,376.3547 318.5954,438.8042 " fill="none" id="domain.BaseString&lt;-domain.Language" style="stroke: #A80036; stroke-width: 1.0;"/><polygon fill="#FFFFFF" points="389.1082,181.0559,383.6667,185.7877,385.9417,192.6306,391.3832,187.8987,389.1082,181.0559" style="stroke: #A80036; stroke-width: 1.0;"/><!--MD5=[75eba63f8ac88756bc8943574f37d34f]
reverse link domain.BaseString to domain.Translation--><path d="M432.8834,194.1154 C437.5853,209.6314 442.4599,225.7176 447.0268,240.7883 " fill="none" id="domain.BaseString&lt;-domain.Translation" style="stroke: #A80036; stroke-width: 1.0;"/><polygon fill="#FFFFFF" points="428.9851,181.2508,426.8971,188.153,432.4652,192.7351,434.5533,185.8329,428.9851,181.2508" style="stroke: #A80036; stroke-width: 1.0;"/><!--MD5=[a970db55fdda3fd5dba5999d7a7488e2]
reverse link domain.BaseString to domain.User--><path d="M508.0667,181.5202 C526.6884,198.8844 544.0252,218.9327 556,241 C619.2367,357.5332 649.7954,422.8921 584,538 C554.7282,589.2105 494.7686,621.1394 446.7143,639.5087 " fill="none" id="domain.BaseString&lt;-domain.User" style="stroke: #A80036; stroke-width: 1.0;"/><polygon fill="#FFFFFF" points="498.2332,172.688,500.0242,179.6732,507.1608,180.7065,505.3699,173.7214,498.2332,172.688" style="stroke: #A80036; stroke-width: 1.0;"/><!--MD5=[690aeaad0f6f877cb18637ae13a146f1]
reverse link domain.Group to domain.Permission--><path d="M154.0814,383.9573 C140.2677,407.219 125.6056,431.9094 114.001,451.4512 " fill="none" id="domain.Group&lt;-domain.Permission" style="stroke: #A80036; stroke-width: 1.0;"/><polygon fill="#FFFFFF" points="160.7774,372.6814,154.2746,375.798,154.6503,382.9993,161.1531,379.8827,160.7774,372.6814" style="stroke: #A80036; stroke-width: 1.0;"/><!--MD5=[b095e4e198b25f375cd07fcaab573238]
reverse link domain.Group to domain.User--><path d="M189.4131,385.979 C187.6369,432.547 191.8725,491.8665 217,538 C236.8348,574.4162 272.5861,603.4465 305.1706,624.0886 " fill="none" id="domain.Group&lt;-domain.User" style="stroke: #A80036; stroke-width: 1.0;"/><polygon fill="#FFFFFF" points="190.0808,372.8956,185.7802,378.6839,189.4692,384.88,193.7698,379.0917,190.0808,372.8956" style="stroke: #A80036; stroke-width: 1.0;"/><!--MD5=[5dbfd629f36032bae3f0c07711dbd3d6]
reverse link domain.Permission to domain.User--><path d="M164.5752,532.454 C207.8093,558.6381 262.4319,591.7193 305.3258,617.6973 " fill="none" id="domain.Permission&lt;-domain.User" style="stroke: #A80036; stroke-width: 1.0;"/><polygon fill="#FFFFFF" points="153.2741,525.6097,156.3341,532.1394,163.5384,531.8262,160.4784,525.2965,153.2741,525.6097" style="stroke: #A80036; stroke-width: 1.0;"/><!--MD5=[9e4ca911e1cc4d6d466066babcc23625]
reverse link domain.Translation to domain.Language--><path d="M395.9415,388.9107 C380.4712,405.8521 364.5408,423.2974 350.4207,438.7602 " fill="none" id="domain.Translation&lt;-domain.Language" style="stroke: #A80036; stroke-width: 1.0;"/><polygon fill="#FFFFFF" points="404.9799,379.0128,397.9802,380.7462,396.8881,387.8741,403.8877,386.1407,404.9799,379.0128" style="stroke: #A80036; stroke-width: 1.0;"/><!--MD5=[fb4756a55770ea16f00e7e6869b144ec]
reverse link domain.Translation to domain.Stage--><path d="M473.9728,392.0114 C475.3174,410.4735 476.6923,429.3514 477.8652,445.4573 " fill="none" id="domain.Translation&lt;-domain.Stage" style="stroke: #A80036; stroke-width: 1.0;"/><polygon fill="#FFFFFF" points="473.0261,379.0128,469.4726,385.2875,473.8979,390.9811,477.4514,384.7064,473.0261,379.0128" style="stroke: #A80036; stroke-width: 1.0;"/><!--MD5=[752fd56d52fdfdd37179b84cd78292a4]
reverse link domain.Translation to domain.User--><path d="M543.4156,390.1122 C553.9087,405.3477 563.1044,421.9064 569,439 C583.3464,480.5954 590.1958,499.4418 569,538 C543.0952,585.1244 490.5431,616.6822 446.8098,635.95 " fill="none" id="domain.Translation&lt;-domain.User" style="stroke: #A80036; stroke-width: 1.0;"/><polygon fill="#FFFFFF" points="535.5742,379.2635,535.8472,386.4694,542.6038,388.989,542.3308,381.783,535.5742,379.2635" style="stroke: #A80036; stroke-width: 1.0;"/><!--MD5=[af061e4bffea67221414e3aa4dd0d780]
@startuml
namespace domain {
    class BaseString << (S,Aquamarine) >> {
        + ID primitive.ObjectID
        + SourceLanguage Language
        + Identifier string
        + Group Group
        + Author User
        + Active bool
        + Translations []Translation

    }
    class Group << (S,Aquamarine) >> {
        + ID primitive.ObjectID
        + Name string
        + Owner User
        + Permissions []Permission
        + Active bool
        + Public bool

    }
    class Language << (S,Aquamarine) >> {
        + ID primitive.ObjectID
        + IsoCode string
        + Description string
        + Active bool

    }
    class Permission << (S,Aquamarine) >> {
        + User User
        + CanWriteGroup bool

    }
    class Stage << (S,Aquamarine) >> {
        + ID primitive.ObjectID
        + Name string
        + Active bool

    }
    class Translation << (S,Aquamarine) >> {
        + Content string
        + Language Language
        + Version int
        + Active bool
        + Author User
        + Date time.Time
        + Stage Stage

    }
    class User << (S,Aquamarine) >> {
        + ID primitive.ObjectID
        + Email string
        + Password string
        + Admin bool
        + Active bool

        + ClearPassword() 

    }
}


"domain.BaseString" o- - "domain.Group"
"domain.BaseString" o- - "domain.Language"
"domain.BaseString" o- - "domain.Translation"
"domain.BaseString" o- - "domain.User"
"domain.Group" o- - "domain.Permission"
"domain.Group" o- - "domain.User"
"domain.Permission" o- - "domain.User"
"domain.Translation" o- - "domain.Language"
"domain.Translation" o- - "domain.Stage"
"domain.Translation" o- - "domain.User"

@enduml

PlantUML version 1.2020.06(Sun Apr 05 12:38:32 GMT 2020)
(GPL source distribution)
Java Runtime: OpenJDK Runtime Environment
JVM: OpenJDK 64-Bit Server VM
Java Version: 14-ea+33
Operating System: Linux
Default Encoding: UTF-8
Language: en
Country: US
--></g></svg>