<?xml version="1.0" encoding="UTF-8" standalone="no"?><svg xmlns="http://www.w3.org/2000/svg" xmlns:xlink="http://www.w3.org/1999/xlink" contentScriptType="application/ecmascript" contentStyleType="text/css" height="742px" preserveAspectRatio="none" style="width:696px;height:742px;" version="1.1" viewBox="0 0 696 742" width="696px" zoomAndPan="magnify"><defs><filter height="300%" id="f1lzblg4qu2695" width="300%" x="-1" y="-1"><feGaussianBlur result="blurOut" stdDeviation="2.0"/><feColorMatrix in="blurOut" result="blurOut2" type="matrix" values="0 0 0 0 0 0 0 0 0 0 0 0 0 0 0 0 0 0 .4 0"/><feOffset dx="4.0" dy="4.0" in="blurOut2" result="blurOut3"/><feBlend in="SourceGraphic" in2="blurOut3" mode="normal"/></filter></defs><g><!--MD5=[27f772719433d509ddbc20ff768eba08]
cluster domain--><polygon fill="#FFFFFF" filter="url(#f1lzblg4qu2695)" points="14,16,77,16,84,38.2969,638,38.2969,638,730,14,730,14,16" style="stroke: #000000; stroke-width: 1.5;"/><line style="stroke: #000000; stroke-width: 1.5;" x1="14" x2="84" y1="38.2969" y2="38.2969"/><text fill="#000000" font-family="sans-serif" font-size="14" font-weight="bold" lengthAdjust="spacingAndGlyphs" textLength="57" x="18" y="30.9951">domain</text><!--MD5=[c2ad25ceabb2d4c1646fab0eac5e3291]
class domain.BaseString--><rect fill="#FEFECE" filter="url(#f1lzblg4qu2695)" height="124.8281" id="domain.BaseString" style="stroke: #A80036; stroke-width: 1.5;" width="180" x="236" y="266"/><ellipse cx="287.75" cy="282" fill="#7FFFD4" rx="11" ry="11" style="stroke: #A80036; stroke-width: 1.0;"/><path d="M287.2344,282.5625 Q285.375,281.8594 284.7188,281.0938 Q284.0781,280.3125 284.0781,279 Q284.0781,277.3125 285.1563,276.3438 Q286.2344,275.375 288.1094,275.375 Q288.9688,275.375 289.8125,275.5781 Q290.6719,275.7656 291.5156,276.1563 L291.5156,278.5469 Q290.7344,277.9844 289.9063,277.7031 Q289.0938,277.4063 288.2969,277.4063 Q287.4219,277.4063 286.9375,277.7656 Q286.4688,278.125 286.4688,278.7813 Q286.4688,279.2969 286.8125,279.6406 Q287.1563,279.9688 288.25,280.375 L289.3125,280.7813 Q290.7969,281.3281 291.5,282.2344 Q292.2188,283.1406 292.2188,284.5156 Q292.2188,286.3906 291.1094,287.3125 Q290,288.2344 287.75,288.2344 Q286.8281,288.2344 285.9063,288.0156 Q284.9844,287.7969 284.125,287.375 L284.125,284.8438 Q285.0938,285.5313 286.0156,285.875 Q286.9375,286.2188 287.8281,286.2188 Q288.7344,286.2188 289.2344,285.8125 Q289.7344,285.3906 289.7344,284.6563 Q289.7344,284.0938 289.3906,283.6875 Q289.0625,283.2656 288.4375,283.0156 L287.2344,282.5625 Z "/><text fill="#000000" font-family="sans-serif" font-size="12" lengthAdjust="spacingAndGlyphs" textLength="68" x="308.25" y="286.1543">BaseString</text><line style="stroke: #A80036; stroke-width: 1.5;" x1="237" x2="415" y1="298" y2="298"/><ellipse cx="247" cy="309" fill="none" rx="3" ry="3" style="stroke: #038048; stroke-width: 1.0;"/><text fill="#000000" font-family="sans-serif" font-size="11" lengthAdjust="spacingAndGlyphs" textLength="115" x="256" y="312.2104">ID primitive.ObjectID</text><ellipse cx="247" cy="321.8047" fill="none" rx="3" ry="3" style="stroke: #038048; stroke-width: 1.0;"/><text fill="#000000" font-family="sans-serif" font-size="11" lengthAdjust="spacingAndGlyphs" textLength="154" x="256" y="325.0151">SourceLanguage Language</text><ellipse cx="247" cy="334.6094" fill="none" rx="3" ry="3" style="stroke: #038048; stroke-width: 1.0;"/><text fill="#000000" font-family="sans-serif" font-size="11" lengthAdjust="spacingAndGlyphs" textLength="101" x="256" y="337.8198">Description string</text><ellipse cx="247" cy="347.4141" fill="none" rx="3" ry="3" style="stroke: #038048; stroke-width: 1.0;"/><text fill="#000000" font-family="sans-serif" font-size="11" lengthAdjust="spacingAndGlyphs" textLength="74" x="256" y="350.6245">Group Group</text><ellipse cx="247" cy="360.2188" fill="none" rx="3" ry="3" style="stroke: #038048; stroke-width: 1.0;"/><text fill="#000000" font-family="sans-serif" font-size="11" lengthAdjust="spacingAndGlyphs" textLength="68" x="256" y="363.4292">Author User</text><ellipse cx="247" cy="373.0234" fill="none" rx="3" ry="3" style="stroke: #038048; stroke-width: 1.0;"/><text fill="#000000" font-family="sans-serif" font-size="11" lengthAdjust="spacingAndGlyphs" textLength="61" x="256" y="376.2339">Active bool</text><line style="stroke: #A80036; stroke-width: 1.5;" x1="237" x2="415" y1="382.8281" y2="382.8281"/><!--MD5=[863f1825d6635ffa2f584082db8395ae]
class domain.Group--><rect fill="#FEFECE" filter="url(#f1lzblg4qu2695)" height="99.2188" id="domain.Group" style="stroke: #A80036; stroke-width: 1.5;" width="141" x="362.5" y="451"/><ellipse cx="409.75" cy="467" fill="#7FFFD4" rx="11" ry="11" style="stroke: #A80036; stroke-width: 1.0;"/><path d="M409.2344,467.5625 Q407.375,466.8594 406.7188,466.0938 Q406.0781,465.3125 406.0781,464 Q406.0781,462.3125 407.1563,461.3438 Q408.2344,460.375 410.1094,460.375 Q410.9688,460.375 411.8125,460.5781 Q412.6719,460.7656 413.5156,461.1563 L413.5156,463.5469 Q412.7344,462.9844 411.9063,462.7031 Q411.0938,462.4063 410.2969,462.4063 Q409.4219,462.4063 408.9375,462.7656 Q408.4688,463.125 408.4688,463.7813 Q408.4688,464.2969 408.8125,464.6406 Q409.1563,464.9688 410.25,465.375 L411.3125,465.7813 Q412.7969,466.3281 413.5,467.2344 Q414.2188,468.1406 414.2188,469.5156 Q414.2188,471.3906 413.1094,472.3125 Q412,473.2344 409.75,473.2344 Q408.8281,473.2344 407.9063,473.0156 Q406.9844,472.7969 406.125,472.375 L406.125,469.8438 Q407.0938,470.5313 408.0156,470.875 Q408.9375,471.2188 409.8281,471.2188 Q410.7344,471.2188 411.2344,470.8125 Q411.7344,470.3906 411.7344,469.6563 Q411.7344,469.0938 411.3906,468.6875 Q411.0625,468.2656 410.4375,468.0156 L409.2344,467.5625 Z "/><text fill="#000000" font-family="sans-serif" font-size="12" lengthAdjust="spacingAndGlyphs" textLength="38" x="430.25" y="471.1543">Group</text><line style="stroke: #A80036; stroke-width: 1.5;" x1="363.5" x2="502.5" y1="483" y2="483"/><ellipse cx="373.5" cy="494" fill="none" rx="3" ry="3" style="stroke: #038048; stroke-width: 1.0;"/><text fill="#000000" font-family="sans-serif" font-size="11" lengthAdjust="spacingAndGlyphs" textLength="115" x="382.5" y="497.2104">ID primitive.ObjectID</text><ellipse cx="373.5" cy="506.8047" fill="none" rx="3" ry="3" style="stroke: #038048; stroke-width: 1.0;"/><text fill="#000000" font-family="sans-serif" font-size="11" lengthAdjust="spacingAndGlyphs" textLength="70" x="382.5" y="510.0151">Name string</text><ellipse cx="373.5" cy="519.6094" fill="none" rx="3" ry="3" style="stroke: #038048; stroke-width: 1.0;"/><text fill="#000000" font-family="sans-serif" font-size="11" lengthAdjust="spacingAndGlyphs" textLength="68" x="382.5" y="522.8198">Owner User</text><ellipse cx="373.5" cy="532.4141" fill="none" rx="3" ry="3" style="stroke: #038048; stroke-width: 1.0;"/><text fill="#000000" font-family="sans-serif" font-size="11" lengthAdjust="spacingAndGlyphs" textLength="61" x="382.5" y="535.6245">Active bool</text><line style="stroke: #A80036; stroke-width: 1.5;" x1="363.5" x2="502.5" y1="542.2188" y2="542.2188"/><!--MD5=[c17524741a03264fd90aa714fe1c3562]
class domain.Language--><rect fill="#FEFECE" filter="url(#f1lzblg4qu2695)" height="99.2188" id="domain.Language" style="stroke: #A80036; stroke-width: 1.5;" width="141" x="85.5" y="451"/><ellipse cx="121.65" cy="467" fill="#7FFFD4" rx="11" ry="11" style="stroke: #A80036; stroke-width: 1.0;"/><path d="M121.1344,467.5625 Q119.275,466.8594 118.6188,466.0938 Q117.9781,465.3125 117.9781,464 Q117.9781,462.3125 119.0563,461.3438 Q120.1344,460.375 122.0094,460.375 Q122.8688,460.375 123.7125,460.5781 Q124.5719,460.7656 125.4156,461.1563 L125.4156,463.5469 Q124.6344,462.9844 123.8063,462.7031 Q122.9938,462.4063 122.1969,462.4063 Q121.3219,462.4063 120.8375,462.7656 Q120.3688,463.125 120.3688,463.7813 Q120.3688,464.2969 120.7125,464.6406 Q121.0563,464.9688 122.15,465.375 L123.2125,465.7813 Q124.6969,466.3281 125.4,467.2344 Q126.1188,468.1406 126.1188,469.5156 Q126.1188,471.3906 125.0094,472.3125 Q123.9,473.2344 121.65,473.2344 Q120.7281,473.2344 119.8063,473.0156 Q118.8844,472.7969 118.025,472.375 L118.025,469.8438 Q118.9938,470.5313 119.9156,470.875 Q120.8375,471.2188 121.7281,471.2188 Q122.6344,471.2188 123.1344,470.8125 Q123.6344,470.3906 123.6344,469.6563 Q123.6344,469.0938 123.2906,468.6875 Q122.9625,468.2656 122.3375,468.0156 L121.1344,467.5625 Z "/><text fill="#000000" font-family="sans-serif" font-size="12" lengthAdjust="spacingAndGlyphs" textLength="62" x="140.35" y="471.1543">Language</text><line style="stroke: #A80036; stroke-width: 1.5;" x1="86.5" x2="225.5" y1="483" y2="483"/><ellipse cx="96.5" cy="494" fill="none" rx="3" ry="3" style="stroke: #038048; stroke-width: 1.0;"/><text fill="#000000" font-family="sans-serif" font-size="11" lengthAdjust="spacingAndGlyphs" textLength="115" x="105.5" y="497.2104">ID primitive.ObjectID</text><ellipse cx="96.5" cy="506.8047" fill="none" rx="3" ry="3" style="stroke: #038048; stroke-width: 1.0;"/><text fill="#000000" font-family="sans-serif" font-size="11" lengthAdjust="spacingAndGlyphs" textLength="83" x="105.5" y="510.0151">IsoCode string</text><ellipse cx="96.5" cy="519.6094" fill="none" rx="3" ry="3" style="stroke: #038048; stroke-width: 1.0;"/><text fill="#000000" font-family="sans-serif" font-size="11" lengthAdjust="spacingAndGlyphs" textLength="101" x="105.5" y="522.8198">Description string</text><ellipse cx="96.5" cy="532.4141" fill="none" rx="3" ry="3" style="stroke: #038048; stroke-width: 1.0;"/><text fill="#000000" font-family="sans-serif" font-size="11" lengthAdjust="spacingAndGlyphs" textLength="61" x="105.5" y="535.6245">Active bool</text><line style="stroke: #A80036; stroke-width: 1.5;" x1="86.5" x2="225.5" y1="542.2188" y2="542.2188"/><!--MD5=[31e87857781726aef1a9645d85eb2642]
class domain.Permission--><rect fill="#FEFECE" filter="url(#f1lzblg4qu2695)" height="99.2188" id="domain.Permission" style="stroke: #A80036; stroke-width: 1.5;" width="141" x="451.5" y="279"/><ellipse cx="484.95" cy="295" fill="#7FFFD4" rx="11" ry="11" style="stroke: #A80036; stroke-width: 1.0;"/><path d="M484.4344,295.5625 Q482.575,294.8594 481.9188,294.0938 Q481.2781,293.3125 481.2781,292 Q481.2781,290.3125 482.3563,289.3438 Q483.4344,288.375 485.3094,288.375 Q486.1688,288.375 487.0125,288.5781 Q487.8719,288.7656 488.7156,289.1563 L488.7156,291.5469 Q487.9344,290.9844 487.1063,290.7031 Q486.2938,290.4063 485.4969,290.4063 Q484.6219,290.4063 484.1375,290.7656 Q483.6688,291.125 483.6688,291.7813 Q483.6688,292.2969 484.0125,292.6406 Q484.3563,292.9688 485.45,293.375 L486.5125,293.7813 Q487.9969,294.3281 488.7,295.2344 Q489.4188,296.1406 489.4188,297.5156 Q489.4188,299.3906 488.3094,300.3125 Q487.2,301.2344 484.95,301.2344 Q484.0281,301.2344 483.1063,301.0156 Q482.1844,300.7969 481.325,300.375 L481.325,297.8438 Q482.2938,298.5313 483.2156,298.875 Q484.1375,299.2188 485.0281,299.2188 Q485.9344,299.2188 486.4344,298.8125 Q486.9344,298.3906 486.9344,297.6563 Q486.9344,297.0938 486.5906,296.6875 Q486.2625,296.2656 485.6375,296.0156 L484.4344,295.5625 Z "/><text fill="#000000" font-family="sans-serif" font-size="12" lengthAdjust="spacingAndGlyphs" textLength="68" x="503.05" y="299.1543">Permission</text><line style="stroke: #A80036; stroke-width: 1.5;" x1="452.5" x2="591.5" y1="311" y2="311"/><ellipse cx="462.5" cy="322" fill="none" rx="3" ry="3" style="stroke: #038048; stroke-width: 1.0;"/><text fill="#000000" font-family="sans-serif" font-size="11" lengthAdjust="spacingAndGlyphs" textLength="115" x="471.5" y="325.2104">ID primitive.ObjectID</text><ellipse cx="462.5" cy="334.8047" fill="none" rx="3" ry="3" style="stroke: #038048; stroke-width: 1.0;"/><text fill="#000000" font-family="sans-serif" font-size="11" lengthAdjust="spacingAndGlyphs" textLength="58" x="471.5" y="338.0151">User User</text><ellipse cx="462.5" cy="347.6094" fill="none" rx="3" ry="3" style="stroke: #038048; stroke-width: 1.0;"/><text fill="#000000" font-family="sans-serif" font-size="11" lengthAdjust="spacingAndGlyphs" textLength="74" x="471.5" y="350.8198">Group Group</text><ellipse cx="462.5" cy="360.4141" fill="none" rx="3" ry="3" style="stroke: #038048; stroke-width: 1.0;"/><text fill="#000000" font-family="sans-serif" font-size="11" lengthAdjust="spacingAndGlyphs" textLength="113" x="471.5" y="363.6245">CanWriteGroup bool</text><line style="stroke: #A80036; stroke-width: 1.5;" x1="452.5" x2="591.5" y1="370.2188" y2="370.2188"/><!--MD5=[9a7789b2fe37cd0457e308260b86b1c2]
class domain.Stage--><rect fill="#FEFECE" filter="url(#f1lzblg4qu2695)" height="86.4141" id="domain.Stage" style="stroke: #A80036; stroke-width: 1.5;" width="141" x="59.5" y="285.5"/><ellipse cx="107.25" cy="301.5" fill="#7FFFD4" rx="11" ry="11" style="stroke: #A80036; stroke-width: 1.0;"/><path d="M106.7344,302.0625 Q104.875,301.3594 104.2188,300.5938 Q103.5781,299.8125 103.5781,298.5 Q103.5781,296.8125 104.6563,295.8438 Q105.7344,294.875 107.6094,294.875 Q108.4688,294.875 109.3125,295.0781 Q110.1719,295.2656 111.0156,295.6563 L111.0156,298.0469 Q110.2344,297.4844 109.4063,297.2031 Q108.5938,296.9063 107.7969,296.9063 Q106.9219,296.9063 106.4375,297.2656 Q105.9688,297.625 105.9688,298.2813 Q105.9688,298.7969 106.3125,299.1406 Q106.6563,299.4688 107.75,299.875 L108.8125,300.2813 Q110.2969,300.8281 111,301.7344 Q111.7188,302.6406 111.7188,304.0156 Q111.7188,305.8906 110.6094,306.8125 Q109.5,307.7344 107.25,307.7344 Q106.3281,307.7344 105.4063,307.5156 Q104.4844,307.2969 103.625,306.875 L103.625,304.3438 Q104.5938,305.0313 105.5156,305.375 Q106.4375,305.7188 107.3281,305.7188 Q108.2344,305.7188 108.7344,305.3125 Q109.2344,304.8906 109.2344,304.1563 Q109.2344,303.5938 108.8906,303.1875 Q108.5625,302.7656 107.9375,302.5156 L106.7344,302.0625 Z "/><text fill="#000000" font-family="sans-serif" font-size="12" lengthAdjust="spacingAndGlyphs" textLength="37" x="127.75" y="305.6543">Stage</text><line style="stroke: #A80036; stroke-width: 1.5;" x1="60.5" x2="199.5" y1="317.5" y2="317.5"/><ellipse cx="70.5" cy="328.5" fill="none" rx="3" ry="3" style="stroke: #038048; stroke-width: 1.0;"/><text fill="#000000" font-family="sans-serif" font-size="11" lengthAdjust="spacingAndGlyphs" textLength="115" x="79.5" y="331.7104">ID primitive.ObjectID</text><ellipse cx="70.5" cy="341.3047" fill="none" rx="3" ry="3" style="stroke: #038048; stroke-width: 1.0;"/><text fill="#000000" font-family="sans-serif" font-size="11" lengthAdjust="spacingAndGlyphs" textLength="70" x="79.5" y="344.5151">Name string</text><ellipse cx="70.5" cy="354.1094" fill="none" rx="3" ry="3" style="stroke: #038048; stroke-width: 1.0;"/><text fill="#000000" font-family="sans-serif" font-size="11" lengthAdjust="spacingAndGlyphs" textLength="61" x="79.5" y="357.3198">Active bool</text><line style="stroke: #A80036; stroke-width: 1.5;" x1="60.5" x2="199.5" y1="363.9141" y2="363.9141"/><!--MD5=[0134179867525364293e41d4802e5b11]
class domain.Translation--><rect fill="#FEFECE" filter="url(#f1lzblg4qu2695)" height="163.2422" id="domain.Translation" style="stroke: #A80036; stroke-width: 1.5;" width="156" x="150" y="43"/><ellipse cx="189.3" cy="59" fill="#7FFFD4" rx="11" ry="11" style="stroke: #A80036; stroke-width: 1.0;"/><path d="M188.7844,59.5625 Q186.925,58.8594 186.2688,58.0938 Q185.6281,57.3125 185.6281,56 Q185.6281,54.3125 186.7063,53.3438 Q187.7844,52.375 189.6594,52.375 Q190.5188,52.375 191.3625,52.5781 Q192.2219,52.7656 193.0656,53.1563 L193.0656,55.5469 Q192.2844,54.9844 191.4563,54.7031 Q190.6438,54.4063 189.8469,54.4063 Q188.9719,54.4063 188.4875,54.7656 Q188.0188,55.125 188.0188,55.7813 Q188.0188,56.2969 188.3625,56.6406 Q188.7063,56.9688 189.8,57.375 L190.8625,57.7813 Q192.3469,58.3281 193.05,59.2344 Q193.7688,60.1406 193.7688,61.5156 Q193.7688,63.3906 192.6594,64.3125 Q191.55,65.2344 189.3,65.2344 Q188.3781,65.2344 187.4563,65.0156 Q186.5344,64.7969 185.675,64.375 L185.675,61.8438 Q186.6438,62.5313 187.5656,62.875 Q188.4875,63.2188 189.3781,63.2188 Q190.2844,63.2188 190.7844,62.8125 Q191.2844,62.3906 191.2844,61.6563 Q191.2844,61.0938 190.9406,60.6875 Q190.6125,60.2656 189.9875,60.0156 L188.7844,59.5625 Z "/><text fill="#000000" font-family="sans-serif" font-size="12" lengthAdjust="spacingAndGlyphs" textLength="70" x="208.7" y="63.1543">Translation</text><line style="stroke: #A80036; stroke-width: 1.5;" x1="151" x2="305" y1="75" y2="75"/><ellipse cx="161" cy="86" fill="none" rx="3" ry="3" style="stroke: #038048; stroke-width: 1.0;"/><text fill="#000000" font-family="sans-serif" font-size="11" lengthAdjust="spacingAndGlyphs" textLength="115" x="170" y="89.2104">ID primitive.ObjectID</text><ellipse cx="161" cy="98.8047" fill="none" rx="3" ry="3" style="stroke: #038048; stroke-width: 1.0;"/><text fill="#000000" font-family="sans-serif" font-size="11" lengthAdjust="spacingAndGlyphs" textLength="81" x="170" y="102.0151">Content string</text><ellipse cx="161" cy="111.6094" fill="none" rx="3" ry="3" style="stroke: #038048; stroke-width: 1.0;"/><text fill="#000000" font-family="sans-serif" font-size="11" lengthAdjust="spacingAndGlyphs" textLength="114" x="170" y="114.8198">Language Language</text><ellipse cx="161" cy="124.4141" fill="none" rx="3" ry="3" style="stroke: #038048; stroke-width: 1.0;"/><text fill="#000000" font-family="sans-serif" font-size="11" lengthAdjust="spacingAndGlyphs" textLength="61" x="170" y="127.6245">Version int</text><ellipse cx="161" cy="137.2188" fill="none" rx="3" ry="3" style="stroke: #038048; stroke-width: 1.0;"/><text fill="#000000" font-family="sans-serif" font-size="11" lengthAdjust="spacingAndGlyphs" textLength="61" x="170" y="140.4292">Active bool</text><ellipse cx="161" cy="150.0234" fill="none" rx="3" ry="3" style="stroke: #038048; stroke-width: 1.0;"/><text fill="#000000" font-family="sans-serif" font-size="11" lengthAdjust="spacingAndGlyphs" textLength="130" x="170" y="153.2339">BaseString BaseString</text><ellipse cx="161" cy="162.8281" fill="none" rx="3" ry="3" style="stroke: #038048; stroke-width: 1.0;"/><text fill="#000000" font-family="sans-serif" font-size="11" lengthAdjust="spacingAndGlyphs" textLength="68" x="170" y="166.0386">Author User</text><ellipse cx="161" cy="175.6328" fill="none" rx="3" ry="3" style="stroke: #038048; stroke-width: 1.0;"/><text fill="#000000" font-family="sans-serif" font-size="11" lengthAdjust="spacingAndGlyphs" textLength="87" x="170" y="178.8433">Date time.Time</text><ellipse cx="161" cy="188.4375" fill="none" rx="3" ry="3" style="stroke: #038048; stroke-width: 1.0;"/><text fill="#000000" font-family="sans-serif" font-size="11" lengthAdjust="spacingAndGlyphs" textLength="70" x="170" y="191.6479">Stage Stage</text><line style="stroke: #A80036; stroke-width: 1.5;" x1="151" x2="305" y1="198.2422" y2="198.2422"/><!--MD5=[8650bc9010346a63b380831969c88903]
class domain.User--><rect fill="#FEFECE" filter="url(#f1lzblg4qu2695)" height="112.0234" id="domain.User" style="stroke: #A80036; stroke-width: 1.5;" width="141" x="415.5" y="610"/><ellipse cx="467.25" cy="626" fill="#7FFFD4" rx="11" ry="11" style="stroke: #A80036; stroke-width: 1.0;"/><path d="M466.7344,626.5625 Q464.875,625.8594 464.2188,625.0938 Q463.5781,624.3125 463.5781,623 Q463.5781,621.3125 464.6563,620.3438 Q465.7344,619.375 467.6094,619.375 Q468.4688,619.375 469.3125,619.5781 Q470.1719,619.7656 471.0156,620.1563 L471.0156,622.5469 Q470.2344,621.9844 469.4063,621.7031 Q468.5938,621.4063 467.7969,621.4063 Q466.9219,621.4063 466.4375,621.7656 Q465.9688,622.125 465.9688,622.7813 Q465.9688,623.2969 466.3125,623.6406 Q466.6563,623.9688 467.75,624.375 L468.8125,624.7813 Q470.2969,625.3281 471,626.2344 Q471.7188,627.1406 471.7188,628.5156 Q471.7188,630.3906 470.6094,631.3125 Q469.5,632.2344 467.25,632.2344 Q466.3281,632.2344 465.4063,632.0156 Q464.4844,631.7969 463.625,631.375 L463.625,628.8438 Q464.5938,629.5313 465.5156,629.875 Q466.4375,630.2188 467.3281,630.2188 Q468.2344,630.2188 468.7344,629.8125 Q469.2344,629.3906 469.2344,628.6563 Q469.2344,628.0938 468.8906,627.6875 Q468.5625,627.2656 467.9375,627.0156 L466.7344,626.5625 Z "/><text fill="#000000" font-family="sans-serif" font-size="12" lengthAdjust="spacingAndGlyphs" textLength="29" x="487.75" y="630.1543">User</text><line style="stroke: #A80036; stroke-width: 1.5;" x1="416.5" x2="555.5" y1="642" y2="642"/><ellipse cx="426.5" cy="653" fill="none" rx="3" ry="3" style="stroke: #038048; stroke-width: 1.0;"/><text fill="#000000" font-family="sans-serif" font-size="11" lengthAdjust="spacingAndGlyphs" textLength="115" x="435.5" y="656.2104">ID primitive.ObjectID</text><ellipse cx="426.5" cy="665.8047" fill="none" rx="3" ry="3" style="stroke: #038048; stroke-width: 1.0;"/><text fill="#000000" font-family="sans-serif" font-size="11" lengthAdjust="spacingAndGlyphs" textLength="68" x="435.5" y="669.0151">Email string</text><ellipse cx="426.5" cy="678.6094" fill="none" rx="3" ry="3" style="stroke: #038048; stroke-width: 1.0;"/><text fill="#000000" font-family="sans-serif" font-size="11" lengthAdjust="spacingAndGlyphs" textLength="93" x="435.5" y="681.8198">Password string</text><ellipse cx="426.5" cy="691.4141" fill="none" rx="3" ry="3" style="stroke: #038048; stroke-width: 1.0;"/><text fill="#000000" font-family="sans-serif" font-size="11" lengthAdjust="spacingAndGlyphs" textLength="63" x="435.5" y="694.6245">Admin bool</text><ellipse cx="426.5" cy="704.2188" fill="none" rx="3" ry="3" style="stroke: #038048; stroke-width: 1.0;"/><text fill="#000000" font-family="sans-serif" font-size="11" lengthAdjust="spacingAndGlyphs" textLength="61" x="435.5" y="707.4292">Active bool</text><line style="stroke: #A80036; stroke-width: 1.5;" x1="416.5" x2="555.5" y1="714.0234" y2="714.0234"/><!--MD5=[a58f670ca5da764943dbfd91898f76ec]
reverse link domain.BaseString to domain.Group--><path d="M371.9201,402.3154 C382.1275,418.7237 392.7107,435.7359 402.1426,450.8974 " fill="none" id="domain.BaseString&lt;-domain.Group" style="stroke: #A80036; stroke-width: 1.0;"/><polygon fill="#FFFFFF" points="364.9321,391.0825,364.705,398.29,371.2707,401.2718,371.4978,394.0643,364.9321,391.0825" style="stroke: #A80036; stroke-width: 1.0;"/><!--MD5=[8f85cd1f7e91c3dd879d00692f2a4a02]
reverse link domain.BaseString to domain.Language--><path d="M254.9114,400.425 C238.1215,417.4123 220.5874,435.1528 205.0258,450.8974 " fill="none" id="domain.BaseString&lt;-domain.Language" style="stroke: #A80036; stroke-width: 1.0;"/><polygon fill="#FFFFFF" points="264.1452,391.0825,257.0825,392.538,255.7096,399.6172,262.7723,398.1617,264.1452,391.0825" style="stroke: #A80036; stroke-width: 1.0;"/><!--MD5=[a970db55fdda3fd5dba5999d7a7488e2]
reverse link domain.BaseString to domain.User--><path d="M318.3071,404.5091 C317.1279,449.2726 321.6766,505.6308 345,550 C361.003,580.4432 388.7688,605.9181 415.452,625.1677 " fill="none" id="domain.BaseString&lt;-domain.User" style="stroke: #A80036; stroke-width: 1.0;"/><polygon fill="#FFFFFF" points="318.8268,391.3154,314.5937,397.1533,318.3544,403.3061,322.5875,397.4682,318.8268,391.3154" style="stroke: #A80036; stroke-width: 1.0;"/><!--MD5=[b095e4e198b25f375cd07fcaab573238]
reverse link domain.Group to domain.User--><path d="M452.9522,562.8037 C457.884,578.204 463.1386,594.6122 467.9728,609.7076 " fill="none" id="domain.Group&lt;-domain.User" style="stroke: #A80036; stroke-width: 1.0;"/><polygon fill="#FFFFFF" points="448.9017,550.1555,446.9222,557.0896,452.5616,561.5838,454.5411,554.6497,448.9017,550.1555" style="stroke: #A80036; stroke-width: 1.0;"/><!--MD5=[c40b0910f93893ed51eadcb1cacd64b2]
reverse link domain.Permission to domain.Group--><path d="M490.1454,390.0616 C479.8196,410.0171 468.5032,431.8871 458.6846,450.8623 " fill="none" id="domain.Permission&lt;-domain.Group" style="stroke: #A80036; stroke-width: 1.0;"/><polygon fill="#FFFFFF" points="496.2575,378.2495,489.9475,381.7401,490.7427,388.9072,497.0526,385.4166,496.2575,378.2495" style="stroke: #A80036; stroke-width: 1.0;"/><!--MD5=[5dbfd629f36032bae3f0c07711dbd3d6]
reverse link domain.Permission to domain.User--><path d="M526.5048,391.3441 C528.5339,435.8871 528.9553,496.9238 521,550 C518.0222,569.8671 512.3954,591.0545 506.5104,609.8123 " fill="none" id="domain.Permission&lt;-domain.User" style="stroke: #A80036; stroke-width: 1.0;"/><polygon fill="#FFFFFF" points="525.8309,378.077,522.1404,384.2722,526.4396,390.0616,530.1301,383.8664,525.8309,378.077" style="stroke: #A80036; stroke-width: 1.0;"/><!--MD5=[257603dc96d23d59db0ce3c08258fc6a]
reverse link domain.Translation to domain.BaseString--><path d="M272.8262,217.8117 C280.6659,234.131 288.649,250.749 295.9652,265.9786 " fill="none" id="domain.Translation&lt;-domain.BaseString" style="stroke: #A80036; stroke-width: 1.0;"/><polygon fill="#FFFFFF" points="267.1547,206.0057,266.1474,213.1461,272.3511,216.8223,273.3584,209.6819,267.1547,206.0057" style="stroke: #A80036; stroke-width: 1.0;"/><!--MD5=[9e4ca911e1cc4d6d466066babcc23625]
reverse link domain.Translation to domain.Language--><path d="M138.5063,168.7229 C101.4929,192.1178 62.4959,224.655 42,266 C17.325,315.7752 20.2243,339.89 42,391 C51.6809,413.7221 68.6449,434.0016 86.5745,450.7474 " fill="none" id="domain.Translation&lt;-domain.Language" style="stroke: #A80036; stroke-width: 1.0;"/><polygon fill="#FFFFFF" points="149.9069,161.7563,142.7014,161.4718,139.6674,168.0135,146.8729,168.2981,149.9069,161.7563" style="stroke: #A80036; stroke-width: 1.0;"/><!--MD5=[fb4756a55770ea16f00e7e6869b144ec]
reverse link domain.Translation to domain.Stage--><path d="M183.1326,217.8975 C171.7878,241.5131 160.1455,265.7481 150.6614,285.4905 " fill="none" id="domain.Translation&lt;-domain.Stage" style="stroke: #A80036; stroke-width: 1.0;"/><polygon fill="#FFFFFF" points="188.8453,206.0057,182.6416,209.6819,183.6489,216.8223,189.8526,213.1461,188.8453,206.0057" style="stroke: #A80036; stroke-width: 1.0;"/><!--MD5=[752fd56d52fdfdd37179b84cd78292a4]
reverse link domain.Translation to domain.User--><path d="M318.9362,145.5237 C420.7211,171.1133 575.9059,217.0129 610,266 C684.862,373.5632 592.829,527.9592 531.8095,609.9124 " fill="none" id="domain.Translation&lt;-domain.User" style="stroke: #A80036; stroke-width: 1.0;"/><polygon fill="#FFFFFF" points="306.1829,142.3531,311.0405,147.6826,317.8284,145.2484,312.9707,139.9189,306.1829,142.3531" style="stroke: #A80036; stroke-width: 1.0;"/><!--MD5=[623d2eb3d30fa5356a99da64e65e4b98]
@startuml
namespace domain {
    class BaseString << (S,Aquamarine) >> {
        + ID primitive.ObjectID
        + SourceLanguage Language
        + Description string
        + Group Group
        + Author User
        + Active bool

    }
    class Group << (S,Aquamarine) >> {
        + ID primitive.ObjectID
        + Name string
        + Owner User
        + Active bool

    }
    class Language << (S,Aquamarine) >> {
        + ID primitive.ObjectID
        + IsoCode string
        + Description string
        + Active bool

    }
    class Permission << (S,Aquamarine) >> {
        + ID primitive.ObjectID
        + User User
        + Group Group
        + CanWriteGroup bool

    }
    class Stage << (S,Aquamarine) >> {
        + ID primitive.ObjectID
        + Name string
        + Active bool

    }
    class Translation << (S,Aquamarine) >> {
        + ID primitive.ObjectID
        + Content string
        + Language Language
        + Version int
        + Active bool
        + BaseString BaseString
        + Author User
        + Date time.Time
        + Stage Stage

    }
    class User << (S,Aquamarine) >> {
        + ID primitive.ObjectID
        + Email string
        + Password string
        + Admin bool
        + Active bool

    }
}


"domain.BaseString" o- - "domain.Group"
"domain.BaseString" o- - "domain.Language"
"domain.BaseString" o- - "domain.User"
"domain.Group" o- - "domain.User"
"domain.Permission" o- - "domain.Group"
"domain.Permission" o- - "domain.User"
"domain.Translation" o- - "domain.BaseString"
"domain.Translation" o- - "domain.Language"
"domain.Translation" o- - "domain.Stage"
"domain.Translation" o- - "domain.User"

@enduml

PlantUML version 1.2020.06(Sun Apr 05 12:38:32 GMT 2020)
(GPL source distribution)
Java Runtime: OpenJDK Runtime Environment
JVM: OpenJDK 64-Bit Server VM
Java Version: 14-ea+33
Operating System: Linux
Default Encoding: UTF-8
Language: en
Country: US
--></g></svg>