<?xml version="1.0" encoding="UTF-8" standalone="no"?><svg xmlns="http://www.w3.org/2000/svg" xmlns:xlink="http://www.w3.org/1999/xlink" contentStyleType="text/css" height="876px" preserveAspectRatio="none" style="width:681px;height:876px;background:#FFFFFF;" version="1.1" viewBox="0 0 681 876" width="681px" zoomAndPan="magnify"><defs/><g><!--cluster domain--><g id="cluster_domain"><path d="M8.5,6 L66.5,6 A3.75,3.75 0 0 1 69,8.5 L76,28.2969 L671.5,28.2969 A2.5,2.5 0 0 1 674,30.7969 L674,866.5 A2.5,2.5 0 0 1 671.5,869 L8.5,869 A2.5,2.5 0 0 1 6,866.5 L6,8.5 A2.5,2.5 0 0 1 8.5,6 " fill="none" style="stroke:#000000;stroke-width:1.5;"/><line style="stroke:#000000;stroke-width:1.5;" x1="6" x2="76" y1="28.2969" y2="28.2969"/><text fill="#000000" font-family="sans-serif" font-size="14" font-weight="bold" lengthAdjust="spacing" textLength="57" x="10" y="20.9951">domain</text></g><!--class domain.BaseString--><g id="elem_domain.BaseString"><rect codeLine="2" fill="#F1F1F1" height="210.9688" id="domain.BaseString" rx="2.5" ry="2.5" style="stroke:#181818;stroke-width:0.5;" width="635" x="22.5" y="41"/><ellipse cx="298.25" cy="57" fill="#7FFFD4" rx="11" ry="11" style="stroke:#181818;stroke-width:1.0;"/><path d="M297.7344,57.5625 Q295.875,56.8594 295.2188,56.0938 Q294.5781,55.3125 294.5781,54 Q294.5781,52.3125 295.6563,51.3438 Q296.7344,50.375 298.6094,50.375 Q299.4688,50.375 300.3125,50.5781 Q301.1719,50.7656 302.0156,51.1563 L302.0156,53.5469 Q301.2344,52.9844 300.4063,52.7031 Q299.5938,52.4063 298.7969,52.4063 Q297.9219,52.4063 297.4375,52.7656 Q296.9688,53.125 296.9688,53.7813 Q296.9688,54.2969 297.3125,54.6406 Q297.6563,54.9688 298.75,55.375 L299.8125,55.7813 Q301.2969,56.3281 302,57.2344 Q302.7188,58.1406 302.7188,59.5156 Q302.7188,61.3906 301.6094,62.3125 Q300.5,63.2344 298.25,63.2344 Q297.3281,63.2344 296.4063,63.0156 Q295.4844,62.7969 294.625,62.375 L294.625,59.8438 Q295.5938,60.5313 296.5156,60.875 Q297.4375,61.2188 298.3281,61.2188 Q299.2344,61.2188 299.7344,60.8125 Q300.2344,60.3906 300.2344,59.6563 Q300.2344,59.0938 299.8906,58.6875 Q299.5625,58.2656 298.9375,58.0156 L297.7344,57.5625 Z " fill="#000000"/><text fill="#000000" font-family="sans-serif" font-size="14" lengthAdjust="spacing" textLength="75" x="318.75" y="61.8467">BaseString</text><line style="stroke:#181818;stroke-width:0.5;" x1="23.5" x2="656.5" y1="73" y2="73"/><ellipse cx="33.5" cy="86.6484" fill="none" rx="3" ry="3" style="stroke:#038048;stroke-width:1.0;"/><text fill="#000000" font-family="sans-serif" font-size="14" lengthAdjust="spacing" textLength="138" x="42.5" y="89.9951">ID primitive.ObjectID</text><ellipse cx="33.5" cy="102.9453" fill="none" rx="3" ry="3" style="stroke:#038048;stroke-width:1.0;"/><text fill="#000000" font-family="sans-serif" font-size="14" lengthAdjust="spacing" textLength="196" x="42.5" y="106.292">SourceLanguage *Language</text><ellipse cx="33.5" cy="119.2422" fill="none" rx="3" ry="3" style="stroke:#038048;stroke-width:1.0;"/><text fill="#000000" font-family="sans-serif" font-size="14" lengthAdjust="spacing" textLength="102" x="42.5" y="122.5889">Identifier string</text><ellipse cx="33.5" cy="135.5391" fill="none" rx="3" ry="3" style="stroke:#038048;stroke-width:1.0;"/><text fill="#000000" font-family="sans-serif" font-size="14" lengthAdjust="spacing" textLength="78" x="42.5" y="138.8857">Page string</text><ellipse cx="33.5" cy="151.8359" fill="none" rx="3" ry="3" style="stroke:#038048;stroke-width:1.0;"/><text fill="#000000" font-family="sans-serif" font-size="14" lengthAdjust="spacing" textLength="97" x="42.5" y="155.1826">Group *Group</text><ellipse cx="33.5" cy="168.1328" fill="none" rx="3" ry="3" style="stroke:#038048;stroke-width:1.0;"/><text fill="#000000" font-family="sans-serif" font-size="14" lengthAdjust="spacing" textLength="89" x="42.5" y="171.4795">Author *User</text><ellipse cx="33.5" cy="184.4297" fill="none" rx="3" ry="3" style="stroke:#038048;stroke-width:1.0;"/><text fill="#000000" font-family="sans-serif" font-size="14" lengthAdjust="spacing" textLength="75" x="42.5" y="187.7764">Active bool</text><ellipse cx="33.5" cy="200.7266" fill="none" rx="3" ry="3" style="stroke:#038048;stroke-width:1.0;"/><text fill="#000000" font-family="sans-serif" font-size="14" lengthAdjust="spacing" textLength="174" x="42.5" y="204.0732">Translations []Translation</text><line style="stroke:#181818;stroke-width:0.5;" x1="23.5" x2="656.5" y1="211.375" y2="211.375"/><ellipse cx="33.5" cy="225.0234" fill="#84BE84" rx="3" ry="3" style="stroke:#038048;stroke-width:1.0;"/><text fill="#000000" font-family="sans-serif" font-size="14" lengthAdjust="spacing" textLength="459" x="42.5" y="228.3701">FindTranslationLastVersionByLanguage(language Language) string</text><ellipse cx="33.5" cy="241.3203" fill="#84BE84" rx="3" ry="3" style="stroke:#038048;stroke-width:1.0;"/><text fill="#000000" font-family="sans-serif" font-size="14" lengthAdjust="spacing" textLength="609" x="42.5" y="244.667">FindTranslationLastVersionByLanguageAndState(language Language, state Stage) string</text></g><!--class domain.Group--><g id="elem_domain.Group"><rect codeLine="16" fill="#F1F1F1" height="145.7813" id="domain.Group" rx="2.5" ry="2.5" style="stroke:#181818;stroke-width:0.5;" width="200" x="82" y="320"/><ellipse cx="156.25" cy="336" fill="#7FFFD4" rx="11" ry="11" style="stroke:#181818;stroke-width:1.0;"/><path d="M155.7344,336.5625 Q153.875,335.8594 153.2188,335.0938 Q152.5781,334.3125 152.5781,333 Q152.5781,331.3125 153.6563,330.3438 Q154.7344,329.375 156.6094,329.375 Q157.4688,329.375 158.3125,329.5781 Q159.1719,329.7656 160.0156,330.1563 L160.0156,332.5469 Q159.2344,331.9844 158.4063,331.7031 Q157.5938,331.4063 156.7969,331.4063 Q155.9219,331.4063 155.4375,331.7656 Q154.9688,332.125 154.9688,332.7813 Q154.9688,333.2969 155.3125,333.6406 Q155.6563,333.9688 156.75,334.375 L157.8125,334.7813 Q159.2969,335.3281 160,336.2344 Q160.7188,337.1406 160.7188,338.5156 Q160.7188,340.3906 159.6094,341.3125 Q158.5,342.2344 156.25,342.2344 Q155.3281,342.2344 154.4063,342.0156 Q153.4844,341.7969 152.625,341.375 L152.625,338.8438 Q153.5938,339.5313 154.5156,339.875 Q155.4375,340.2188 156.3281,340.2188 Q157.2344,340.2188 157.7344,339.8125 Q158.2344,339.3906 158.2344,338.6563 Q158.2344,338.0938 157.8906,337.6875 Q157.5625,337.2656 156.9375,337.0156 L155.7344,336.5625 Z " fill="#000000"/><text fill="#000000" font-family="sans-serif" font-size="14" lengthAdjust="spacing" textLength="43" x="176.75" y="340.8467">Group</text><line style="stroke:#181818;stroke-width:0.5;" x1="83" x2="281" y1="352" y2="352"/><ellipse cx="93" cy="365.6484" fill="none" rx="3" ry="3" style="stroke:#038048;stroke-width:1.0;"/><text fill="#000000" font-family="sans-serif" font-size="14" lengthAdjust="spacing" textLength="138" x="102" y="368.9951">ID primitive.ObjectID</text><ellipse cx="93" cy="381.9453" fill="none" rx="3" ry="3" style="stroke:#038048;stroke-width:1.0;"/><text fill="#000000" font-family="sans-serif" font-size="14" lengthAdjust="spacing" textLength="83" x="102" y="385.292">Name string</text><ellipse cx="93" cy="398.2422" fill="none" rx="3" ry="3" style="stroke:#038048;stroke-width:1.0;"/><text fill="#000000" font-family="sans-serif" font-size="14" lengthAdjust="spacing" textLength="88" x="102" y="401.5889">Owner *User</text><ellipse cx="93" cy="414.5391" fill="none" rx="3" ry="3" style="stroke:#038048;stroke-width:1.0;"/><text fill="#000000" font-family="sans-serif" font-size="14" lengthAdjust="spacing" textLength="174" x="102" y="417.8857">Permissions []Permission</text><ellipse cx="93" cy="430.8359" fill="none" rx="3" ry="3" style="stroke:#038048;stroke-width:1.0;"/><text fill="#000000" font-family="sans-serif" font-size="14" lengthAdjust="spacing" textLength="75" x="102" y="434.1826">Active bool</text><ellipse cx="93" cy="447.1328" fill="none" rx="3" ry="3" style="stroke:#038048;stroke-width:1.0;"/><text fill="#000000" font-family="sans-serif" font-size="14" lengthAdjust="spacing" textLength="75" x="102" y="450.4795">Public bool</text><line style="stroke:#181818;stroke-width:0.5;" x1="83" x2="281" y1="457.7813" y2="457.7813"/></g><!--class domain.Language--><g id="elem_domain.Language"><rect codeLine="25" fill="#F1F1F1" height="113.1875" id="domain.Language" rx="2.5" ry="2.5" style="stroke:#181818;stroke-width:0.5;" width="164" x="218" y="534"/><ellipse cx="261.8" cy="550" fill="#7FFFD4" rx="11" ry="11" style="stroke:#181818;stroke-width:1.0;"/><path d="M261.2844,550.5625 Q259.425,549.8594 258.7688,549.0938 Q258.1281,548.3125 258.1281,547 Q258.1281,545.3125 259.2063,544.3438 Q260.2844,543.375 262.1594,543.375 Q263.0188,543.375 263.8625,543.5781 Q264.7219,543.7656 265.5656,544.1563 L265.5656,546.5469 Q264.7844,545.9844 263.9563,545.7031 Q263.1438,545.4063 262.3469,545.4063 Q261.4719,545.4063 260.9875,545.7656 Q260.5188,546.125 260.5188,546.7813 Q260.5188,547.2969 260.8625,547.6406 Q261.2063,547.9688 262.3,548.375 L263.3625,548.7813 Q264.8469,549.3281 265.55,550.2344 Q266.2688,551.1406 266.2688,552.5156 Q266.2688,554.3906 265.1594,555.3125 Q264.05,556.2344 261.8,556.2344 Q260.8781,556.2344 259.9563,556.0156 Q259.0344,555.7969 258.175,555.375 L258.175,552.8438 Q259.1438,553.5313 260.0656,553.875 Q260.9875,554.2188 261.8781,554.2188 Q262.7844,554.2188 263.2844,553.8125 Q263.7844,553.3906 263.7844,552.6563 Q263.7844,552.0938 263.4406,551.6875 Q263.1125,551.2656 262.4875,551.0156 L261.2844,550.5625 Z " fill="#000000"/><text fill="#000000" font-family="sans-serif" font-size="14" lengthAdjust="spacing" textLength="68" x="282.2" y="554.8467">Language</text><line style="stroke:#181818;stroke-width:0.5;" x1="219" x2="381" y1="566" y2="566"/><ellipse cx="229" cy="579.6484" fill="none" rx="3" ry="3" style="stroke:#038048;stroke-width:1.0;"/><text fill="#000000" font-family="sans-serif" font-size="14" lengthAdjust="spacing" textLength="138" x="238" y="582.9951">ID primitive.ObjectID</text><ellipse cx="229" cy="595.9453" fill="none" rx="3" ry="3" style="stroke:#038048;stroke-width:1.0;"/><text fill="#000000" font-family="sans-serif" font-size="14" lengthAdjust="spacing" textLength="100" x="238" y="599.292">IsoCode string</text><ellipse cx="229" cy="612.2422" fill="none" rx="3" ry="3" style="stroke:#038048;stroke-width:1.0;"/><text fill="#000000" font-family="sans-serif" font-size="14" lengthAdjust="spacing" textLength="122" x="238" y="615.5889">Description string</text><ellipse cx="229" cy="628.5391" fill="none" rx="3" ry="3" style="stroke:#038048;stroke-width:1.0;"/><text fill="#000000" font-family="sans-serif" font-size="14" lengthAdjust="spacing" textLength="75" x="238" y="631.8857">Active bool</text><line style="stroke:#181818;stroke-width:0.5;" x1="219" x2="381" y1="639.1875" y2="639.1875"/></g><!--class domain.Permission--><g id="elem_domain.Permission"><rect codeLine="32" fill="#F1F1F1" height="80.5938" id="domain.Permission" rx="2.5" ry="2.5" style="stroke:#181818;stroke-width:0.5;" width="122" x="24" y="550"/><ellipse cx="45.3" cy="566" fill="#7FFFD4" rx="11" ry="11" style="stroke:#181818;stroke-width:1.0;"/><path d="M44.7844,566.5625 Q42.925,565.8594 42.2688,565.0938 Q41.6281,564.3125 41.6281,563 Q41.6281,561.3125 42.7063,560.3438 Q43.7844,559.375 45.6594,559.375 Q46.5188,559.375 47.3625,559.5781 Q48.2219,559.7656 49.0656,560.1563 L49.0656,562.5469 Q48.2844,561.9844 47.4563,561.7031 Q46.6438,561.4063 45.8469,561.4063 Q44.9719,561.4063 44.4875,561.7656 Q44.0188,562.125 44.0188,562.7813 Q44.0188,563.2969 44.3625,563.6406 Q44.7063,563.9688 45.8,564.375 L46.8625,564.7813 Q48.3469,565.3281 49.05,566.2344 Q49.7688,567.1406 49.7688,568.5156 Q49.7688,570.3906 48.6594,571.3125 Q47.55,572.2344 45.3,572.2344 Q44.3781,572.2344 43.4563,572.0156 Q42.5344,571.7969 41.675,571.375 L41.675,568.8438 Q42.6438,569.5313 43.5656,569.875 Q44.4875,570.2188 45.3781,570.2188 Q46.2844,570.2188 46.7844,569.8125 Q47.2844,569.3906 47.2844,568.6563 Q47.2844,568.0938 46.9406,567.6875 Q46.6125,567.2656 45.9875,567.0156 L44.7844,566.5625 Z " fill="#000000"/><text fill="#000000" font-family="sans-serif" font-size="14" lengthAdjust="spacing" textLength="76" x="60.7" y="570.8467">Permission</text><line style="stroke:#181818;stroke-width:0.5;" x1="25" x2="145" y1="582" y2="582"/><ellipse cx="35" cy="595.6484" fill="none" rx="3" ry="3" style="stroke:#038048;stroke-width:1.0;"/><text fill="#000000" font-family="sans-serif" font-size="14" lengthAdjust="spacing" textLength="75" x="44" y="598.9951">User *User</text><ellipse cx="35" cy="611.9453" fill="none" rx="3" ry="3" style="stroke:#038048;stroke-width:1.0;"/><text fill="#000000" font-family="sans-serif" font-size="14" lengthAdjust="spacing" textLength="96" x="44" y="615.292">CanWrite bool</text><line style="stroke:#181818;stroke-width:0.5;" x1="25" x2="145" y1="622.5938" y2="622.5938"/></g><!--class domain.Stage--><g id="elem_domain.Stage"><rect codeLine="37" fill="#F1F1F1" height="96.8906" id="domain.Stage" rx="2.5" ry="2.5" style="stroke:#181818;stroke-width:0.5;" width="164" x="417" y="542"/><ellipse cx="474.75" cy="558" fill="#7FFFD4" rx="11" ry="11" style="stroke:#181818;stroke-width:1.0;"/><path d="M474.2344,558.5625 Q472.375,557.8594 471.7188,557.0938 Q471.0781,556.3125 471.0781,555 Q471.0781,553.3125 472.1563,552.3438 Q473.2344,551.375 475.1094,551.375 Q475.9688,551.375 476.8125,551.5781 Q477.6719,551.7656 478.5156,552.1563 L478.5156,554.5469 Q477.7344,553.9844 476.9063,553.7031 Q476.0938,553.4063 475.2969,553.4063 Q474.4219,553.4063 473.9375,553.7656 Q473.4688,554.125 473.4688,554.7813 Q473.4688,555.2969 473.8125,555.6406 Q474.1563,555.9688 475.25,556.375 L476.3125,556.7813 Q477.7969,557.3281 478.5,558.2344 Q479.2188,559.1406 479.2188,560.5156 Q479.2188,562.3906 478.1094,563.3125 Q477,564.2344 474.75,564.2344 Q473.8281,564.2344 472.9063,564.0156 Q471.9844,563.7969 471.125,563.375 L471.125,560.8438 Q472.0938,561.5313 473.0156,561.875 Q473.9375,562.2188 474.8281,562.2188 Q475.7344,562.2188 476.2344,561.8125 Q476.7344,561.3906 476.7344,560.6563 Q476.7344,560.0938 476.3906,559.6875 Q476.0625,559.2656 475.4375,559.0156 L474.2344,558.5625 Z " fill="#000000"/><text fill="#000000" font-family="sans-serif" font-size="14" lengthAdjust="spacing" textLength="40" x="495.25" y="562.8467">Stage</text><line style="stroke:#181818;stroke-width:0.5;" x1="418" x2="580" y1="574" y2="574"/><ellipse cx="428" cy="587.6484" fill="none" rx="3" ry="3" style="stroke:#038048;stroke-width:1.0;"/><text fill="#000000" font-family="sans-serif" font-size="14" lengthAdjust="spacing" textLength="138" x="437" y="590.9951">ID primitive.ObjectID</text><ellipse cx="428" cy="603.9453" fill="none" rx="3" ry="3" style="stroke:#038048;stroke-width:1.0;"/><text fill="#000000" font-family="sans-serif" font-size="14" lengthAdjust="spacing" textLength="83" x="437" y="607.292">Name string</text><ellipse cx="428" cy="620.2422" fill="none" rx="3" ry="3" style="stroke:#038048;stroke-width:1.0;"/><text fill="#000000" font-family="sans-serif" font-size="14" lengthAdjust="spacing" textLength="75" x="437" y="623.5889">Active bool</text><line style="stroke:#181818;stroke-width:0.5;" x1="418" x2="580" y1="630.8906" y2="630.8906"/></g><!--class domain.Translation--><g id="elem_domain.Translation"><rect codeLine="43" fill="#F1F1F1" height="162.0781" id="domain.Translation" rx="2.5" ry="2.5" style="stroke:#181818;stroke-width:0.5;" width="173" x="389.5" y="312"/><ellipse cx="433.75" cy="328" fill="#7FFFD4" rx="11" ry="11" style="stroke:#181818;stroke-width:1.0;"/><path d="M433.2344,328.5625 Q431.375,327.8594 430.7188,327.0938 Q430.0781,326.3125 430.0781,325 Q430.0781,323.3125 431.1563,322.3438 Q432.2344,321.375 434.1094,321.375 Q434.9688,321.375 435.8125,321.5781 Q436.6719,321.7656 437.5156,322.1563 L437.5156,324.5469 Q436.7344,323.9844 435.9063,323.7031 Q435.0938,323.4063 434.2969,323.4063 Q433.4219,323.4063 432.9375,323.7656 Q432.4688,324.125 432.4688,324.7813 Q432.4688,325.2969 432.8125,325.6406 Q433.1563,325.9688 434.25,326.375 L435.3125,326.7813 Q436.7969,327.3281 437.5,328.2344 Q438.2188,329.1406 438.2188,330.5156 Q438.2188,332.3906 437.1094,333.3125 Q436,334.2344 433.75,334.2344 Q432.8281,334.2344 431.9063,334.0156 Q430.9844,333.7969 430.125,333.375 L430.125,330.8438 Q431.0938,331.5313 432.0156,331.875 Q432.9375,332.2188 433.8281,332.2188 Q434.7344,332.2188 435.2344,331.8125 Q435.7344,331.3906 435.7344,330.6563 Q435.7344,330.0938 435.3906,329.6875 Q435.0625,329.2656 434.4375,329.0156 L433.2344,328.5625 Z " fill="#000000"/><text fill="#000000" font-family="sans-serif" font-size="14" lengthAdjust="spacing" textLength="76" x="454.25" y="332.8467">Translation</text><line style="stroke:#181818;stroke-width:0.5;" x1="390.5" x2="561.5" y1="344" y2="344"/><ellipse cx="400.5" cy="357.6484" fill="none" rx="3" ry="3" style="stroke:#038048;stroke-width:1.0;"/><text fill="#000000" font-family="sans-serif" font-size="14" lengthAdjust="spacing" textLength="99" x="409.5" y="360.9951">Content string</text><ellipse cx="400.5" cy="373.9453" fill="none" rx="3" ry="3" style="stroke:#038048;stroke-width:1.0;"/><text fill="#000000" font-family="sans-serif" font-size="14" lengthAdjust="spacing" textLength="147" x="409.5" y="377.292">Language *Language</text><ellipse cx="400.5" cy="390.2422" fill="none" rx="3" ry="3" style="stroke:#038048;stroke-width:1.0;"/><text fill="#000000" font-family="sans-serif" font-size="14" lengthAdjust="spacing" textLength="73" x="409.5" y="393.5889">Version int</text><ellipse cx="400.5" cy="406.5391" fill="none" rx="3" ry="3" style="stroke:#038048;stroke-width:1.0;"/><text fill="#000000" font-family="sans-serif" font-size="14" lengthAdjust="spacing" textLength="75" x="409.5" y="409.8857">Active bool</text><ellipse cx="400.5" cy="422.8359" fill="none" rx="3" ry="3" style="stroke:#038048;stroke-width:1.0;"/><text fill="#000000" font-family="sans-serif" font-size="14" lengthAdjust="spacing" textLength="89" x="409.5" y="426.1826">Author *User</text><ellipse cx="400.5" cy="439.1328" fill="none" rx="3" ry="3" style="stroke:#038048;stroke-width:1.0;"/><text fill="#000000" font-family="sans-serif" font-size="14" lengthAdjust="spacing" textLength="105" x="409.5" y="442.4795">Date time.Time</text><ellipse cx="400.5" cy="455.4297" fill="none" rx="3" ry="3" style="stroke:#038048;stroke-width:1.0;"/><text fill="#000000" font-family="sans-serif" font-size="14" lengthAdjust="spacing" textLength="91" x="409.5" y="458.7764">Stage *Stage</text><line style="stroke:#181818;stroke-width:0.5;" x1="390.5" x2="561.5" y1="466.0781" y2="466.0781"/></g><!--class domain.User--><g id="elem_domain.User"><rect codeLine="53" fill="#F1F1F1" height="145.7813" id="domain.User" rx="2.5" ry="2.5" style="stroke:#181818;stroke-width:0.5;" width="164" x="297" y="707"/><ellipse cx="358.75" cy="723" fill="#7FFFD4" rx="11" ry="11" style="stroke:#181818;stroke-width:1.0;"/><path d="M358.2344,723.5625 Q356.375,722.8594 355.7188,722.0938 Q355.0781,721.3125 355.0781,720 Q355.0781,718.3125 356.1563,717.3438 Q357.2344,716.375 359.1094,716.375 Q359.9688,716.375 360.8125,716.5781 Q361.6719,716.7656 362.5156,717.1563 L362.5156,719.5469 Q361.7344,718.9844 360.9063,718.7031 Q360.0938,718.4063 359.2969,718.4063 Q358.4219,718.4063 357.9375,718.7656 Q357.4688,719.125 357.4688,719.7813 Q357.4688,720.2969 357.8125,720.6406 Q358.1563,720.9688 359.25,721.375 L360.3125,721.7813 Q361.7969,722.3281 362.5,723.2344 Q363.2188,724.1406 363.2188,725.5156 Q363.2188,727.3906 362.1094,728.3125 Q361,729.2344 358.75,729.2344 Q357.8281,729.2344 356.9063,729.0156 Q355.9844,728.7969 355.125,728.375 L355.125,725.8438 Q356.0938,726.5313 357.0156,726.875 Q357.9375,727.2188 358.8281,727.2188 Q359.7344,727.2188 360.2344,726.8125 Q360.7344,726.3906 360.7344,725.6563 Q360.7344,725.0938 360.3906,724.6875 Q360.0625,724.2656 359.4375,724.0156 L358.2344,723.5625 Z " fill="#000000"/><text fill="#000000" font-family="sans-serif" font-size="14" lengthAdjust="spacing" textLength="32" x="379.25" y="727.8467">User</text><line style="stroke:#181818;stroke-width:0.5;" x1="298" x2="460" y1="739" y2="739"/><ellipse cx="308" cy="752.6484" fill="none" rx="3" ry="3" style="stroke:#038048;stroke-width:1.0;"/><text fill="#000000" font-family="sans-serif" font-size="14" lengthAdjust="spacing" textLength="138" x="317" y="755.9951">ID primitive.ObjectID</text><ellipse cx="308" cy="768.9453" fill="none" rx="3" ry="3" style="stroke:#038048;stroke-width:1.0;"/><text fill="#000000" font-family="sans-serif" font-size="14" lengthAdjust="spacing" textLength="79" x="317" y="772.292">Email string</text><ellipse cx="308" cy="785.2422" fill="none" rx="3" ry="3" style="stroke:#038048;stroke-width:1.0;"/><text fill="#000000" font-family="sans-serif" font-size="14" lengthAdjust="spacing" textLength="110" x="317" y="788.5889">Password string</text><ellipse cx="308" cy="801.5391" fill="none" rx="3" ry="3" style="stroke:#038048;stroke-width:1.0;"/><text fill="#000000" font-family="sans-serif" font-size="14" lengthAdjust="spacing" textLength="77" x="317" y="804.8857">Admin bool</text><ellipse cx="308" cy="817.8359" fill="none" rx="3" ry="3" style="stroke:#038048;stroke-width:1.0;"/><text fill="#000000" font-family="sans-serif" font-size="14" lengthAdjust="spacing" textLength="75" x="317" y="821.1826">Active bool</text><line style="stroke:#181818;stroke-width:0.5;" x1="298" x2="460" y1="828.4844" y2="828.4844"/><ellipse cx="308" cy="842.1328" fill="#84BE84" rx="3" ry="3" style="stroke:#038048;stroke-width:1.0;"/><text fill="#000000" font-family="sans-serif" font-size="14" lengthAdjust="spacing" textLength="112" x="317" y="845.4795">ClearPassword()</text></g><!--reverse link domain.BaseString to domain.Group--><g id="link_domain.BaseString_domain.Group"><path codeLine="66" d="M265.19,263.26 C252.71,282.58 240.09,302.1 228.58,319.91 " fill="none" id="domain.BaseString-backto-domain.Group" style="stroke:#181818;stroke-width:1.0;"/><polygon fill="none" points="272.31,252.25,265.6931,255.1166,265.7943,262.327,272.4111,259.4604,272.31,252.25" style="stroke:#181818;stroke-width:1.0;"/></g><!--reverse link domain.BaseString to domain.Language--><g id="link_domain.BaseString_domain.Language"><path codeLine="67" d="M329.33,265.42 C321.45,352.46 311.09,466.98 305.02,533.99 " fill="none" id="domain.BaseString-backto-domain.Language" style="stroke:#181818;stroke-width:1.0;"/><polygon fill="none" points="330.52,252.25,325.9893,257.8601,329.4252,264.2,333.9559,258.5899,330.52,252.25" style="stroke:#181818;stroke-width:1.0;"/></g><!--reverse link domain.BaseString to domain.Translation--><g id="link_domain.BaseString_domain.Translation"><path codeLine="68" d="M404.8,264.01 C413.81,280.2 422.9,296.53 431.42,311.85 " fill="none" id="domain.BaseString-backto-domain.Translation" style="stroke:#181818;stroke-width:1.0;"/><polygon fill="none" points="398.27,252.25,397.6964,259.4383,404.1111,262.7324,404.6847,255.5442,398.27,252.25" style="stroke:#181818;stroke-width:1.0;"/></g><!--reverse link domain.BaseString to domain.User--><g id="link_domain.BaseString_domain.User"><path codeLine="69" d="M537.27,261.04 C553.55,276.47 568.24,293.46 580,312 C633.55,396.4 607.97,434.37 616,534 C620.03,584.06 641.45,603.7 616,647 C582.77,703.54 515.57,737.63 461.18,756.96 " fill="none" id="domain.BaseString-backto-domain.User" style="stroke:#181818;stroke-width:1.0;"/><polygon fill="none" points="527.51,252.14,529.247,259.1388,536.3755,260.2272,534.6385,253.2284,527.51,252.14" style="stroke:#181818;stroke-width:1.0;"/></g><!--reverse link domain.Group to domain.Permission--><g id="link_domain.Group_domain.Permission"><path codeLine="70" d="M140.33,477.99 C127.94,502.96 114.95,529.15 104.66,549.87 " fill="none" id="domain.Group-backto-domain.Permission" style="stroke:#181818;stroke-width:1.0;"/><polygon fill="none" points="146.16,466.24,139.9078,469.8331,140.8198,476.9863,147.072,473.3932,146.16,466.24" style="stroke:#181818;stroke-width:1.0;"/></g><!--reverse link domain.Group to domain.User--><g id="link_domain.Group_domain.User"><path codeLine="71" d="M170.82,479.26 C168.09,530.85 172.07,596.25 200,647 C221.69,686.41 260.71,717.28 296.8,739.23 " fill="none" id="domain.Group-backto-domain.User" style="stroke:#181818;stroke-width:1.0;"/><polygon fill="none" points="171.68,466.12,167.2994,471.848,170.9019,478.0947,175.2825,472.3667,171.68,466.12" style="stroke:#181818;stroke-width:1.0;"/></g><!--reverse link domain.Permission to domain.User--><g id="link_domain.Permission_domain.User"><path codeLine="72" d="M157.32,637.62 C199.58,664.57 253.05,698.67 296.89,726.63 " fill="none" id="domain.Permission-backto-domain.User" style="stroke:#181818;stroke-width:1.0;"/><polygon fill="none" points="146.27,630.58,149.1789,637.1784,156.3885,637.031,153.4796,630.4327,146.27,630.58" style="stroke:#181818;stroke-width:1.0;"/></g><!--reverse link domain.Translation to domain.Language--><g id="link_domain.Translation_domain.Language"><path codeLine="73" d="M394.97,484.01 C379.71,500.96 364.17,518.22 350.2,533.74 " fill="none" id="domain.Translation-backto-domain.Language" style="stroke:#181818;stroke-width:1.0;"/><polygon fill="none" points="403.91,474.08,396.9222,475.8605,395.8781,482.9956,402.8659,481.2151,403.91,474.08" style="stroke:#181818;stroke-width:1.0;"/></g><!--reverse link domain.Translation to domain.Stage--><g id="link_domain.Translation_domain.Stage"><path codeLine="74" d="M486.96,487.12 C489.18,506.06 491.44,525.23 493.39,541.77 " fill="none" id="domain.Translation-backto-domain.Stage" style="stroke:#181818;stroke-width:1.0;"/><polygon fill="none" points="485.42,474.08,482.146,480.505,486.8175,485.9983,490.0915,479.5733,485.42,474.08" style="stroke:#181818;stroke-width:1.0;"/></g><!--reverse link domain.Translation to domain.User--><g id="link_domain.Translation_domain.User"><path codeLine="75" d="M570.75,483.79 C582.28,499.36 592.33,516.29 599,534 C616.71,581 623.74,603.3 599,647 C569.59,698.94 510.69,732.67 461.24,753.03 " fill="none" id="domain.Translation-backto-domain.User" style="stroke:#181818;stroke-width:1.0;"/><polygon fill="none" points="562.55,473.22,563.0686,480.4124,569.9072,482.7,569.3886,475.5076,562.55,473.22" style="stroke:#181818;stroke-width:1.0;"/></g><!--SRC=[jLJRJi9047tlLqnu0WI-W91mKKD2X0JK1-F3qewufjt5tQt46FxTxPRQWGLAGkn3BpEditFEN0HBKAzPY139X741Fm7OAuoPrZ1W6kT6SR62RXVgyrR_CsK9imPiGA-tmsRN3On7i5OyuOP_OMUw_C3GZ4V4FvUf2d72n2fbAuHcyKP3H2WCV-EeGBjJYM-M_UHPxvLCrz1q3sBkf-PTAcW-QbJK76R9mLBAc5WNYWaTCyEbqF3oIZu3WhhZ8YAk2TFc2PMshuFlWaezBjWLbeQVyYM1-YAQ6sQE16pPWDO1rasYk_1RKhXSbwjhzc2RmsSmtGZqnPsXIhZMEnNBhqhzP-aovc5kzOZyzSlLNCPQ3cLqXCu8TQZuEYk6xwGfUycL9AlJozJoD1ioyQouEHNV5Vc_gdYM6MdGwlE7KXWxkFuHPuTzr_J0XQbiaHFpFCecmV04Emjxexl62TTq3v-SAyNLgjxQRHaVsrDQRwIAZWWU9NQz7Z8xhC9EqXYPAaBL6r2Gs0P1KCiNTQTSpZMGxJOKTZVxjKfOKP9g96c6Qd0cRedASza3b4Dp5hOVX_nq1aKJhU1w4kfwvW9SVl8l]--></g></svg>