<?xml version="1.0" encoding="UTF-8" standalone="no"?><svg xmlns="http://www.w3.org/2000/svg" xmlns:xlink="http://www.w3.org/1999/xlink" contentScriptType="application/ecmascript" contentStyleType="text/css" height="914px" preserveAspectRatio="none" style="width:483px;height:914px;" version="1.1" viewBox="0 0 483 914" width="483px" zoomAndPan="magnify"><defs><filter height="300%" id="f1gbg73bbo4n3m" width="300%" x="-1" y="-1"><feGaussianBlur result="blurOut" stdDeviation="2.0"/><feColorMatrix in="blurOut" result="blurOut2" type="matrix" values="0 0 0 0 0 0 0 0 0 0 0 0 0 0 0 0 0 0 .4 0"/><feOffset dx="4.0" dy="4.0" in="blurOut2" result="blurOut3"/><feBlend in="SourceGraphic" in2="blurOut3" mode="normal"/></filter></defs><g><!--MD5=[27f772719433d509ddbc20ff768eba08]
cluster domain--><polygon fill="#FFFFFF" filter="url(#f1gbg73bbo4n3m)" points="14,16,77,16,84,38.2969,461,38.2969,461,902,14,902,14,16" style="stroke: #000000; stroke-width: 1.5;"/><line style="stroke: #000000; stroke-width: 1.5;" x1="14" x2="84" y1="38.2969" y2="38.2969"/><text fill="#000000" font-family="sans-serif" font-size="14" font-weight="bold" lengthAdjust="spacingAndGlyphs" textLength="57" x="18" y="30.9951">domain</text><!--MD5=[c2ad25ceabb2d4c1646fab0eac5e3291]
class domain.BaseString--><rect fill="#FEFECE" filter="url(#f1gbg73bbo4n3m)" height="124.8281" id="domain.BaseString" style="stroke: #A80036; stroke-width: 1.5;" width="180" x="22" y="266"/><ellipse cx="73.75" cy="282" fill="#7FFFD4" rx="11" ry="11" style="stroke: #A80036; stroke-width: 1.0;"/><path d="M73.2344,282.5625 Q71.375,281.8594 70.7188,281.0938 Q70.0781,280.3125 70.0781,279 Q70.0781,277.3125 71.1563,276.3438 Q72.2344,275.375 74.1094,275.375 Q74.9688,275.375 75.8125,275.5781 Q76.6719,275.7656 77.5156,276.1563 L77.5156,278.5469 Q76.7344,277.9844 75.9063,277.7031 Q75.0938,277.4063 74.2969,277.4063 Q73.4219,277.4063 72.9375,277.7656 Q72.4688,278.125 72.4688,278.7813 Q72.4688,279.2969 72.8125,279.6406 Q73.1563,279.9688 74.25,280.375 L75.3125,280.7813 Q76.7969,281.3281 77.5,282.2344 Q78.2188,283.1406 78.2188,284.5156 Q78.2188,286.3906 77.1094,287.3125 Q76,288.2344 73.75,288.2344 Q72.8281,288.2344 71.9063,288.0156 Q70.9844,287.7969 70.125,287.375 L70.125,284.8438 Q71.0938,285.5313 72.0156,285.875 Q72.9375,286.2188 73.8281,286.2188 Q74.7344,286.2188 75.2344,285.8125 Q75.7344,285.3906 75.7344,284.6563 Q75.7344,284.0938 75.3906,283.6875 Q75.0625,283.2656 74.4375,283.0156 L73.2344,282.5625 Z "/><text fill="#000000" font-family="sans-serif" font-size="12" lengthAdjust="spacingAndGlyphs" textLength="68" x="94.25" y="286.1543">BaseString</text><line style="stroke: #A80036; stroke-width: 1.5;" x1="23" x2="201" y1="298" y2="298"/><ellipse cx="33" cy="309" fill="none" rx="3" ry="3" style="stroke: #038048; stroke-width: 1.0;"/><text fill="#000000" font-family="sans-serif" font-size="11" lengthAdjust="spacingAndGlyphs" textLength="115" x="42" y="312.2104">ID primitive.ObjectID</text><ellipse cx="33" cy="321.8047" fill="none" rx="3" ry="3" style="stroke: #038048; stroke-width: 1.0;"/><text fill="#000000" font-family="sans-serif" font-size="11" lengthAdjust="spacingAndGlyphs" textLength="154" x="42" y="325.0151">SourceLanguage Language</text><ellipse cx="33" cy="334.6094" fill="none" rx="3" ry="3" style="stroke: #038048; stroke-width: 1.0;"/><text fill="#000000" font-family="sans-serif" font-size="11" lengthAdjust="spacingAndGlyphs" textLength="101" x="42" y="337.8198">Description string</text><ellipse cx="33" cy="347.4141" fill="none" rx="3" ry="3" style="stroke: #038048; stroke-width: 1.0;"/><text fill="#000000" font-family="sans-serif" font-size="11" lengthAdjust="spacingAndGlyphs" textLength="74" x="42" y="350.6245">Group Group</text><ellipse cx="33" cy="360.2188" fill="none" rx="3" ry="3" style="stroke: #038048; stroke-width: 1.0;"/><text fill="#000000" font-family="sans-serif" font-size="11" lengthAdjust="spacingAndGlyphs" textLength="68" x="42" y="363.4292">Author User</text><ellipse cx="33" cy="373.0234" fill="none" rx="3" ry="3" style="stroke: #038048; stroke-width: 1.0;"/><text fill="#000000" font-family="sans-serif" font-size="11" lengthAdjust="spacingAndGlyphs" textLength="61" x="42" y="376.2339">Active bool</text><line style="stroke: #A80036; stroke-width: 1.5;" x1="23" x2="201" y1="382.8281" y2="382.8281"/><!--MD5=[863f1825d6635ffa2f584082db8395ae]
class domain.Group--><rect fill="#FEFECE" filter="url(#f1gbg73bbo4n3m)" height="112.0234" id="domain.Group" style="stroke: #A80036; stroke-width: 1.5;" width="173" x="59.5" y="451"/><ellipse cx="122.75" cy="467" fill="#7FFFD4" rx="11" ry="11" style="stroke: #A80036; stroke-width: 1.0;"/><path d="M122.2344,467.5625 Q120.375,466.8594 119.7188,466.0938 Q119.0781,465.3125 119.0781,464 Q119.0781,462.3125 120.1563,461.3438 Q121.2344,460.375 123.1094,460.375 Q123.9688,460.375 124.8125,460.5781 Q125.6719,460.7656 126.5156,461.1563 L126.5156,463.5469 Q125.7344,462.9844 124.9063,462.7031 Q124.0938,462.4063 123.2969,462.4063 Q122.4219,462.4063 121.9375,462.7656 Q121.4688,463.125 121.4688,463.7813 Q121.4688,464.2969 121.8125,464.6406 Q122.1563,464.9688 123.25,465.375 L124.3125,465.7813 Q125.7969,466.3281 126.5,467.2344 Q127.2188,468.1406 127.2188,469.5156 Q127.2188,471.3906 126.1094,472.3125 Q125,473.2344 122.75,473.2344 Q121.8281,473.2344 120.9063,473.0156 Q119.9844,472.7969 119.125,472.375 L119.125,469.8438 Q120.0938,470.5313 121.0156,470.875 Q121.9375,471.2188 122.8281,471.2188 Q123.7344,471.2188 124.2344,470.8125 Q124.7344,470.3906 124.7344,469.6563 Q124.7344,469.0938 124.3906,468.6875 Q124.0625,468.2656 123.4375,468.0156 L122.2344,467.5625 Z "/><text fill="#000000" font-family="sans-serif" font-size="12" lengthAdjust="spacingAndGlyphs" textLength="38" x="143.25" y="471.1543">Group</text><line style="stroke: #A80036; stroke-width: 1.5;" x1="60.5" x2="231.5" y1="483" y2="483"/><ellipse cx="70.5" cy="494" fill="none" rx="3" ry="3" style="stroke: #038048; stroke-width: 1.0;"/><text fill="#000000" font-family="sans-serif" font-size="11" lengthAdjust="spacingAndGlyphs" textLength="115" x="79.5" y="497.2104">ID primitive.ObjectID</text><ellipse cx="70.5" cy="506.8047" fill="none" rx="3" ry="3" style="stroke: #038048; stroke-width: 1.0;"/><text fill="#000000" font-family="sans-serif" font-size="11" lengthAdjust="spacingAndGlyphs" textLength="70" x="79.5" y="510.0151">Name string</text><ellipse cx="70.5" cy="519.6094" fill="none" rx="3" ry="3" style="stroke: #038048; stroke-width: 1.0;"/><text fill="#000000" font-family="sans-serif" font-size="11" lengthAdjust="spacingAndGlyphs" textLength="68" x="79.5" y="522.8198">Owner User</text><ellipse cx="70.5" cy="532.4141" fill="none" rx="3" ry="3" style="stroke: #038048; stroke-width: 1.0;"/><text fill="#000000" font-family="sans-serif" font-size="11" lengthAdjust="spacingAndGlyphs" textLength="147" x="79.5" y="535.6245">Permissions []Permission</text><ellipse cx="70.5" cy="545.2188" fill="none" rx="3" ry="3" style="stroke: #038048; stroke-width: 1.0;"/><text fill="#000000" font-family="sans-serif" font-size="11" lengthAdjust="spacingAndGlyphs" textLength="61" x="79.5" y="548.4292">Active bool</text><line style="stroke: #A80036; stroke-width: 1.5;" x1="60.5" x2="231.5" y1="555.0234" y2="555.0234"/><!--MD5=[c17524741a03264fd90aa714fe1c3562]
class domain.Language--><rect fill="#FEFECE" filter="url(#f1gbg73bbo4n3m)" height="99.2188" id="domain.Language" style="stroke: #A80036; stroke-width: 1.5;" width="141" x="267.5" y="457.5"/><ellipse cx="303.65" cy="473.5" fill="#7FFFD4" rx="11" ry="11" style="stroke: #A80036; stroke-width: 1.0;"/><path d="M303.1344,474.0625 Q301.275,473.3594 300.6188,472.5938 Q299.9781,471.8125 299.9781,470.5 Q299.9781,468.8125 301.0563,467.8438 Q302.1344,466.875 304.0094,466.875 Q304.8688,466.875 305.7125,467.0781 Q306.5719,467.2656 307.4156,467.6563 L307.4156,470.0469 Q306.6344,469.4844 305.8063,469.2031 Q304.9938,468.9063 304.1969,468.9063 Q303.3219,468.9063 302.8375,469.2656 Q302.3688,469.625 302.3688,470.2813 Q302.3688,470.7969 302.7125,471.1406 Q303.0563,471.4688 304.15,471.875 L305.2125,472.2813 Q306.6969,472.8281 307.4,473.7344 Q308.1188,474.6406 308.1188,476.0156 Q308.1188,477.8906 307.0094,478.8125 Q305.9,479.7344 303.65,479.7344 Q302.7281,479.7344 301.8063,479.5156 Q300.8844,479.2969 300.025,478.875 L300.025,476.3438 Q300.9938,477.0313 301.9156,477.375 Q302.8375,477.7188 303.7281,477.7188 Q304.6344,477.7188 305.1344,477.3125 Q305.6344,476.8906 305.6344,476.1563 Q305.6344,475.5938 305.2906,475.1875 Q304.9625,474.7656 304.3375,474.5156 L303.1344,474.0625 Z "/><text fill="#000000" font-family="sans-serif" font-size="12" lengthAdjust="spacingAndGlyphs" textLength="62" x="322.35" y="477.6543">Language</text><line style="stroke: #A80036; stroke-width: 1.5;" x1="268.5" x2="407.5" y1="489.5" y2="489.5"/><ellipse cx="278.5" cy="500.5" fill="none" rx="3" ry="3" style="stroke: #038048; stroke-width: 1.0;"/><text fill="#000000" font-family="sans-serif" font-size="11" lengthAdjust="spacingAndGlyphs" textLength="115" x="287.5" y="503.7104">ID primitive.ObjectID</text><ellipse cx="278.5" cy="513.3047" fill="none" rx="3" ry="3" style="stroke: #038048; stroke-width: 1.0;"/><text fill="#000000" font-family="sans-serif" font-size="11" lengthAdjust="spacingAndGlyphs" textLength="83" x="287.5" y="516.5151">IsoCode string</text><ellipse cx="278.5" cy="526.1094" fill="none" rx="3" ry="3" style="stroke: #038048; stroke-width: 1.0;"/><text fill="#000000" font-family="sans-serif" font-size="11" lengthAdjust="spacingAndGlyphs" textLength="101" x="287.5" y="529.3198">Description string</text><ellipse cx="278.5" cy="538.9141" fill="none" rx="3" ry="3" style="stroke: #038048; stroke-width: 1.0;"/><text fill="#000000" font-family="sans-serif" font-size="11" lengthAdjust="spacingAndGlyphs" textLength="61" x="287.5" y="542.1245">Active bool</text><line style="stroke: #A80036; stroke-width: 1.5;" x1="268.5" x2="407.5" y1="548.7188" y2="548.7188"/><!--MD5=[31e87857781726aef1a9645d85eb2642]
class domain.Permission--><rect fill="#FEFECE" filter="url(#f1gbg73bbo4n3m)" height="86.4141" id="domain.Permission" style="stroke: #A80036; stroke-width: 1.5;" width="141" x="67.5" y="623"/><ellipse cx="100.95" cy="639" fill="#7FFFD4" rx="11" ry="11" style="stroke: #A80036; stroke-width: 1.0;"/><path d="M100.4344,639.5625 Q98.575,638.8594 97.9188,638.0938 Q97.2781,637.3125 97.2781,636 Q97.2781,634.3125 98.3563,633.3438 Q99.4344,632.375 101.3094,632.375 Q102.1688,632.375 103.0125,632.5781 Q103.8719,632.7656 104.7156,633.1563 L104.7156,635.5469 Q103.9344,634.9844 103.1063,634.7031 Q102.2938,634.4063 101.4969,634.4063 Q100.6219,634.4063 100.1375,634.7656 Q99.6688,635.125 99.6688,635.7813 Q99.6688,636.2969 100.0125,636.6406 Q100.3563,636.9688 101.45,637.375 L102.5125,637.7813 Q103.9969,638.3281 104.7,639.2344 Q105.4188,640.1406 105.4188,641.5156 Q105.4188,643.3906 104.3094,644.3125 Q103.2,645.2344 100.95,645.2344 Q100.0281,645.2344 99.1063,645.0156 Q98.1844,644.7969 97.325,644.375 L97.325,641.8438 Q98.2938,642.5313 99.2156,642.875 Q100.1375,643.2188 101.0281,643.2188 Q101.9344,643.2188 102.4344,642.8125 Q102.9344,642.3906 102.9344,641.6563 Q102.9344,641.0938 102.5906,640.6875 Q102.2625,640.2656 101.6375,640.0156 L100.4344,639.5625 Z "/><text fill="#000000" font-family="sans-serif" font-size="12" lengthAdjust="spacingAndGlyphs" textLength="68" x="119.05" y="643.1543">Permission</text><line style="stroke: #A80036; stroke-width: 1.5;" x1="68.5" x2="207.5" y1="655" y2="655"/><ellipse cx="78.5" cy="666" fill="none" rx="3" ry="3" style="stroke: #038048; stroke-width: 1.0;"/><text fill="#000000" font-family="sans-serif" font-size="11" lengthAdjust="spacingAndGlyphs" textLength="115" x="87.5" y="669.2104">ID primitive.ObjectID</text><ellipse cx="78.5" cy="678.8047" fill="none" rx="3" ry="3" style="stroke: #038048; stroke-width: 1.0;"/><text fill="#000000" font-family="sans-serif" font-size="11" lengthAdjust="spacingAndGlyphs" textLength="58" x="87.5" y="682.0151">User User</text><ellipse cx="78.5" cy="691.6094" fill="none" rx="3" ry="3" style="stroke: #038048; stroke-width: 1.0;"/><text fill="#000000" font-family="sans-serif" font-size="11" lengthAdjust="spacingAndGlyphs" textLength="113" x="87.5" y="694.8198">CanWriteGroup bool</text><line style="stroke: #A80036; stroke-width: 1.5;" x1="68.5" x2="207.5" y1="701.4141" y2="701.4141"/><!--MD5=[9a7789b2fe37cd0457e308260b86b1c2]
class domain.Stage--><rect fill="#FEFECE" filter="url(#f1gbg73bbo4n3m)" height="86.4141" id="domain.Stage" style="stroke: #A80036; stroke-width: 1.5;" width="141" x="274.5" y="285.5"/><ellipse cx="322.25" cy="301.5" fill="#7FFFD4" rx="11" ry="11" style="stroke: #A80036; stroke-width: 1.0;"/><path d="M321.7344,302.0625 Q319.875,301.3594 319.2188,300.5938 Q318.5781,299.8125 318.5781,298.5 Q318.5781,296.8125 319.6563,295.8438 Q320.7344,294.875 322.6094,294.875 Q323.4688,294.875 324.3125,295.0781 Q325.1719,295.2656 326.0156,295.6563 L326.0156,298.0469 Q325.2344,297.4844 324.4063,297.2031 Q323.5938,296.9063 322.7969,296.9063 Q321.9219,296.9063 321.4375,297.2656 Q320.9688,297.625 320.9688,298.2813 Q320.9688,298.7969 321.3125,299.1406 Q321.6563,299.4688 322.75,299.875 L323.8125,300.2813 Q325.2969,300.8281 326,301.7344 Q326.7188,302.6406 326.7188,304.0156 Q326.7188,305.8906 325.6094,306.8125 Q324.5,307.7344 322.25,307.7344 Q321.3281,307.7344 320.4063,307.5156 Q319.4844,307.2969 318.625,306.875 L318.625,304.3438 Q319.5938,305.0313 320.5156,305.375 Q321.4375,305.7188 322.3281,305.7188 Q323.2344,305.7188 323.7344,305.3125 Q324.2344,304.8906 324.2344,304.1563 Q324.2344,303.5938 323.8906,303.1875 Q323.5625,302.7656 322.9375,302.5156 L321.7344,302.0625 Z "/><text fill="#000000" font-family="sans-serif" font-size="12" lengthAdjust="spacingAndGlyphs" textLength="37" x="342.75" y="305.6543">Stage</text><line style="stroke: #A80036; stroke-width: 1.5;" x1="275.5" x2="414.5" y1="317.5" y2="317.5"/><ellipse cx="285.5" cy="328.5" fill="none" rx="3" ry="3" style="stroke: #038048; stroke-width: 1.0;"/><text fill="#000000" font-family="sans-serif" font-size="11" lengthAdjust="spacingAndGlyphs" textLength="115" x="294.5" y="331.7104">ID primitive.ObjectID</text><ellipse cx="285.5" cy="341.3047" fill="none" rx="3" ry="3" style="stroke: #038048; stroke-width: 1.0;"/><text fill="#000000" font-family="sans-serif" font-size="11" lengthAdjust="spacingAndGlyphs" textLength="70" x="294.5" y="344.5151">Name string</text><ellipse cx="285.5" cy="354.1094" fill="none" rx="3" ry="3" style="stroke: #038048; stroke-width: 1.0;"/><text fill="#000000" font-family="sans-serif" font-size="11" lengthAdjust="spacingAndGlyphs" textLength="61" x="294.5" y="357.3198">Active bool</text><line style="stroke: #A80036; stroke-width: 1.5;" x1="275.5" x2="414.5" y1="363.9141" y2="363.9141"/><!--MD5=[0134179867525364293e41d4802e5b11]
class domain.Translation--><rect fill="#FEFECE" filter="url(#f1gbg73bbo4n3m)" height="163.2422" id="domain.Translation" style="stroke: #A80036; stroke-width: 1.5;" width="156" x="213" y="43"/><ellipse cx="252.3" cy="59" fill="#7FFFD4" rx="11" ry="11" style="stroke: #A80036; stroke-width: 1.0;"/><path d="M251.7844,59.5625 Q249.925,58.8594 249.2688,58.0938 Q248.6281,57.3125 248.6281,56 Q248.6281,54.3125 249.7063,53.3438 Q250.7844,52.375 252.6594,52.375 Q253.5188,52.375 254.3625,52.5781 Q255.2219,52.7656 256.0656,53.1563 L256.0656,55.5469 Q255.2844,54.9844 254.4563,54.7031 Q253.6438,54.4063 252.8469,54.4063 Q251.9719,54.4063 251.4875,54.7656 Q251.0188,55.125 251.0188,55.7813 Q251.0188,56.2969 251.3625,56.6406 Q251.7063,56.9688 252.8,57.375 L253.8625,57.7813 Q255.3469,58.3281 256.05,59.2344 Q256.7688,60.1406 256.7688,61.5156 Q256.7688,63.3906 255.6594,64.3125 Q254.55,65.2344 252.3,65.2344 Q251.3781,65.2344 250.4563,65.0156 Q249.5344,64.7969 248.675,64.375 L248.675,61.8438 Q249.6438,62.5313 250.5656,62.875 Q251.4875,63.2188 252.3781,63.2188 Q253.2844,63.2188 253.7844,62.8125 Q254.2844,62.3906 254.2844,61.6563 Q254.2844,61.0938 253.9406,60.6875 Q253.6125,60.2656 252.9875,60.0156 L251.7844,59.5625 Z "/><text fill="#000000" font-family="sans-serif" font-size="12" lengthAdjust="spacingAndGlyphs" textLength="70" x="271.7" y="63.1543">Translation</text><line style="stroke: #A80036; stroke-width: 1.5;" x1="214" x2="368" y1="75" y2="75"/><ellipse cx="224" cy="86" fill="none" rx="3" ry="3" style="stroke: #038048; stroke-width: 1.0;"/><text fill="#000000" font-family="sans-serif" font-size="11" lengthAdjust="spacingAndGlyphs" textLength="115" x="233" y="89.2104">ID primitive.ObjectID</text><ellipse cx="224" cy="98.8047" fill="none" rx="3" ry="3" style="stroke: #038048; stroke-width: 1.0;"/><text fill="#000000" font-family="sans-serif" font-size="11" lengthAdjust="spacingAndGlyphs" textLength="81" x="233" y="102.0151">Content string</text><ellipse cx="224" cy="111.6094" fill="none" rx="3" ry="3" style="stroke: #038048; stroke-width: 1.0;"/><text fill="#000000" font-family="sans-serif" font-size="11" lengthAdjust="spacingAndGlyphs" textLength="114" x="233" y="114.8198">Language Language</text><ellipse cx="224" cy="124.4141" fill="none" rx="3" ry="3" style="stroke: #038048; stroke-width: 1.0;"/><text fill="#000000" font-family="sans-serif" font-size="11" lengthAdjust="spacingAndGlyphs" textLength="61" x="233" y="127.6245">Version int</text><ellipse cx="224" cy="137.2188" fill="none" rx="3" ry="3" style="stroke: #038048; stroke-width: 1.0;"/><text fill="#000000" font-family="sans-serif" font-size="11" lengthAdjust="spacingAndGlyphs" textLength="61" x="233" y="140.4292">Active bool</text><ellipse cx="224" cy="150.0234" fill="none" rx="3" ry="3" style="stroke: #038048; stroke-width: 1.0;"/><text fill="#000000" font-family="sans-serif" font-size="11" lengthAdjust="spacingAndGlyphs" textLength="130" x="233" y="153.2339">BaseString BaseString</text><ellipse cx="224" cy="162.8281" fill="none" rx="3" ry="3" style="stroke: #038048; stroke-width: 1.0;"/><text fill="#000000" font-family="sans-serif" font-size="11" lengthAdjust="spacingAndGlyphs" textLength="68" x="233" y="166.0386">Author User</text><ellipse cx="224" cy="175.6328" fill="none" rx="3" ry="3" style="stroke: #038048; stroke-width: 1.0;"/><text fill="#000000" font-family="sans-serif" font-size="11" lengthAdjust="spacingAndGlyphs" textLength="87" x="233" y="178.8433">Date time.Time</text><ellipse cx="224" cy="188.4375" fill="none" rx="3" ry="3" style="stroke: #038048; stroke-width: 1.0;"/><text fill="#000000" font-family="sans-serif" font-size="11" lengthAdjust="spacingAndGlyphs" textLength="70" x="233" y="191.6479">Stage Stage</text><line style="stroke: #A80036; stroke-width: 1.5;" x1="214" x2="368" y1="198.2422" y2="198.2422"/><!--MD5=[8650bc9010346a63b380831969c88903]
class domain.User--><rect fill="#FEFECE" filter="url(#f1gbg73bbo4n3m)" height="124.8281" id="domain.User" style="stroke: #A80036; stroke-width: 1.5;" width="141" x="120.5" y="769"/><ellipse cx="172.25" cy="785" fill="#7FFFD4" rx="11" ry="11" style="stroke: #A80036; stroke-width: 1.0;"/><path d="M171.7344,785.5625 Q169.875,784.8594 169.2188,784.0938 Q168.5781,783.3125 168.5781,782 Q168.5781,780.3125 169.6563,779.3438 Q170.7344,778.375 172.6094,778.375 Q173.4688,778.375 174.3125,778.5781 Q175.1719,778.7656 176.0156,779.1563 L176.0156,781.5469 Q175.2344,780.9844 174.4063,780.7031 Q173.5938,780.4063 172.7969,780.4063 Q171.9219,780.4063 171.4375,780.7656 Q170.9688,781.125 170.9688,781.7813 Q170.9688,782.2969 171.3125,782.6406 Q171.6563,782.9688 172.75,783.375 L173.8125,783.7813 Q175.2969,784.3281 176,785.2344 Q176.7188,786.1406 176.7188,787.5156 Q176.7188,789.3906 175.6094,790.3125 Q174.5,791.2344 172.25,791.2344 Q171.3281,791.2344 170.4063,791.0156 Q169.4844,790.7969 168.625,790.375 L168.625,787.8438 Q169.5938,788.5313 170.5156,788.875 Q171.4375,789.2188 172.3281,789.2188 Q173.2344,789.2188 173.7344,788.8125 Q174.2344,788.3906 174.2344,787.6563 Q174.2344,787.0938 173.8906,786.6875 Q173.5625,786.2656 172.9375,786.0156 L171.7344,785.5625 Z "/><text fill="#000000" font-family="sans-serif" font-size="12" lengthAdjust="spacingAndGlyphs" textLength="29" x="192.75" y="789.1543">User</text><line style="stroke: #A80036; stroke-width: 1.5;" x1="121.5" x2="260.5" y1="801" y2="801"/><ellipse cx="131.5" cy="812" fill="none" rx="3" ry="3" style="stroke: #038048; stroke-width: 1.0;"/><text fill="#000000" font-family="sans-serif" font-size="11" lengthAdjust="spacingAndGlyphs" textLength="115" x="140.5" y="815.2104">ID primitive.ObjectID</text><ellipse cx="131.5" cy="824.8047" fill="none" rx="3" ry="3" style="stroke: #038048; stroke-width: 1.0;"/><text fill="#000000" font-family="sans-serif" font-size="11" lengthAdjust="spacingAndGlyphs" textLength="68" x="140.5" y="828.0151">Email string</text><ellipse cx="131.5" cy="837.6094" fill="none" rx="3" ry="3" style="stroke: #038048; stroke-width: 1.0;"/><text fill="#000000" font-family="sans-serif" font-size="11" lengthAdjust="spacingAndGlyphs" textLength="93" x="140.5" y="840.8198">Password string</text><ellipse cx="131.5" cy="850.4141" fill="none" rx="3" ry="3" style="stroke: #038048; stroke-width: 1.0;"/><text fill="#000000" font-family="sans-serif" font-size="11" lengthAdjust="spacingAndGlyphs" textLength="63" x="140.5" y="853.6245">Admin bool</text><ellipse cx="131.5" cy="863.2188" fill="none" rx="3" ry="3" style="stroke: #038048; stroke-width: 1.0;"/><text fill="#000000" font-family="sans-serif" font-size="11" lengthAdjust="spacingAndGlyphs" textLength="61" x="140.5" y="866.4292">Active bool</text><line style="stroke: #A80036; stroke-width: 1.5;" x1="121.5" x2="260.5" y1="873.0234" y2="873.0234"/><ellipse cx="131.5" cy="884.0234" fill="#84BE84" rx="3" ry="3" style="stroke: #038048; stroke-width: 1.0;"/><text fill="#000000" font-family="sans-serif" font-size="11" lengthAdjust="spacingAndGlyphs" textLength="94" x="140.5" y="887.2339">ClearPassword()</text><!--MD5=[a58f670ca5da764943dbfd91898f76ec]
reverse link domain.BaseString to domain.Group--><path d="M126.4049,404.1255 C129.3803,419.7465 132.4643,435.9377 135.2807,450.7239 " fill="none" id="domain.BaseString&lt;-domain.Group" style="stroke: #A80036; stroke-width: 1.0;"/><polygon fill="#FFFFFF" points="123.9393,391.1814,121.1327,397.8239,126.1847,402.9694,128.9914,396.3269,123.9393,391.1814" style="stroke: #A80036; stroke-width: 1.0;"/><!--MD5=[8f85cd1f7e91c3dd879d00692f2a4a02]
reverse link domain.BaseString to domain.Language--><path d="M201.7859,399.415 C226.3622,418.8259 252.4695,439.446 275.1824,457.3852 " fill="none" id="domain.BaseString&lt;-domain.Language" style="stroke: #A80036; stroke-width: 1.0;"/><polygon fill="#FFFFFF" points="191.3614,391.1814,193.5907,398.0393,200.7784,398.6191,198.5492,391.7612,191.3614,391.1814" style="stroke: #A80036; stroke-width: 1.0;"/><!--MD5=[a970db55fdda3fd5dba5999d7a7488e2]
reverse link domain.BaseString to domain.User--><path d="M61.5734,402.7329 C53.4903,418.0798 46.3587,434.5872 42,451 C12.5546,561.8786 -0.4278,605.9557 50,709 C65.5368,740.7479 93.4049,767.6685 120.2867,788.1169 " fill="none" id="domain.BaseString&lt;-domain.User" style="stroke: #A80036; stroke-width: 1.0;"/><polygon fill="#FFFFFF" points="67.9099,391.244,61.5096,394.5661,62.1145,401.7518,68.5148,398.4297,67.9099,391.244" style="stroke: #A80036; stroke-width: 1.0;"/><!--MD5=[690aeaad0f6f877cb18637ae13a146f1]
reverse link domain.Group to domain.Permission--><path d="M142.5177,576.2107 C141.7186,592.0931 140.8914,608.5328 140.1667,622.9363 " fill="none" id="domain.Group&lt;-domain.Permission" style="stroke: #A80036; stroke-width: 1.0;"/><polygon fill="#FFFFFF" points="143.1795,563.0575,138.883,568.8489,142.5765,575.0423,146.8729,569.2509,143.1795,563.0575" style="stroke: #A80036; stroke-width: 1.0;"/><!--MD5=[b095e4e198b25f375cd07fcaab573238]
reverse link domain.Group to domain.User--><path d="M202.1262,574.053 C211.9462,589.2707 220.7032,605.9901 226,623 C240.8957,670.8359 229.9558,726.937 216.4967,768.8893 " fill="none" id="domain.Group&lt;-domain.User" style="stroke: #A80036; stroke-width: 1.0;"/><polygon fill="#FFFFFF" points="194.8221,563.255,194.8706,570.4659,201.5455,573.1946,201.497,565.9837,194.8221,563.255" style="stroke: #A80036; stroke-width: 1.0;"/><!--MD5=[5dbfd629f36032bae3f0c07711dbd3d6]
reverse link domain.Permission to domain.User--><path d="M155.8946,721.8784 C160.715,736.9309 165.9616,753.3141 170.8939,768.7158 " fill="none" id="domain.Permission&lt;-domain.User" style="stroke: #A80036; stroke-width: 1.0;"/><polygon fill="#FFFFFF" points="151.7868,709.0511,149.8073,715.9852,155.4466,720.4794,157.4261,713.5453,151.7868,709.0511" style="stroke: #A80036; stroke-width: 1.0;"/><!--MD5=[257603dc96d23d59db0ce3c08258fc6a]
reverse link domain.Translation to domain.BaseString--><path d="M210.7906,215.9119 C195.9386,232.8382 180.7416,250.1576 166.8595,265.9786 " fill="none" id="domain.Translation&lt;-domain.BaseString" style="stroke: #A80036; stroke-width: 1.0;"/><polygon fill="#FFFFFF" points="219.4828,206.0057,212.5189,207.8775,211.5683,215.0257,218.5322,213.1539,219.4828,206.0057" style="stroke: #A80036; stroke-width: 1.0;"/><!--MD5=[9e4ca911e1cc4d6d466066babcc23625]
reverse link domain.Translation to domain.Language--><path d="M259.5637,219.1372 C247.1614,270.8703 239.5483,335.5249 257,391 C264.4815,414.7822 278.7636,437.941 293.2776,457.2322 " fill="none" id="domain.Translation&lt;-domain.Language" style="stroke: #A80036; stroke-width: 1.0;"/><polygon fill="#FFFFFF" points="262.8076,206.2766,257.4615,211.116,259.8725,217.9121,265.2185,213.0727,262.8076,206.2766" style="stroke: #A80036; stroke-width: 1.0;"/><!--MD5=[fb4756a55770ea16f00e7e6869b144ec]
reverse link domain.Translation to domain.Stage--><path d="M315.9799,218.8684 C322.1496,242.1762 328.4608,266.0185 333.6151,285.4905 " fill="none" id="domain.Translation&lt;-domain.Stage" style="stroke: #A80036; stroke-width: 1.0;"/><polygon fill="#FFFFFF" points="312.575,206.0057,310.2436,212.8295,315.6458,217.6061,317.9772,210.7823,312.575,206.0057" style="stroke: #A80036; stroke-width: 1.0;"/><!--MD5=[752fd56d52fdfdd37179b84cd78292a4]
reverse link domain.Translation to domain.User--><path d="M379.0376,190.8048 C400.8141,212.1671 421.2574,237.7213 433,266 C444.6877,294.1464 430.5032,551.7195 426,563 C391.7217,648.8669 317.5364,725.8743 261.6274,775.1665 " fill="none" id="domain.Translation&lt;-domain.User" style="stroke: #A80036; stroke-width: 1.0;"/><polygon fill="#FFFFFF" points="369.3063,181.6012,370.917,188.6301,378.0247,189.8467,376.414,182.8178,369.3063,181.6012" style="stroke: #A80036; stroke-width: 1.0;"/><!--MD5=[a36bfdc3221ac681654ee2adf51c8aae]
@startuml
namespace domain {
    class BaseString << (S,Aquamarine) >> {
        + ID primitive.ObjectID
        + SourceLanguage Language
        + Description string
        + Group Group
        + Author User
        + Active bool

    }
    class Group << (S,Aquamarine) >> {
        + ID primitive.ObjectID
        + Name string
        + Owner User
        + Permissions []Permission
        + Active bool

    }
    class Language << (S,Aquamarine) >> {
        + ID primitive.ObjectID
        + IsoCode string
        + Description string
        + Active bool

    }
    class Permission << (S,Aquamarine) >> {
        + ID primitive.ObjectID
        + User User
        + CanWriteGroup bool

    }
    class Stage << (S,Aquamarine) >> {
        + ID primitive.ObjectID
        + Name string
        + Active bool

    }
    class Translation << (S,Aquamarine) >> {
        + ID primitive.ObjectID
        + Content string
        + Language Language
        + Version int
        + Active bool
        + BaseString BaseString
        + Author User
        + Date time.Time
        + Stage Stage

    }
    class User << (S,Aquamarine) >> {
        + ID primitive.ObjectID
        + Email string
        + Password string
        + Admin bool
        + Active bool

        + ClearPassword() 

    }
}


"domain.BaseString" o- - "domain.Group"
"domain.BaseString" o- - "domain.Language"
"domain.BaseString" o- - "domain.User"
"domain.Group" o- - "domain.Permission"
"domain.Group" o- - "domain.User"
"domain.Permission" o- - "domain.User"
"domain.Translation" o- - "domain.BaseString"
"domain.Translation" o- - "domain.Language"
"domain.Translation" o- - "domain.Stage"
"domain.Translation" o- - "domain.User"

@enduml

PlantUML version 1.2020.06(Sun Apr 05 12:38:32 GMT 2020)
(GPL source distribution)
Java Runtime: OpenJDK Runtime Environment
JVM: OpenJDK 64-Bit Server VM
Java Version: 14-ea+33
Operating System: Linux
Default Encoding: UTF-8
Language: en
Country: US
--></g></svg>