<?xml version="1.0" encoding="UTF-8" standalone="no"?><svg xmlns="http://www.w3.org/2000/svg" xmlns:xlink="http://www.w3.org/1999/xlink" contentScriptType="application/ecmascript" contentStyleType="text/css" height="755px" preserveAspectRatio="none" style="width:625px;height:755px;" version="1.1" viewBox="0 0 625 755" width="625px" zoomAndPan="magnify"><defs><filter height="300%" id="f17x6yq7yg7cbo" width="300%" x="-1" y="-1"><feGaussianBlur result="blurOut" stdDeviation="2.0"/><feColorMatrix in="blurOut" result="blurOut2" type="matrix" values="0 0 0 0 0 0 0 0 0 0 0 0 0 0 0 0 0 0 .4 0"/><feOffset dx="4.0" dy="4.0" in="blurOut2" result="blurOut3"/><feBlend in="SourceGraphic" in2="blurOut3" mode="normal"/></filter></defs><g><!--MD5=[27f772719433d509ddbc20ff768eba08]
cluster domain--><polygon fill="#FFFFFF" filter="url(#f17x6yq7yg7cbo)" points="14,16,77,16,84,38.2969,598,38.2969,598,743,14,743,14,16" style="stroke: #000000; stroke-width: 1.5;"/><line style="stroke: #000000; stroke-width: 1.5;" x1="14" x2="84" y1="38.2969" y2="38.2969"/><text fill="#000000" font-family="sans-serif" font-size="14" font-weight="bold" lengthAdjust="spacingAndGlyphs" textLength="57" x="18" y="30.9951">domain</text><!--MD5=[c2ad25ceabb2d4c1646fab0eac5e3291]
class domain.BaseString--><rect fill="#FEFECE" filter="url(#f17x6yq7yg7cbo)" height="150.4375" id="domain.BaseString" style="stroke: #A80036; stroke-width: 1.5;" width="405" x="145.5" y="43"/><ellipse cx="309.75" cy="59" fill="#7FFFD4" rx="11" ry="11" style="stroke: #A80036; stroke-width: 1.0;"/><path d="M309.2344,59.5625 Q307.375,58.8594 306.7188,58.0938 Q306.0781,57.3125 306.0781,56 Q306.0781,54.3125 307.1563,53.3438 Q308.2344,52.375 310.1094,52.375 Q310.9688,52.375 311.8125,52.5781 Q312.6719,52.7656 313.5156,53.1563 L313.5156,55.5469 Q312.7344,54.9844 311.9063,54.7031 Q311.0938,54.4063 310.2969,54.4063 Q309.4219,54.4063 308.9375,54.7656 Q308.4688,55.125 308.4688,55.7813 Q308.4688,56.2969 308.8125,56.6406 Q309.1563,56.9688 310.25,57.375 L311.3125,57.7813 Q312.7969,58.3281 313.5,59.2344 Q314.2188,60.1406 314.2188,61.5156 Q314.2188,63.3906 313.1094,64.3125 Q312,65.2344 309.75,65.2344 Q308.8281,65.2344 307.9063,65.0156 Q306.9844,64.7969 306.125,64.375 L306.125,61.8438 Q307.0938,62.5313 308.0156,62.875 Q308.9375,63.2188 309.8281,63.2188 Q310.7344,63.2188 311.2344,62.8125 Q311.7344,62.3906 311.7344,61.6563 Q311.7344,61.0938 311.3906,60.6875 Q311.0625,60.2656 310.4375,60.0156 L309.2344,59.5625 Z "/><text fill="#000000" font-family="sans-serif" font-size="12" lengthAdjust="spacingAndGlyphs" textLength="68" x="330.25" y="63.1543">BaseString</text><line style="stroke: #A80036; stroke-width: 1.5;" x1="146.5" x2="549.5" y1="75" y2="75"/><ellipse cx="156.5" cy="86" fill="none" rx="3" ry="3" style="stroke: #038048; stroke-width: 1.0;"/><text fill="#000000" font-family="sans-serif" font-size="11" lengthAdjust="spacingAndGlyphs" textLength="115" x="165.5" y="89.2104">ID primitive.ObjectID</text><ellipse cx="156.5" cy="98.8047" fill="none" rx="3" ry="3" style="stroke: #038048; stroke-width: 1.0;"/><text fill="#000000" font-family="sans-serif" font-size="11" lengthAdjust="spacingAndGlyphs" textLength="160" x="165.5" y="102.0151">SourceLanguage *Language</text><ellipse cx="156.5" cy="111.6094" fill="none" rx="3" ry="3" style="stroke: #038048; stroke-width: 1.0;"/><text fill="#000000" font-family="sans-serif" font-size="11" lengthAdjust="spacingAndGlyphs" textLength="87" x="165.5" y="114.8198">Identifier string</text><ellipse cx="156.5" cy="124.4141" fill="none" rx="3" ry="3" style="stroke: #038048; stroke-width: 1.0;"/><text fill="#000000" font-family="sans-serif" font-size="11" lengthAdjust="spacingAndGlyphs" textLength="80" x="165.5" y="127.6245">Group *Group</text><ellipse cx="156.5" cy="137.2188" fill="none" rx="3" ry="3" style="stroke: #038048; stroke-width: 1.0;"/><text fill="#000000" font-family="sans-serif" font-size="11" lengthAdjust="spacingAndGlyphs" textLength="74" x="165.5" y="140.4292">Author *User</text><ellipse cx="156.5" cy="150.0234" fill="none" rx="3" ry="3" style="stroke: #038048; stroke-width: 1.0;"/><text fill="#000000" font-family="sans-serif" font-size="11" lengthAdjust="spacingAndGlyphs" textLength="61" x="165.5" y="153.2339">Active bool</text><ellipse cx="156.5" cy="162.8281" fill="none" rx="3" ry="3" style="stroke: #038048; stroke-width: 1.0;"/><text fill="#000000" font-family="sans-serif" font-size="11" lengthAdjust="spacingAndGlyphs" textLength="147" x="165.5" y="166.0386">Translations []Translation</text><line style="stroke: #A80036; stroke-width: 1.5;" x1="146.5" x2="549.5" y1="172.6328" y2="172.6328"/><ellipse cx="156.5" cy="183.6328" fill="#84BE84" rx="3" ry="3" style="stroke: #038048; stroke-width: 1.0;"/><text fill="#000000" font-family="sans-serif" font-size="11" lengthAdjust="spacingAndGlyphs" textLength="379" x="165.5" y="186.8433">FindTranslationLastVersionByLanguage(language Language) string</text><!--MD5=[863f1825d6635ffa2f584082db8395ae]
class domain.Group--><rect fill="#FEFECE" filter="url(#f17x6yq7yg7cbo)" height="124.8281" id="domain.Group" style="stroke: #A80036; stroke-width: 1.5;" width="173" x="75.5" y="259.5"/><ellipse cx="138.75" cy="275.5" fill="#7FFFD4" rx="11" ry="11" style="stroke: #A80036; stroke-width: 1.0;"/><path d="M138.2344,276.0625 Q136.375,275.3594 135.7188,274.5938 Q135.0781,273.8125 135.0781,272.5 Q135.0781,270.8125 136.1563,269.8438 Q137.2344,268.875 139.1094,268.875 Q139.9688,268.875 140.8125,269.0781 Q141.6719,269.2656 142.5156,269.6563 L142.5156,272.0469 Q141.7344,271.4844 140.9063,271.2031 Q140.0938,270.9063 139.2969,270.9063 Q138.4219,270.9063 137.9375,271.2656 Q137.4688,271.625 137.4688,272.2813 Q137.4688,272.7969 137.8125,273.1406 Q138.1563,273.4688 139.25,273.875 L140.3125,274.2813 Q141.7969,274.8281 142.5,275.7344 Q143.2188,276.6406 143.2188,278.0156 Q143.2188,279.8906 142.1094,280.8125 Q141,281.7344 138.75,281.7344 Q137.8281,281.7344 136.9063,281.5156 Q135.9844,281.2969 135.125,280.875 L135.125,278.3438 Q136.0938,279.0313 137.0156,279.375 Q137.9375,279.7188 138.8281,279.7188 Q139.7344,279.7188 140.2344,279.3125 Q140.7344,278.8906 140.7344,278.1563 Q140.7344,277.5938 140.3906,277.1875 Q140.0625,276.7656 139.4375,276.5156 L138.2344,276.0625 Z "/><text fill="#000000" font-family="sans-serif" font-size="12" lengthAdjust="spacingAndGlyphs" textLength="38" x="159.25" y="279.6543">Group</text><line style="stroke: #A80036; stroke-width: 1.5;" x1="76.5" x2="247.5" y1="291.5" y2="291.5"/><ellipse cx="86.5" cy="302.5" fill="none" rx="3" ry="3" style="stroke: #038048; stroke-width: 1.0;"/><text fill="#000000" font-family="sans-serif" font-size="11" lengthAdjust="spacingAndGlyphs" textLength="115" x="95.5" y="305.7104">ID primitive.ObjectID</text><ellipse cx="86.5" cy="315.3047" fill="none" rx="3" ry="3" style="stroke: #038048; stroke-width: 1.0;"/><text fill="#000000" font-family="sans-serif" font-size="11" lengthAdjust="spacingAndGlyphs" textLength="70" x="95.5" y="318.5151">Name string</text><ellipse cx="86.5" cy="328.1094" fill="none" rx="3" ry="3" style="stroke: #038048; stroke-width: 1.0;"/><text fill="#000000" font-family="sans-serif" font-size="11" lengthAdjust="spacingAndGlyphs" textLength="74" x="95.5" y="331.3198">Owner *User</text><ellipse cx="86.5" cy="340.9141" fill="none" rx="3" ry="3" style="stroke: #038048; stroke-width: 1.0;"/><text fill="#000000" font-family="sans-serif" font-size="11" lengthAdjust="spacingAndGlyphs" textLength="147" x="95.5" y="344.1245">Permissions []Permission</text><ellipse cx="86.5" cy="353.7188" fill="none" rx="3" ry="3" style="stroke: #038048; stroke-width: 1.0;"/><text fill="#000000" font-family="sans-serif" font-size="11" lengthAdjust="spacingAndGlyphs" textLength="61" x="95.5" y="356.9292">Active bool</text><ellipse cx="86.5" cy="366.5234" fill="none" rx="3" ry="3" style="stroke: #038048; stroke-width: 1.0;"/><text fill="#000000" font-family="sans-serif" font-size="11" lengthAdjust="spacingAndGlyphs" textLength="61" x="95.5" y="369.7339">Public bool</text><line style="stroke: #A80036; stroke-width: 1.5;" x1="76.5" x2="247.5" y1="376.3281" y2="376.3281"/><!--MD5=[c17524741a03264fd90aa714fe1c3562]
class domain.Language--><rect fill="#FEFECE" filter="url(#f17x6yq7yg7cbo)" height="99.2188" id="domain.Language" style="stroke: #A80036; stroke-width: 1.5;" width="141" x="198.5" y="451"/><ellipse cx="234.65" cy="467" fill="#7FFFD4" rx="11" ry="11" style="stroke: #A80036; stroke-width: 1.0;"/><path d="M234.1344,467.5625 Q232.275,466.8594 231.6188,466.0938 Q230.9781,465.3125 230.9781,464 Q230.9781,462.3125 232.0563,461.3438 Q233.1344,460.375 235.0094,460.375 Q235.8688,460.375 236.7125,460.5781 Q237.5719,460.7656 238.4156,461.1563 L238.4156,463.5469 Q237.6344,462.9844 236.8063,462.7031 Q235.9938,462.4063 235.1969,462.4063 Q234.3219,462.4063 233.8375,462.7656 Q233.3688,463.125 233.3688,463.7813 Q233.3688,464.2969 233.7125,464.6406 Q234.0563,464.9688 235.15,465.375 L236.2125,465.7813 Q237.6969,466.3281 238.4,467.2344 Q239.1188,468.1406 239.1188,469.5156 Q239.1188,471.3906 238.0094,472.3125 Q236.9,473.2344 234.65,473.2344 Q233.7281,473.2344 232.8063,473.0156 Q231.8844,472.7969 231.025,472.375 L231.025,469.8438 Q231.9938,470.5313 232.9156,470.875 Q233.8375,471.2188 234.7281,471.2188 Q235.6344,471.2188 236.1344,470.8125 Q236.6344,470.3906 236.6344,469.6563 Q236.6344,469.0938 236.2906,468.6875 Q235.9625,468.2656 235.3375,468.0156 L234.1344,467.5625 Z "/><text fill="#000000" font-family="sans-serif" font-size="12" lengthAdjust="spacingAndGlyphs" textLength="62" x="253.35" y="471.1543">Language</text><line style="stroke: #A80036; stroke-width: 1.5;" x1="199.5" x2="338.5" y1="483" y2="483"/><ellipse cx="209.5" cy="494" fill="none" rx="3" ry="3" style="stroke: #038048; stroke-width: 1.0;"/><text fill="#000000" font-family="sans-serif" font-size="11" lengthAdjust="spacingAndGlyphs" textLength="115" x="218.5" y="497.2104">ID primitive.ObjectID</text><ellipse cx="209.5" cy="506.8047" fill="none" rx="3" ry="3" style="stroke: #038048; stroke-width: 1.0;"/><text fill="#000000" font-family="sans-serif" font-size="11" lengthAdjust="spacingAndGlyphs" textLength="83" x="218.5" y="510.0151">IsoCode string</text><ellipse cx="209.5" cy="519.6094" fill="none" rx="3" ry="3" style="stroke: #038048; stroke-width: 1.0;"/><text fill="#000000" font-family="sans-serif" font-size="11" lengthAdjust="spacingAndGlyphs" textLength="101" x="218.5" y="522.8198">Description string</text><ellipse cx="209.5" cy="532.4141" fill="none" rx="3" ry="3" style="stroke: #038048; stroke-width: 1.0;"/><text fill="#000000" font-family="sans-serif" font-size="11" lengthAdjust="spacingAndGlyphs" textLength="61" x="218.5" y="535.6245">Active bool</text><line style="stroke: #A80036; stroke-width: 1.5;" x1="199.5" x2="338.5" y1="542.2188" y2="542.2188"/><!--MD5=[31e87857781726aef1a9645d85eb2642]
class domain.Permission--><rect fill="#FEFECE" filter="url(#f17x6yq7yg7cbo)" height="73.6094" id="domain.Permission" style="stroke: #A80036; stroke-width: 1.5;" width="104" x="22" y="463.5"/><ellipse cx="38.8" cy="479.5" fill="#7FFFD4" rx="11" ry="11" style="stroke: #A80036; stroke-width: 1.0;"/><path d="M38.2844,480.0625 Q36.425,479.3594 35.7688,478.5938 Q35.1281,477.8125 35.1281,476.5 Q35.1281,474.8125 36.2063,473.8438 Q37.2844,472.875 39.1594,472.875 Q40.0188,472.875 40.8625,473.0781 Q41.7219,473.2656 42.5656,473.6563 L42.5656,476.0469 Q41.7844,475.4844 40.9563,475.2031 Q40.1438,474.9063 39.3469,474.9063 Q38.4719,474.9063 37.9875,475.2656 Q37.5188,475.625 37.5188,476.2813 Q37.5188,476.7969 37.8625,477.1406 Q38.2063,477.4688 39.3,477.875 L40.3625,478.2813 Q41.8469,478.8281 42.55,479.7344 Q43.2688,480.6406 43.2688,482.0156 Q43.2688,483.8906 42.1594,484.8125 Q41.05,485.7344 38.8,485.7344 Q37.8781,485.7344 36.9563,485.5156 Q36.0344,485.2969 35.175,484.875 L35.175,482.3438 Q36.1438,483.0313 37.0656,483.375 Q37.9875,483.7188 38.8781,483.7188 Q39.7844,483.7188 40.2844,483.3125 Q40.7844,482.8906 40.7844,482.1563 Q40.7844,481.5938 40.4406,481.1875 Q40.1125,480.7656 39.4875,480.5156 L38.2844,480.0625 Z "/><text fill="#000000" font-family="sans-serif" font-size="12" lengthAdjust="spacingAndGlyphs" textLength="68" x="53.2" y="483.6543">Permission</text><line style="stroke: #A80036; stroke-width: 1.5;" x1="23" x2="125" y1="495.5" y2="495.5"/><ellipse cx="33" cy="506.5" fill="none" rx="3" ry="3" style="stroke: #038048; stroke-width: 1.0;"/><text fill="#000000" font-family="sans-serif" font-size="11" lengthAdjust="spacingAndGlyphs" textLength="64" x="42" y="509.7104">User *User</text><ellipse cx="33" cy="519.3047" fill="none" rx="3" ry="3" style="stroke: #038048; stroke-width: 1.0;"/><text fill="#000000" font-family="sans-serif" font-size="11" lengthAdjust="spacingAndGlyphs" textLength="78" x="42" y="522.5151">CanWrite bool</text><line style="stroke: #A80036; stroke-width: 1.5;" x1="23" x2="125" y1="529.1094" y2="529.1094"/><!--MD5=[9a7789b2fe37cd0457e308260b86b1c2]
class domain.Stage--><rect fill="#FEFECE" filter="url(#f17x6yq7yg7cbo)" height="86.4141" id="domain.Stage" style="stroke: #A80036; stroke-width: 1.5;" width="141" x="374.5" y="457.5"/><ellipse cx="422.25" cy="473.5" fill="#7FFFD4" rx="11" ry="11" style="stroke: #A80036; stroke-width: 1.0;"/><path d="M421.7344,474.0625 Q419.875,473.3594 419.2188,472.5938 Q418.5781,471.8125 418.5781,470.5 Q418.5781,468.8125 419.6563,467.8438 Q420.7344,466.875 422.6094,466.875 Q423.4688,466.875 424.3125,467.0781 Q425.1719,467.2656 426.0156,467.6563 L426.0156,470.0469 Q425.2344,469.4844 424.4063,469.2031 Q423.5938,468.9063 422.7969,468.9063 Q421.9219,468.9063 421.4375,469.2656 Q420.9688,469.625 420.9688,470.2813 Q420.9688,470.7969 421.3125,471.1406 Q421.6563,471.4688 422.75,471.875 L423.8125,472.2813 Q425.2969,472.8281 426,473.7344 Q426.7188,474.6406 426.7188,476.0156 Q426.7188,477.8906 425.6094,478.8125 Q424.5,479.7344 422.25,479.7344 Q421.3281,479.7344 420.4063,479.5156 Q419.4844,479.2969 418.625,478.875 L418.625,476.3438 Q419.5938,477.0313 420.5156,477.375 Q421.4375,477.7188 422.3281,477.7188 Q423.2344,477.7188 423.7344,477.3125 Q424.2344,476.8906 424.2344,476.1563 Q424.2344,475.5938 423.8906,475.1875 Q423.5625,474.7656 422.9375,474.5156 L421.7344,474.0625 Z "/><text fill="#000000" font-family="sans-serif" font-size="12" lengthAdjust="spacingAndGlyphs" textLength="37" x="442.75" y="477.6543">Stage</text><line style="stroke: #A80036; stroke-width: 1.5;" x1="375.5" x2="514.5" y1="489.5" y2="489.5"/><ellipse cx="385.5" cy="500.5" fill="none" rx="3" ry="3" style="stroke: #038048; stroke-width: 1.0;"/><text fill="#000000" font-family="sans-serif" font-size="11" lengthAdjust="spacingAndGlyphs" textLength="115" x="394.5" y="503.7104">ID primitive.ObjectID</text><ellipse cx="385.5" cy="513.3047" fill="none" rx="3" ry="3" style="stroke: #038048; stroke-width: 1.0;"/><text fill="#000000" font-family="sans-serif" font-size="11" lengthAdjust="spacingAndGlyphs" textLength="70" x="394.5" y="516.5151">Name string</text><ellipse cx="385.5" cy="526.1094" fill="none" rx="3" ry="3" style="stroke: #038048; stroke-width: 1.0;"/><text fill="#000000" font-family="sans-serif" font-size="11" lengthAdjust="spacingAndGlyphs" textLength="61" x="394.5" y="529.3198">Active bool</text><line style="stroke: #A80036; stroke-width: 1.5;" x1="375.5" x2="514.5" y1="535.9141" y2="535.9141"/><!--MD5=[0134179867525364293e41d4802e5b11]
class domain.Translation--><rect fill="#FEFECE" filter="url(#f17x6yq7yg7cbo)" height="137.6328" id="domain.Translation" style="stroke: #A80036; stroke-width: 1.5;" width="146" x="359" y="253"/><ellipse cx="393.8" cy="269" fill="#7FFFD4" rx="11" ry="11" style="stroke: #A80036; stroke-width: 1.0;"/><path d="M393.2844,269.5625 Q391.425,268.8594 390.7688,268.0938 Q390.1281,267.3125 390.1281,266 Q390.1281,264.3125 391.2063,263.3438 Q392.2844,262.375 394.1594,262.375 Q395.0188,262.375 395.8625,262.5781 Q396.7219,262.7656 397.5656,263.1563 L397.5656,265.5469 Q396.7844,264.9844 395.9563,264.7031 Q395.1438,264.4063 394.3469,264.4063 Q393.4719,264.4063 392.9875,264.7656 Q392.5188,265.125 392.5188,265.7813 Q392.5188,266.2969 392.8625,266.6406 Q393.2063,266.9688 394.3,267.375 L395.3625,267.7813 Q396.8469,268.3281 397.55,269.2344 Q398.2688,270.1406 398.2688,271.5156 Q398.2688,273.3906 397.1594,274.3125 Q396.05,275.2344 393.8,275.2344 Q392.8781,275.2344 391.9563,275.0156 Q391.0344,274.7969 390.175,274.375 L390.175,271.8438 Q391.1438,272.5313 392.0656,272.875 Q392.9875,273.2188 393.8781,273.2188 Q394.7844,273.2188 395.2844,272.8125 Q395.7844,272.3906 395.7844,271.6563 Q395.7844,271.0938 395.4406,270.6875 Q395.1125,270.2656 394.4875,270.0156 L393.2844,269.5625 Z "/><text fill="#000000" font-family="sans-serif" font-size="12" lengthAdjust="spacingAndGlyphs" textLength="70" x="412.2" y="273.1543">Translation</text><line style="stroke: #A80036; stroke-width: 1.5;" x1="360" x2="504" y1="285" y2="285"/><ellipse cx="370" cy="296" fill="none" rx="3" ry="3" style="stroke: #038048; stroke-width: 1.0;"/><text fill="#000000" font-family="sans-serif" font-size="11" lengthAdjust="spacingAndGlyphs" textLength="81" x="379" y="299.2104">Content string</text><ellipse cx="370" cy="308.8047" fill="none" rx="3" ry="3" style="stroke: #038048; stroke-width: 1.0;"/><text fill="#000000" font-family="sans-serif" font-size="11" lengthAdjust="spacingAndGlyphs" textLength="120" x="379" y="312.0151">Language *Language</text><ellipse cx="370" cy="321.6094" fill="none" rx="3" ry="3" style="stroke: #038048; stroke-width: 1.0;"/><text fill="#000000" font-family="sans-serif" font-size="11" lengthAdjust="spacingAndGlyphs" textLength="61" x="379" y="324.8198">Version int</text><ellipse cx="370" cy="334.4141" fill="none" rx="3" ry="3" style="stroke: #038048; stroke-width: 1.0;"/><text fill="#000000" font-family="sans-serif" font-size="11" lengthAdjust="spacingAndGlyphs" textLength="61" x="379" y="337.6245">Active bool</text><ellipse cx="370" cy="347.2188" fill="none" rx="3" ry="3" style="stroke: #038048; stroke-width: 1.0;"/><text fill="#000000" font-family="sans-serif" font-size="11" lengthAdjust="spacingAndGlyphs" textLength="74" x="379" y="350.4292">Author *User</text><ellipse cx="370" cy="360.0234" fill="none" rx="3" ry="3" style="stroke: #038048; stroke-width: 1.0;"/><text fill="#000000" font-family="sans-serif" font-size="11" lengthAdjust="spacingAndGlyphs" textLength="87" x="379" y="363.2339">Date time.Time</text><ellipse cx="370" cy="372.8281" fill="none" rx="3" ry="3" style="stroke: #038048; stroke-width: 1.0;"/><text fill="#000000" font-family="sans-serif" font-size="11" lengthAdjust="spacingAndGlyphs" textLength="76" x="379" y="376.0386">Stage *Stage</text><line style="stroke: #A80036; stroke-width: 1.5;" x1="360" x2="504" y1="382.6328" y2="382.6328"/><!--MD5=[8650bc9010346a63b380831969c88903]
class domain.User--><rect fill="#FEFECE" filter="url(#f17x6yq7yg7cbo)" height="124.8281" id="domain.User" style="stroke: #A80036; stroke-width: 1.5;" width="141" x="269.5" y="610"/><ellipse cx="321.25" cy="626" fill="#7FFFD4" rx="11" ry="11" style="stroke: #A80036; stroke-width: 1.0;"/><path d="M320.7344,626.5625 Q318.875,625.8594 318.2188,625.0938 Q317.5781,624.3125 317.5781,623 Q317.5781,621.3125 318.6563,620.3438 Q319.7344,619.375 321.6094,619.375 Q322.4688,619.375 323.3125,619.5781 Q324.1719,619.7656 325.0156,620.1563 L325.0156,622.5469 Q324.2344,621.9844 323.4063,621.7031 Q322.5938,621.4063 321.7969,621.4063 Q320.9219,621.4063 320.4375,621.7656 Q319.9688,622.125 319.9688,622.7813 Q319.9688,623.2969 320.3125,623.6406 Q320.6563,623.9688 321.75,624.375 L322.8125,624.7813 Q324.2969,625.3281 325,626.2344 Q325.7188,627.1406 325.7188,628.5156 Q325.7188,630.3906 324.6094,631.3125 Q323.5,632.2344 321.25,632.2344 Q320.3281,632.2344 319.4063,632.0156 Q318.4844,631.7969 317.625,631.375 L317.625,628.8438 Q318.5938,629.5313 319.5156,629.875 Q320.4375,630.2188 321.3281,630.2188 Q322.2344,630.2188 322.7344,629.8125 Q323.2344,629.3906 323.2344,628.6563 Q323.2344,628.0938 322.8906,627.6875 Q322.5625,627.2656 321.9375,627.0156 L320.7344,626.5625 Z "/><text fill="#000000" font-family="sans-serif" font-size="12" lengthAdjust="spacingAndGlyphs" textLength="29" x="341.75" y="630.1543">User</text><line style="stroke: #A80036; stroke-width: 1.5;" x1="270.5" x2="409.5" y1="642" y2="642"/><ellipse cx="280.5" cy="653" fill="none" rx="3" ry="3" style="stroke: #038048; stroke-width: 1.0;"/><text fill="#000000" font-family="sans-serif" font-size="11" lengthAdjust="spacingAndGlyphs" textLength="115" x="289.5" y="656.2104">ID primitive.ObjectID</text><ellipse cx="280.5" cy="665.8047" fill="none" rx="3" ry="3" style="stroke: #038048; stroke-width: 1.0;"/><text fill="#000000" font-family="sans-serif" font-size="11" lengthAdjust="spacingAndGlyphs" textLength="68" x="289.5" y="669.0151">Email string</text><ellipse cx="280.5" cy="678.6094" fill="none" rx="3" ry="3" style="stroke: #038048; stroke-width: 1.0;"/><text fill="#000000" font-family="sans-serif" font-size="11" lengthAdjust="spacingAndGlyphs" textLength="93" x="289.5" y="681.8198">Password string</text><ellipse cx="280.5" cy="691.4141" fill="none" rx="3" ry="3" style="stroke: #038048; stroke-width: 1.0;"/><text fill="#000000" font-family="sans-serif" font-size="11" lengthAdjust="spacingAndGlyphs" textLength="63" x="289.5" y="694.6245">Admin bool</text><ellipse cx="280.5" cy="704.2188" fill="none" rx="3" ry="3" style="stroke: #038048; stroke-width: 1.0;"/><text fill="#000000" font-family="sans-serif" font-size="11" lengthAdjust="spacingAndGlyphs" textLength="61" x="289.5" y="707.4292">Active bool</text><line style="stroke: #A80036; stroke-width: 1.5;" x1="270.5" x2="409.5" y1="714.0234" y2="714.0234"/><ellipse cx="280.5" cy="725.0234" fill="#84BE84" rx="3" ry="3" style="stroke: #038048; stroke-width: 1.0;"/><text fill="#000000" font-family="sans-serif" font-size="11" lengthAdjust="spacingAndGlyphs" textLength="94" x="289.5" y="728.2339">ClearPassword()</text><!--MD5=[a58f670ca5da764943dbfd91898f76ec]
reverse link domain.BaseString to domain.Group--><path d="M270.583,202.9089 C253.3148,221.8483 235.3087,241.5969 219.0385,259.4417 " fill="none" id="domain.BaseString&lt;-domain.Group" style="stroke: #A80036; stroke-width: 1.0;"/><polygon fill="#FFFFFF" points="279.5329,193.093,272.5345,194.8317,271.4478,201.9604,278.4462,200.2217,279.5329,193.093" style="stroke: #A80036; stroke-width: 1.0;"/><!--MD5=[8f85cd1f7e91c3dd879d00692f2a4a02]
reverse link domain.BaseString to domain.Language--><path d="M329.832,205.9652 C314.1494,281.8967 292.0582,388.8572 279.2639,450.8047 " fill="none" id="domain.BaseString&lt;-domain.Language" style="stroke: #A80036; stroke-width: 1.0;"/><polygon fill="#FFFFFF" points="332.4864,193.1133,327.3555,198.1802,330.0592,204.8653,335.1901,199.7983,332.4864,193.1133" style="stroke: #A80036; stroke-width: 1.0;"/><!--MD5=[75eba63f8ac88756bc8943574f37d34f]
reverse link domain.BaseString to domain.Translation--><path d="M383.8851,205.1496 C390.4432,221.0765 397.2046,237.4969 403.5111,252.8126 " fill="none" id="domain.BaseString&lt;-domain.Translation" style="stroke: #A80036; stroke-width: 1.0;"/><polygon fill="#FFFFFF" points="378.9206,193.093,377.5064,200.1641,383.4896,204.1891,384.9038,197.1181,378.9206,193.093" style="stroke: #A80036; stroke-width: 1.0;"/><!--MD5=[a970db55fdda3fd5dba5999d7a7488e2]
reverse link domain.BaseString to domain.User--><path d="M481.6389,201.9504 C497.7342,217.1395 512.2482,234.2068 523,253 C588.781,367.9796 613.7366,434.995 548,550 C518.7282,601.2105 458.7686,633.1394 410.7143,651.5087 " fill="none" id="domain.BaseString&lt;-domain.User" style="stroke: #A80036; stroke-width: 1.0;"/><polygon fill="#FFFFFF" points="471.996,193.2255,473.7614,200.2172,480.8942,201.2767,479.1288,194.285,471.996,193.2255" style="stroke: #A80036; stroke-width: 1.0;"/><!--MD5=[690aeaad0f6f877cb18637ae13a146f1]
reverse link domain.Group to domain.Permission--><path d="M125.2263,396.592 C113.8502,419.6675 101.8114,444.087 92.265,463.4512 " fill="none" id="domain.Group&lt;-domain.Permission" style="stroke: #A80036; stroke-width: 1.0;"/><polygon fill="#FFFFFF" points="131.0982,384.6814,124.8574,388.2942,125.792,395.4445,132.0328,391.8317,131.0982,384.6814" style="stroke: #A80036; stroke-width: 1.0;"/><!--MD5=[b095e4e198b25f375cd07fcaab573238]
reverse link domain.Group to domain.User--><path d="M153.4131,397.979 C151.6369,444.547 155.8725,503.8665 181,550 C200.8348,586.4162 236.5861,615.4465 269.1706,636.0886 " fill="none" id="domain.Group&lt;-domain.User" style="stroke: #A80036; stroke-width: 1.0;"/><polygon fill="#FFFFFF" points="154.0808,384.8956,149.7802,390.6839,153.4692,396.88,157.7698,391.0917,154.0808,384.8956" style="stroke: #A80036; stroke-width: 1.0;"/><!--MD5=[5dbfd629f36032bae3f0c07711dbd3d6]
reverse link domain.Permission to domain.User--><path d="M137.3667,541.474 C177.0491,567.1333 228.2503,600.2408 269.2558,626.7556 " fill="none" id="domain.Permission&lt;-domain.User" style="stroke: #A80036; stroke-width: 1.0;"/><polygon fill="#FFFFFF" points="126.2357,534.2764,129.1022,540.8933,136.3126,540.7922,133.4461,534.1753,126.2357,534.2764" style="stroke: #A80036; stroke-width: 1.0;"/><!--MD5=[9e4ca911e1cc4d6d466066babcc23625]
reverse link domain.Translation to domain.Language--><path d="M359.9415,400.9107 C344.4712,417.8521 328.5408,435.2974 314.4207,450.7602 " fill="none" id="domain.Translation&lt;-domain.Language" style="stroke: #A80036; stroke-width: 1.0;"/><polygon fill="#FFFFFF" points="368.9799,391.0128,361.9802,392.7462,360.8881,399.8741,367.8877,398.1407,368.9799,391.0128" style="stroke: #A80036; stroke-width: 1.0;"/><!--MD5=[fb4756a55770ea16f00e7e6869b144ec]
reverse link domain.Translation to domain.Stage--><path d="M437.9728,404.0114 C439.3174,422.4735 440.6923,441.3514 441.8652,457.4573 " fill="none" id="domain.Translation&lt;-domain.Stage" style="stroke: #A80036; stroke-width: 1.0;"/><polygon fill="#FFFFFF" points="437.0261,391.0128,433.4726,397.2875,437.8979,402.9811,441.4514,396.7064,437.0261,391.0128" style="stroke: #A80036; stroke-width: 1.0;"/><!--MD5=[752fd56d52fdfdd37179b84cd78292a4]
reverse link domain.Translation to domain.User--><path d="M507.4156,402.1122 C517.9087,417.3477 527.1044,433.9064 533,451 C547.3464,492.5954 554.1958,511.4418 533,550 C507.0952,597.1244 454.5431,628.6822 410.8098,647.95 " fill="none" id="domain.Translation&lt;-domain.User" style="stroke: #A80036; stroke-width: 1.0;"/><polygon fill="#FFFFFF" points="499.5742,391.2635,499.8472,398.4694,506.6038,400.989,506.3308,393.783,499.5742,391.2635" style="stroke: #A80036; stroke-width: 1.0;"/><!--MD5=[e25fabf44d937f202e0dfde97553220a]
@startuml
namespace domain {
    class BaseString << (S,Aquamarine) >> {
        + ID primitive.ObjectID
        + SourceLanguage *Language
        + Identifier string
        + Group *Group
        + Author *User
        + Active bool
        + Translations []Translation

        + FindTranslationLastVersionByLanguage(language Language) string

    }
    class Group << (S,Aquamarine) >> {
        + ID primitive.ObjectID
        + Name string
        + Owner *User
        + Permissions []Permission
        + Active bool
        + Public bool

    }
    class Language << (S,Aquamarine) >> {
        + ID primitive.ObjectID
        + IsoCode string
        + Description string
        + Active bool

    }
    class Permission << (S,Aquamarine) >> {
        + User *User
        + CanWrite bool

    }
    class Stage << (S,Aquamarine) >> {
        + ID primitive.ObjectID
        + Name string
        + Active bool

    }
    class Translation << (S,Aquamarine) >> {
        + Content string
        + Language *Language
        + Version int
        + Active bool
        + Author *User
        + Date time.Time
        + Stage *Stage

    }
    class User << (S,Aquamarine) >> {
        + ID primitive.ObjectID
        + Email string
        + Password string
        + Admin bool
        + Active bool

        + ClearPassword() 

    }
}


"domain.BaseString" o- - "domain.Group"
"domain.BaseString" o- - "domain.Language"
"domain.BaseString" o- - "domain.Translation"
"domain.BaseString" o- - "domain.User"
"domain.Group" o- - "domain.Permission"
"domain.Group" o- - "domain.User"
"domain.Permission" o- - "domain.User"
"domain.Translation" o- - "domain.Language"
"domain.Translation" o- - "domain.Stage"
"domain.Translation" o- - "domain.User"

@enduml

PlantUML version 1.2020.06(Sun Apr 05 12:38:32 GMT 2020)
(GPL source distribution)
Java Runtime: OpenJDK Runtime Environment
JVM: OpenJDK 64-Bit Server VM
Java Version: 14-ea+33
Operating System: Linux
Default Encoding: UTF-8
Language: en
Country: US
--></g></svg>