<?xml version="1.0" encoding="UTF-8" standalone="no"?><svg xmlns="http://www.w3.org/2000/svg" xmlns:xlink="http://www.w3.org/1999/xlink" contentScriptType="application/ecmascript" contentStyleType="text/css" height="584px" preserveAspectRatio="none" style="width:560px;height:584px;" version="1.1" viewBox="0 0 560 584" width="560px" zoomAndPan="magnify"><defs><filter height="300%" id="fvm815zh7bcu3" width="300%" x="-1" y="-1"><feGaussianBlur result="blurOut" stdDeviation="2.0"/><feColorMatrix in="blurOut" result="blurOut2" type="matrix" values="0 0 0 0 0 0 0 0 0 0 0 0 0 0 0 0 0 0 .4 0"/><feOffset dx="4.0" dy="4.0" in="blurOut2" result="blurOut3"/><feBlend in="SourceGraphic" in2="blurOut3" mode="normal"/></filter></defs><g><!--MD5=[27f772719433d509ddbc20ff768eba08]
cluster domain--><polygon fill="#FFFFFF" filter="url(#fvm815zh7bcu3)" points="14,16,77,16,84,38.2969,538,38.2969,538,572,14,572,14,16" style="stroke: #000000; stroke-width: 1.5;"/><line style="stroke: #000000; stroke-width: 1.5;" x1="14" x2="84" y1="38.2969" y2="38.2969"/><text fill="#000000" font-family="sans-serif" font-size="14" font-weight="bold" lengthAdjust="spacingAndGlyphs" textLength="57" x="18" y="30.9951">domain</text><!--MD5=[863f1825d6635ffa2f584082db8395ae]
class domain.Group--><rect fill="#FEFECE" filter="url(#fvm815zh7bcu3)" height="73.6094" id="domain.Group" style="stroke: #A80036; stroke-width: 1.5;" width="96" x="434" y="458"/><ellipse cx="460.7" cy="474" fill="#7FFFD4" rx="11" ry="11" style="stroke: #A80036; stroke-width: 1.0;"/><path d="M460.1844,474.5625 Q458.325,473.8594 457.6688,473.0938 Q457.0281,472.3125 457.0281,471 Q457.0281,469.3125 458.1063,468.3438 Q459.1844,467.375 461.0594,467.375 Q461.9188,467.375 462.7625,467.5781 Q463.6219,467.7656 464.4656,468.1563 L464.4656,470.5469 Q463.6844,469.9844 462.8563,469.7031 Q462.0438,469.4063 461.2469,469.4063 Q460.3719,469.4063 459.8875,469.7656 Q459.4188,470.125 459.4188,470.7813 Q459.4188,471.2969 459.7625,471.6406 Q460.1063,471.9688 461.2,472.375 L462.2625,472.7813 Q463.7469,473.3281 464.45,474.2344 Q465.1688,475.1406 465.1688,476.5156 Q465.1688,478.3906 464.0594,479.3125 Q462.95,480.2344 460.7,480.2344 Q459.7781,480.2344 458.8563,480.0156 Q457.9344,479.7969 457.075,479.375 L457.075,476.8438 Q458.0438,477.5313 458.9656,477.875 Q459.8875,478.2188 460.7781,478.2188 Q461.6844,478.2188 462.1844,477.8125 Q462.6844,477.3906 462.6844,476.6563 Q462.6844,476.0938 462.3406,475.6875 Q462.0125,475.2656 461.3875,475.0156 L460.1844,474.5625 Z "/><text fill="#000000" font-family="sans-serif" font-size="12" lengthAdjust="spacingAndGlyphs" textLength="38" x="477.3" y="478.1543">Group</text><line style="stroke: #A80036; stroke-width: 1.5;" x1="435" x2="529" y1="490" y2="490"/><ellipse cx="445" cy="501" fill="none" rx="3" ry="3" style="stroke: #038048; stroke-width: 1.0;"/><text fill="#000000" font-family="sans-serif" font-size="11" lengthAdjust="spacingAndGlyphs" textLength="48" x="454" y="504.2104">ID string</text><ellipse cx="445" cy="513.8047" fill="none" rx="3" ry="3" style="stroke: #038048; stroke-width: 1.0;"/><text fill="#000000" font-family="sans-serif" font-size="11" lengthAdjust="spacingAndGlyphs" textLength="70" x="454" y="517.0151">Name string</text><line style="stroke: #A80036; stroke-width: 1.5;" x1="435" x2="529" y1="523.6094" y2="523.6094"/><!--MD5=[c17524741a03264fd90aa714fe1c3562]
class domain.Language--><rect fill="#FEFECE" filter="url(#fvm815zh7bcu3)" height="73.6094" id="domain.Language" style="stroke: #A80036; stroke-width: 1.5;" width="96" x="259" y="260"/><ellipse cx="274.9" cy="276" fill="#7FFFD4" rx="11" ry="11" style="stroke: #A80036; stroke-width: 1.0;"/><path d="M274.3844,276.5625 Q272.525,275.8594 271.8688,275.0938 Q271.2281,274.3125 271.2281,273 Q271.2281,271.3125 272.3063,270.3438 Q273.3844,269.375 275.2594,269.375 Q276.1188,269.375 276.9625,269.5781 Q277.8219,269.7656 278.6656,270.1563 L278.6656,272.5469 Q277.8844,271.9844 277.0563,271.7031 Q276.2438,271.4063 275.4469,271.4063 Q274.5719,271.4063 274.0875,271.7656 Q273.6188,272.125 273.6188,272.7813 Q273.6188,273.2969 273.9625,273.6406 Q274.3063,273.9688 275.4,274.375 L276.4625,274.7813 Q277.9469,275.3281 278.65,276.2344 Q279.3688,277.1406 279.3688,278.5156 Q279.3688,280.3906 278.2594,281.3125 Q277.15,282.2344 274.9,282.2344 Q273.9781,282.2344 273.0563,282.0156 Q272.1344,281.7969 271.275,281.375 L271.275,278.8438 Q272.2438,279.5313 273.1656,279.875 Q274.0875,280.2188 274.9781,280.2188 Q275.8844,280.2188 276.3844,279.8125 Q276.8844,279.3906 276.8844,278.6563 Q276.8844,278.0938 276.5406,277.6875 Q276.2125,277.2656 275.5875,277.0156 L274.3844,276.5625 Z "/><text fill="#000000" font-family="sans-serif" font-size="12" lengthAdjust="spacingAndGlyphs" textLength="62" x="289.1" y="280.1543">Language</text><line style="stroke: #A80036; stroke-width: 1.5;" x1="260" x2="354" y1="292" y2="292"/><ellipse cx="270" cy="303" fill="none" rx="3" ry="3" style="stroke: #038048; stroke-width: 1.0;"/><text fill="#000000" font-family="sans-serif" font-size="11" lengthAdjust="spacingAndGlyphs" textLength="48" x="279" y="306.2104">ID string</text><ellipse cx="270" cy="315.8047" fill="none" rx="3" ry="3" style="stroke: #038048; stroke-width: 1.0;"/><text fill="#000000" font-family="sans-serif" font-size="11" lengthAdjust="spacingAndGlyphs" textLength="70" x="279" y="319.0151">Name string</text><line style="stroke: #A80036; stroke-width: 1.5;" x1="260" x2="354" y1="325.6094" y2="325.6094"/><!--MD5=[31e87857781726aef1a9645d85eb2642]
class domain.Permission--><rect fill="#FEFECE" filter="url(#fvm815zh7bcu3)" height="99.2188" id="domain.Permission" style="stroke: #A80036; stroke-width: 1.5;" width="139" x="390.5" y="247.5"/><ellipse cx="423.05" cy="263.5" fill="#7FFFD4" rx="11" ry="11" style="stroke: #A80036; stroke-width: 1.0;"/><path d="M422.5344,264.0625 Q420.675,263.3594 420.0188,262.5938 Q419.3781,261.8125 419.3781,260.5 Q419.3781,258.8125 420.4563,257.8438 Q421.5344,256.875 423.4094,256.875 Q424.2688,256.875 425.1125,257.0781 Q425.9719,257.2656 426.8156,257.6563 L426.8156,260.0469 Q426.0344,259.4844 425.2063,259.2031 Q424.3938,258.9063 423.5969,258.9063 Q422.7219,258.9063 422.2375,259.2656 Q421.7688,259.625 421.7688,260.2813 Q421.7688,260.7969 422.1125,261.1406 Q422.4563,261.4688 423.55,261.875 L424.6125,262.2813 Q426.0969,262.8281 426.8,263.7344 Q427.5188,264.6406 427.5188,266.0156 Q427.5188,267.8906 426.4094,268.8125 Q425.3,269.7344 423.05,269.7344 Q422.1281,269.7344 421.2063,269.5156 Q420.2844,269.2969 419.425,268.875 L419.425,266.3438 Q420.3938,267.0313 421.3156,267.375 Q422.2375,267.7188 423.1281,267.7188 Q424.0344,267.7188 424.5344,267.3125 Q425.0344,266.8906 425.0344,266.1563 Q425.0344,265.5938 424.6906,265.1875 Q424.3625,264.7656 423.7375,264.5156 L422.5344,264.0625 Z "/><text fill="#000000" font-family="sans-serif" font-size="12" lengthAdjust="spacingAndGlyphs" textLength="68" x="440.95" y="267.6543">Permission</text><line style="stroke: #A80036; stroke-width: 1.5;" x1="391.5" x2="528.5" y1="279.5" y2="279.5"/><ellipse cx="401.5" cy="290.5" fill="none" rx="3" ry="3" style="stroke: #038048; stroke-width: 1.0;"/><text fill="#000000" font-family="sans-serif" font-size="11" lengthAdjust="spacingAndGlyphs" textLength="48" x="410.5" y="293.7104">ID string</text><ellipse cx="401.5" cy="303.3047" fill="none" rx="3" ry="3" style="stroke: #038048; stroke-width: 1.0;"/><text fill="#000000" font-family="sans-serif" font-size="11" lengthAdjust="spacingAndGlyphs" textLength="58" x="410.5" y="306.5151">User User</text><ellipse cx="401.5" cy="316.1094" fill="none" rx="3" ry="3" style="stroke: #038048; stroke-width: 1.0;"/><text fill="#000000" font-family="sans-serif" font-size="11" lengthAdjust="spacingAndGlyphs" textLength="74" x="410.5" y="319.3198">Group Group</text><ellipse cx="401.5" cy="328.9141" fill="none" rx="3" ry="3" style="stroke: #038048; stroke-width: 1.0;"/><text fill="#000000" font-family="sans-serif" font-size="11" lengthAdjust="spacingAndGlyphs" textLength="113" x="410.5" y="332.1245">CanWriteGroup bool</text><line style="stroke: #A80036; stroke-width: 1.5;" x1="391.5" x2="528.5" y1="338.7188" y2="338.7188"/><!--MD5=[9a7789b2fe37cd0457e308260b86b1c2]
class domain.Stage--><rect fill="#FEFECE" filter="url(#fvm815zh7bcu3)" height="73.6094" id="domain.Stage" style="stroke: #A80036; stroke-width: 1.5;" width="96" x="22" y="458"/><ellipse cx="49.15" cy="474" fill="#7FFFD4" rx="11" ry="11" style="stroke: #A80036; stroke-width: 1.0;"/><path d="M48.6344,474.5625 Q46.775,473.8594 46.1188,473.0938 Q45.4781,472.3125 45.4781,471 Q45.4781,469.3125 46.5563,468.3438 Q47.6344,467.375 49.5094,467.375 Q50.3688,467.375 51.2125,467.5781 Q52.0719,467.7656 52.9156,468.1563 L52.9156,470.5469 Q52.1344,469.9844 51.3063,469.7031 Q50.4938,469.4063 49.6969,469.4063 Q48.8219,469.4063 48.3375,469.7656 Q47.8688,470.125 47.8688,470.7813 Q47.8688,471.2969 48.2125,471.6406 Q48.5563,471.9688 49.65,472.375 L50.7125,472.7813 Q52.1969,473.3281 52.9,474.2344 Q53.6188,475.1406 53.6188,476.5156 Q53.6188,478.3906 52.5094,479.3125 Q51.4,480.2344 49.15,480.2344 Q48.2281,480.2344 47.3063,480.0156 Q46.3844,479.7969 45.525,479.375 L45.525,476.8438 Q46.4938,477.5313 47.4156,477.875 Q48.3375,478.2188 49.2281,478.2188 Q50.1344,478.2188 50.6344,477.8125 Q51.1344,477.3906 51.1344,476.6563 Q51.1344,476.0938 50.7906,475.6875 Q50.4625,475.2656 49.8375,475.0156 L48.6344,474.5625 Z "/><text fill="#000000" font-family="sans-serif" font-size="12" lengthAdjust="spacingAndGlyphs" textLength="37" x="65.85" y="478.1543">Stage</text><line style="stroke: #A80036; stroke-width: 1.5;" x1="23" x2="117" y1="490" y2="490"/><ellipse cx="33" cy="501" fill="none" rx="3" ry="3" style="stroke: #038048; stroke-width: 1.0;"/><text fill="#000000" font-family="sans-serif" font-size="11" lengthAdjust="spacingAndGlyphs" textLength="48" x="42" y="504.2104">ID string</text><ellipse cx="33" cy="513.8047" fill="none" rx="3" ry="3" style="stroke: #038048; stroke-width: 1.0;"/><text fill="#000000" font-family="sans-serif" font-size="11" lengthAdjust="spacingAndGlyphs" textLength="70" x="42" y="517.0151">Name string</text><line style="stroke: #A80036; stroke-width: 1.5;" x1="23" x2="117" y1="523.6094" y2="523.6094"/><!--MD5=[a146ca527e43b613d9978e3c57602a45]
class domain.Strings--><rect fill="#FEFECE" filter="url(#fvm815zh7bcu3)" height="137.6328" id="domain.Strings" style="stroke: #A80036; stroke-width: 1.5;" width="158" x="66" y="228"/><ellipse cx="118.75" cy="244" fill="#7FFFD4" rx="11" ry="11" style="stroke: #A80036; stroke-width: 1.0;"/><path d="M118.2344,244.5625 Q116.375,243.8594 115.7188,243.0938 Q115.0781,242.3125 115.0781,241 Q115.0781,239.3125 116.1563,238.3438 Q117.2344,237.375 119.1094,237.375 Q119.9688,237.375 120.8125,237.5781 Q121.6719,237.7656 122.5156,238.1563 L122.5156,240.5469 Q121.7344,239.9844 120.9063,239.7031 Q120.0938,239.4063 119.2969,239.4063 Q118.4219,239.4063 117.9375,239.7656 Q117.4688,240.125 117.4688,240.7813 Q117.4688,241.2969 117.8125,241.6406 Q118.1563,241.9688 119.25,242.375 L120.3125,242.7813 Q121.7969,243.3281 122.5,244.2344 Q123.2188,245.1406 123.2188,246.5156 Q123.2188,248.3906 122.1094,249.3125 Q121,250.2344 118.75,250.2344 Q117.8281,250.2344 116.9063,250.0156 Q115.9844,249.7969 115.125,249.375 L115.125,246.8438 Q116.0938,247.5313 117.0156,247.875 Q117.9375,248.2188 118.8281,248.2188 Q119.7344,248.2188 120.2344,247.8125 Q120.7344,247.3906 120.7344,246.6563 Q120.7344,246.0938 120.3906,245.6875 Q120.0625,245.2656 119.4375,245.0156 L118.2344,244.5625 Z "/><text fill="#000000" font-family="sans-serif" font-size="12" lengthAdjust="spacingAndGlyphs" textLength="44" x="139.25" y="248.1543">Strings</text><line style="stroke: #A80036; stroke-width: 1.5;" x1="67" x2="223" y1="260" y2="260"/><ellipse cx="77" cy="271" fill="none" rx="3" ry="3" style="stroke: #038048; stroke-width: 1.0;"/><text fill="#000000" font-family="sans-serif" font-size="11" lengthAdjust="spacingAndGlyphs" textLength="48" x="86" y="274.2104">ID string</text><ellipse cx="77" cy="283.8047" fill="none" rx="3" ry="3" style="stroke: #038048; stroke-width: 1.0;"/><text fill="#000000" font-family="sans-serif" font-size="11" lengthAdjust="spacingAndGlyphs" textLength="132" x="86" y="287.0151">SourceLanguage string</text><ellipse cx="77" cy="296.6094" fill="none" rx="3" ry="3" style="stroke: #038048; stroke-width: 1.0;"/><text fill="#000000" font-family="sans-serif" font-size="11" lengthAdjust="spacingAndGlyphs" textLength="101" x="86" y="299.8198">Description string</text><ellipse cx="77" cy="309.4141" fill="none" rx="3" ry="3" style="stroke: #038048; stroke-width: 1.0;"/><text fill="#000000" font-family="sans-serif" font-size="11" lengthAdjust="spacingAndGlyphs" textLength="85" x="86" y="312.6245">LastVersion int</text><ellipse cx="77" cy="322.2188" fill="none" rx="3" ry="3" style="stroke: #038048; stroke-width: 1.0;"/><text fill="#000000" font-family="sans-serif" font-size="11" lengthAdjust="spacingAndGlyphs" textLength="70" x="86" y="325.4292">Stage Stage</text><ellipse cx="77" cy="335.0234" fill="none" rx="3" ry="3" style="stroke: #038048; stroke-width: 1.0;"/><text fill="#000000" font-family="sans-serif" font-size="11" lengthAdjust="spacingAndGlyphs" textLength="82" x="86" y="338.2339">Group []Group</text><ellipse cx="77" cy="347.8281" fill="none" rx="3" ry="3" style="stroke: #038048; stroke-width: 1.0;"/><text fill="#000000" font-family="sans-serif" font-size="11" lengthAdjust="spacingAndGlyphs" textLength="68" x="86" y="351.0386">Author User</text><line style="stroke: #A80036; stroke-width: 1.5;" x1="67" x2="223" y1="357.6328" y2="357.6328"/><!--MD5=[0134179867525364293e41d4802e5b11]
class domain.Translation--><rect fill="#FEFECE" filter="url(#fvm815zh7bcu3)" height="124.8281" id="domain.Translation" style="stroke: #A80036; stroke-width: 1.5;" width="140" x="156" y="43"/><ellipse cx="188.1" cy="59" fill="#7FFFD4" rx="11" ry="11" style="stroke: #A80036; stroke-width: 1.0;"/><path d="M187.5844,59.5625 Q185.725,58.8594 185.0688,58.0938 Q184.4281,57.3125 184.4281,56 Q184.4281,54.3125 185.5063,53.3438 Q186.5844,52.375 188.4594,52.375 Q189.3188,52.375 190.1625,52.5781 Q191.0219,52.7656 191.8656,53.1563 L191.8656,55.5469 Q191.0844,54.9844 190.2563,54.7031 Q189.4438,54.4063 188.6469,54.4063 Q187.7719,54.4063 187.2875,54.7656 Q186.8188,55.125 186.8188,55.7813 Q186.8188,56.2969 187.1625,56.6406 Q187.5063,56.9688 188.6,57.375 L189.6625,57.7813 Q191.1469,58.3281 191.85,59.2344 Q192.5688,60.1406 192.5688,61.5156 Q192.5688,63.3906 191.4594,64.3125 Q190.35,65.2344 188.1,65.2344 Q187.1781,65.2344 186.2563,65.0156 Q185.3344,64.7969 184.475,64.375 L184.475,61.8438 Q185.4438,62.5313 186.3656,62.875 Q187.2875,63.2188 188.1781,63.2188 Q189.0844,63.2188 189.5844,62.8125 Q190.0844,62.3906 190.0844,61.6563 Q190.0844,61.0938 189.7406,60.6875 Q189.4125,60.2656 188.7875,60.0156 L187.5844,59.5625 Z "/><text fill="#000000" font-family="sans-serif" font-size="12" lengthAdjust="spacingAndGlyphs" textLength="70" x="205.9" y="63.1543">Translation</text><line style="stroke: #A80036; stroke-width: 1.5;" x1="157" x2="295" y1="75" y2="75"/><ellipse cx="167" cy="86" fill="none" rx="3" ry="3" style="stroke: #038048; stroke-width: 1.0;"/><text fill="#000000" font-family="sans-serif" font-size="11" lengthAdjust="spacingAndGlyphs" textLength="48" x="176" y="89.2104">ID string</text><ellipse cx="167" cy="98.8047" fill="none" rx="3" ry="3" style="stroke: #038048; stroke-width: 1.0;"/><text fill="#000000" font-family="sans-serif" font-size="11" lengthAdjust="spacingAndGlyphs" textLength="81" x="176" y="102.0151">Content string</text><ellipse cx="167" cy="111.6094" fill="none" rx="3" ry="3" style="stroke: #038048; stroke-width: 1.0;"/><text fill="#000000" font-family="sans-serif" font-size="11" lengthAdjust="spacingAndGlyphs" textLength="114" x="176" y="114.8198">Language Language</text><ellipse cx="167" cy="124.4141" fill="none" rx="3" ry="3" style="stroke: #038048; stroke-width: 1.0;"/><text fill="#000000" font-family="sans-serif" font-size="11" lengthAdjust="spacingAndGlyphs" textLength="61" x="176" y="127.6245">Version int</text><ellipse cx="167" cy="137.2188" fill="none" rx="3" ry="3" style="stroke: #038048; stroke-width: 1.0;"/><text fill="#000000" font-family="sans-serif" font-size="11" lengthAdjust="spacingAndGlyphs" textLength="61" x="176" y="140.4292">Active bool</text><ellipse cx="167" cy="150.0234" fill="none" rx="3" ry="3" style="stroke: #038048; stroke-width: 1.0;"/><text fill="#000000" font-family="sans-serif" font-size="11" lengthAdjust="spacingAndGlyphs" textLength="86" x="176" y="153.2339">Strings Strings</text><line style="stroke: #A80036; stroke-width: 1.5;" x1="157" x2="295" y1="159.8281" y2="159.8281"/><!--MD5=[8650bc9010346a63b380831969c88903]
class domain.User--><rect fill="#FEFECE" filter="url(#fvm815zh7bcu3)" height="137.6328" id="domain.User" style="stroke: #A80036; stroke-width: 1.5;" width="245" x="153.5" y="426"/><ellipse cx="257.25" cy="442" fill="#7FFFD4" rx="11" ry="11" style="stroke: #A80036; stroke-width: 1.0;"/><path d="M256.7344,442.5625 Q254.875,441.8594 254.2188,441.0938 Q253.5781,440.3125 253.5781,439 Q253.5781,437.3125 254.6563,436.3438 Q255.7344,435.375 257.6094,435.375 Q258.4688,435.375 259.3125,435.5781 Q260.1719,435.7656 261.0156,436.1563 L261.0156,438.5469 Q260.2344,437.9844 259.4063,437.7031 Q258.5938,437.4063 257.7969,437.4063 Q256.9219,437.4063 256.4375,437.7656 Q255.9688,438.125 255.9688,438.7813 Q255.9688,439.2969 256.3125,439.6406 Q256.6563,439.9688 257.75,440.375 L258.8125,440.7813 Q260.2969,441.3281 261,442.2344 Q261.7188,443.1406 261.7188,444.5156 Q261.7188,446.3906 260.6094,447.3125 Q259.5,448.2344 257.25,448.2344 Q256.3281,448.2344 255.4063,448.0156 Q254.4844,447.7969 253.625,447.375 L253.625,444.8438 Q254.5938,445.5313 255.5156,445.875 Q256.4375,446.2188 257.3281,446.2188 Q258.2344,446.2188 258.7344,445.8125 Q259.2344,445.3906 259.2344,444.6563 Q259.2344,444.0938 258.8906,443.6875 Q258.5625,443.2656 257.9375,443.0156 L256.7344,442.5625 Z "/><text fill="#000000" font-family="sans-serif" font-size="12" lengthAdjust="spacingAndGlyphs" textLength="29" x="277.75" y="446.1543">User</text><line style="stroke: #A80036; stroke-width: 1.5;" x1="154.5" x2="397.5" y1="458" y2="458"/><ellipse cx="164.5" cy="469" fill="none" rx="3" ry="3" style="stroke: #038048; stroke-width: 1.0;"/><text fill="#000000" font-family="sans-serif" font-size="11" lengthAdjust="spacingAndGlyphs" textLength="48" x="173.5" y="472.2104">ID string</text><ellipse cx="164.5" cy="481.8047" fill="none" rx="3" ry="3" style="stroke: #038048; stroke-width: 1.0;"/><text fill="#000000" font-family="sans-serif" font-size="11" lengthAdjust="spacingAndGlyphs" textLength="70" x="173.5" y="485.0151">Name string</text><ellipse cx="164.5" cy="494.6094" fill="none" rx="3" ry="3" style="stroke: #038048; stroke-width: 1.0;"/><text fill="#000000" font-family="sans-serif" font-size="11" lengthAdjust="spacingAndGlyphs" textLength="93" x="173.5" y="497.8198">Password string</text><ellipse cx="164.5" cy="507.4141" fill="none" rx="3" ry="3" style="stroke: #038048; stroke-width: 1.0;"/><text fill="#000000" font-family="sans-serif" font-size="11" lengthAdjust="spacingAndGlyphs" textLength="61" x="173.5" y="510.6245">Role string</text><ellipse cx="164.5" cy="520.2188" fill="none" rx="3" ry="3" style="stroke: #038048; stroke-width: 1.0;"/><text fill="#000000" font-family="sans-serif" font-size="11" lengthAdjust="spacingAndGlyphs" textLength="61" x="173.5" y="523.4292">Active bool</text><line style="stroke: #A80036; stroke-width: 1.5;" x1="154.5" x2="397.5" y1="530.0234" y2="530.0234"/><ellipse cx="164.5" cy="541.0234" fill="#84BE84" rx="3" ry="3" style="stroke: #038048; stroke-width: 1.0;"/><text fill="#000000" font-family="sans-serif" font-size="11" lengthAdjust="spacingAndGlyphs" textLength="182" x="173.5" y="544.2339">EncryptPassword() (User, error)</text><ellipse cx="164.5" cy="553.8281" fill="#84BE84" rx="3" ry="3" style="stroke: #038048; stroke-width: 1.0;"/><text fill="#000000" font-family="sans-serif" font-size="11" lengthAdjust="spacingAndGlyphs" textLength="219" x="173.5" y="557.0386">CheckPassword(password string) bool</text><!--MD5=[c40b0910f93893ed51eadcb1cacd64b2]
reverse link domain.Permission to domain.Group--><path d="M466.9624,359.662 C470.5479,391.9311 474.7979,430.181 477.8634,457.7709 " fill="none" id="domain.Permission&lt;-domain.Group" style="stroke: #A80036; stroke-width: 1.0;"/><polygon fill="#FFFFFF" points="465.5231,346.7082,462.2102,353.1133,466.8484,358.6348,470.1613,352.2297,465.5231,346.7082" style="stroke: #A80036; stroke-width: 1.0;"/><!--MD5=[5dbfd629f36032bae3f0c07711dbd3d6]
reverse link domain.Permission to domain.User--><path d="M404.7057,356.5015 C384.4231,378.3274 361.2934,403.2169 340.2892,425.8193 " fill="none" id="domain.Permission&lt;-domain.User" style="stroke: #A80036; stroke-width: 1.0;"/><polygon fill="#FFFFFF" points="413.8065,346.7082,406.792,348.3804,405.6377,355.4985,412.6522,353.8263,413.8065,346.7082" style="stroke: #A80036; stroke-width: 1.0;"/><!--MD5=[31bd509290ad6698fff8db694cd93426]
reverse link domain.Strings to domain.Group--><path d="M235.5478,362.5648 C237.7013,363.7486 239.8537,364.8957 242,366 C314.7392,403.4241 347.1237,381.8682 416,426 C429.3993,434.5854 442.0303,446.4349 452.5851,457.8931 " fill="none" id="domain.Strings&lt;-domain.Group" style="stroke: #A80036; stroke-width: 1.0;"/><polygon fill="#FFFFFF" points="224.0501,355.9198,227.2433,362.3854,234.4397,361.9245,231.2465,355.459,224.0501,355.9198" style="stroke: #A80036; stroke-width: 1.0;"/><!--MD5=[e564d539b2d397eba641f47afba25e4b]
reverse link domain.Strings to domain.Stage--><path d="M114.0506,378.7065 C103.6495,406.1654 92.5545,435.4561 84.1014,457.7722 " fill="none" id="domain.Strings&lt;-domain.Stage" style="stroke: #A80036; stroke-width: 1.0;"/><polygon fill="#FFFFFF" points="118.7686,366.2508,112.9026,370.4448,114.5179,377.4727,120.3839,373.2787,118.7686,366.2508" style="stroke: #A80036; stroke-width: 1.0;"/><!--MD5=[977372bfb435ff18ded3027d083dada6]
reverse link domain.Strings to domain.User--><path d="M198.0988,377.2563 C208.742,393.3429 219.8386,410.1148 230.2084,425.7883 " fill="none" id="domain.Strings&lt;-domain.User" style="stroke: #A80036; stroke-width: 1.0;"/><polygon fill="#FFFFFF" points="190.8174,366.2508,190.7922,373.4619,197.4389,376.2586,197.4641,369.0476,190.8174,366.2508" style="stroke: #A80036; stroke-width: 1.0;"/><!--MD5=[9e4ca911e1cc4d6d466066babcc23625]
reverse link domain.Translation to domain.Language--><path d="M257.7315,180.5196 C269.2524,207.7573 281.7676,237.3457 291.3014,259.8853 " fill="none" id="domain.Translation&lt;-domain.Language" style="stroke: #A80036; stroke-width: 1.0;"/><polygon fill="#FFFFFF" points="252.5224,168.2043,251.1758,175.2886,257.1972,179.2563,258.5438,172.172,252.5224,168.2043" style="stroke: #A80036; stroke-width: 1.0;"/><!--MD5=[52d5d6058d03a8b9fd35c4891bb21cbb]
reverse link domain.Translation to domain.Strings--><path d="M194.2696,180.517 C187.6706,196.1182 180.7454,212.4908 174.2411,227.8683 " fill="none" id="domain.Translation&lt;-domain.Strings" style="stroke: #A80036; stroke-width: 1.0;"/><polygon fill="#FFFFFF" points="199.4776,168.2043,193.4562,172.172,194.8028,179.2563,200.8242,175.2886,199.4776,168.2043" style="stroke: #A80036; stroke-width: 1.0;"/><!--MD5=[0f8b22bddae44c8cc4628438c1711b48]
@startuml
namespace domain {
    class Group << (S,Aquamarine) >> {
        + ID string
        + Name string

    }
    class Language << (S,Aquamarine) >> {
        + ID string
        + Name string

    }
    class Permission << (S,Aquamarine) >> {
        + ID string
        + User User
        + Group Group
        + CanWriteGroup bool

    }
    class Stage << (S,Aquamarine) >> {
        + ID string
        + Name string

    }
    class Strings << (S,Aquamarine) >> {
        + ID string
        + SourceLanguage string
        + Description string
        + LastVersion int
        + Stage Stage
        + Group []Group
        + Author User

    }
    class Translation << (S,Aquamarine) >> {
        + ID string
        + Content string
        + Language Language
        + Version int
        + Active bool
        + Strings Strings

    }
    class User << (S,Aquamarine) >> {
        + ID string
        + Name string
        + Password string
        + Role string
        + Active bool

        + EncryptPassword() (User, error)
        + CheckPassword(password string) bool

    }
}


"domain.Permission" o- - "domain.Group"
"domain.Permission" o- - "domain.User"
"domain.Strings" o- - "domain.Group"
"domain.Strings" o- - "domain.Stage"
"domain.Strings" o- - "domain.User"
"domain.Translation" o- - "domain.Language"
"domain.Translation" o- - "domain.Strings"

@enduml

PlantUML version 1.2020.06(Sun Apr 05 12:38:32 GMT 2020)
(GPL source distribution)
Java Runtime: OpenJDK Runtime Environment
JVM: OpenJDK 64-Bit Server VM
Java Version: 14-ea+33
Operating System: Linux
Default Encoding: UTF-8
Language: en
Country: US
--></g></svg>