<?xml version="1.0" encoding="UTF-8" standalone="no"?><svg xmlns="http://www.w3.org/2000/svg" xmlns:xlink="http://www.w3.org/1999/xlink" contentScriptType="application/ecmascript" contentStyleType="text/css" height="729px" preserveAspectRatio="none" style="width:694px;height:729px;" version="1.1" viewBox="0 0 694 729" width="694px" zoomAndPan="magnify"><defs><filter height="300%" id="f1hbeb5z3jys3f" width="300%" x="-1" y="-1"><feGaussianBlur result="blurOut" stdDeviation="2.0"/><feColorMatrix in="blurOut" result="blurOut2" type="matrix" values="0 0 0 0 0 0 0 0 0 0 0 0 0 0 0 0 0 0 .4 0"/><feOffset dx="4.0" dy="4.0" in="blurOut2" result="blurOut3"/><feBlend in="SourceGraphic" in2="blurOut3" mode="normal"/></filter></defs><g><!--MD5=[27f772719433d509ddbc20ff768eba08]
cluster domain--><polygon fill="#FFFFFF" filter="url(#f1hbeb5z3jys3f)" points="14,16,77,16,84,38.2969,638,38.2969,638,717,14,717,14,16" style="stroke: #000000; stroke-width: 1.5;"/><line style="stroke: #000000; stroke-width: 1.5;" x1="14" x2="84" y1="38.2969" y2="38.2969"/><text fill="#000000" font-family="sans-serif" font-size="14" font-weight="bold" lengthAdjust="spacingAndGlyphs" textLength="57" x="18" y="30.9951">domain</text><!--MD5=[c2ad25ceabb2d4c1646fab0eac5e3291]
class domain.BaseString--><rect fill="#FEFECE" filter="url(#f1hbeb5z3jys3f)" height="112.0234" id="domain.BaseString" style="stroke: #A80036; stroke-width: 1.5;" width="180" x="236" y="266"/><ellipse cx="287.75" cy="282" fill="#7FFFD4" rx="11" ry="11" style="stroke: #A80036; stroke-width: 1.0;"/><path d="M287.2344,282.5625 Q285.375,281.8594 284.7188,281.0938 Q284.0781,280.3125 284.0781,279 Q284.0781,277.3125 285.1563,276.3438 Q286.2344,275.375 288.1094,275.375 Q288.9688,275.375 289.8125,275.5781 Q290.6719,275.7656 291.5156,276.1563 L291.5156,278.5469 Q290.7344,277.9844 289.9063,277.7031 Q289.0938,277.4063 288.2969,277.4063 Q287.4219,277.4063 286.9375,277.7656 Q286.4688,278.125 286.4688,278.7813 Q286.4688,279.2969 286.8125,279.6406 Q287.1563,279.9688 288.25,280.375 L289.3125,280.7813 Q290.7969,281.3281 291.5,282.2344 Q292.2188,283.1406 292.2188,284.5156 Q292.2188,286.3906 291.1094,287.3125 Q290,288.2344 287.75,288.2344 Q286.8281,288.2344 285.9063,288.0156 Q284.9844,287.7969 284.125,287.375 L284.125,284.8438 Q285.0938,285.5313 286.0156,285.875 Q286.9375,286.2188 287.8281,286.2188 Q288.7344,286.2188 289.2344,285.8125 Q289.7344,285.3906 289.7344,284.6563 Q289.7344,284.0938 289.3906,283.6875 Q289.0625,283.2656 288.4375,283.0156 L287.2344,282.5625 Z "/><text fill="#000000" font-family="sans-serif" font-size="12" lengthAdjust="spacingAndGlyphs" textLength="68" x="308.25" y="286.1543">BaseString</text><line style="stroke: #A80036; stroke-width: 1.5;" x1="237" x2="415" y1="298" y2="298"/><ellipse cx="247" cy="309" fill="none" rx="3" ry="3" style="stroke: #038048; stroke-width: 1.0;"/><text fill="#000000" font-family="sans-serif" font-size="11" lengthAdjust="spacingAndGlyphs" textLength="115" x="256" y="312.2104">ID primitive.ObjectID</text><ellipse cx="247" cy="321.8047" fill="none" rx="3" ry="3" style="stroke: #038048; stroke-width: 1.0;"/><text fill="#000000" font-family="sans-serif" font-size="11" lengthAdjust="spacingAndGlyphs" textLength="154" x="256" y="325.0151">SourceLanguage Language</text><ellipse cx="247" cy="334.6094" fill="none" rx="3" ry="3" style="stroke: #038048; stroke-width: 1.0;"/><text fill="#000000" font-family="sans-serif" font-size="11" lengthAdjust="spacingAndGlyphs" textLength="101" x="256" y="337.8198">Description string</text><ellipse cx="247" cy="347.4141" fill="none" rx="3" ry="3" style="stroke: #038048; stroke-width: 1.0;"/><text fill="#000000" font-family="sans-serif" font-size="11" lengthAdjust="spacingAndGlyphs" textLength="74" x="256" y="350.6245">Group Group</text><ellipse cx="247" cy="360.2188" fill="none" rx="3" ry="3" style="stroke: #038048; stroke-width: 1.0;"/><text fill="#000000" font-family="sans-serif" font-size="11" lengthAdjust="spacingAndGlyphs" textLength="68" x="256" y="363.4292">Author User</text><line style="stroke: #A80036; stroke-width: 1.5;" x1="237" x2="415" y1="370.0234" y2="370.0234"/><!--MD5=[863f1825d6635ffa2f584082db8395ae]
class domain.Group--><rect fill="#FEFECE" filter="url(#f1hbeb5z3jys3f)" height="86.4141" id="domain.Group" style="stroke: #A80036; stroke-width: 1.5;" width="141" x="362.5" y="444.5"/><ellipse cx="409.75" cy="460.5" fill="#7FFFD4" rx="11" ry="11" style="stroke: #A80036; stroke-width: 1.0;"/><path d="M409.2344,461.0625 Q407.375,460.3594 406.7188,459.5938 Q406.0781,458.8125 406.0781,457.5 Q406.0781,455.8125 407.1563,454.8438 Q408.2344,453.875 410.1094,453.875 Q410.9688,453.875 411.8125,454.0781 Q412.6719,454.2656 413.5156,454.6563 L413.5156,457.0469 Q412.7344,456.4844 411.9063,456.2031 Q411.0938,455.9063 410.2969,455.9063 Q409.4219,455.9063 408.9375,456.2656 Q408.4688,456.625 408.4688,457.2813 Q408.4688,457.7969 408.8125,458.1406 Q409.1563,458.4688 410.25,458.875 L411.3125,459.2813 Q412.7969,459.8281 413.5,460.7344 Q414.2188,461.6406 414.2188,463.0156 Q414.2188,464.8906 413.1094,465.8125 Q412,466.7344 409.75,466.7344 Q408.8281,466.7344 407.9063,466.5156 Q406.9844,466.2969 406.125,465.875 L406.125,463.3438 Q407.0938,464.0313 408.0156,464.375 Q408.9375,464.7188 409.8281,464.7188 Q410.7344,464.7188 411.2344,464.3125 Q411.7344,463.8906 411.7344,463.1563 Q411.7344,462.5938 411.3906,462.1875 Q411.0625,461.7656 410.4375,461.5156 L409.2344,461.0625 Z "/><text fill="#000000" font-family="sans-serif" font-size="12" lengthAdjust="spacingAndGlyphs" textLength="38" x="430.25" y="464.6543">Group</text><line style="stroke: #A80036; stroke-width: 1.5;" x1="363.5" x2="502.5" y1="476.5" y2="476.5"/><ellipse cx="373.5" cy="487.5" fill="none" rx="3" ry="3" style="stroke: #038048; stroke-width: 1.0;"/><text fill="#000000" font-family="sans-serif" font-size="11" lengthAdjust="spacingAndGlyphs" textLength="115" x="382.5" y="490.7104">ID primitive.ObjectID</text><ellipse cx="373.5" cy="500.3047" fill="none" rx="3" ry="3" style="stroke: #038048; stroke-width: 1.0;"/><text fill="#000000" font-family="sans-serif" font-size="11" lengthAdjust="spacingAndGlyphs" textLength="70" x="382.5" y="503.5151">Name string</text><ellipse cx="373.5" cy="513.1094" fill="none" rx="3" ry="3" style="stroke: #038048; stroke-width: 1.0;"/><text fill="#000000" font-family="sans-serif" font-size="11" lengthAdjust="spacingAndGlyphs" textLength="68" x="382.5" y="516.3198">Owner User</text><line style="stroke: #A80036; stroke-width: 1.5;" x1="363.5" x2="502.5" y1="522.9141" y2="522.9141"/><!--MD5=[c17524741a03264fd90aa714fe1c3562]
class domain.Language--><rect fill="#FEFECE" filter="url(#f1hbeb5z3jys3f)" height="99.2188" id="domain.Language" style="stroke: #A80036; stroke-width: 1.5;" width="141" x="85.5" y="438"/><ellipse cx="121.65" cy="454" fill="#7FFFD4" rx="11" ry="11" style="stroke: #A80036; stroke-width: 1.0;"/><path d="M121.1344,454.5625 Q119.275,453.8594 118.6188,453.0938 Q117.9781,452.3125 117.9781,451 Q117.9781,449.3125 119.0563,448.3438 Q120.1344,447.375 122.0094,447.375 Q122.8688,447.375 123.7125,447.5781 Q124.5719,447.7656 125.4156,448.1563 L125.4156,450.5469 Q124.6344,449.9844 123.8063,449.7031 Q122.9938,449.4063 122.1969,449.4063 Q121.3219,449.4063 120.8375,449.7656 Q120.3688,450.125 120.3688,450.7813 Q120.3688,451.2969 120.7125,451.6406 Q121.0563,451.9688 122.15,452.375 L123.2125,452.7813 Q124.6969,453.3281 125.4,454.2344 Q126.1188,455.1406 126.1188,456.5156 Q126.1188,458.3906 125.0094,459.3125 Q123.9,460.2344 121.65,460.2344 Q120.7281,460.2344 119.8063,460.0156 Q118.8844,459.7969 118.025,459.375 L118.025,456.8438 Q118.9938,457.5313 119.9156,457.875 Q120.8375,458.2188 121.7281,458.2188 Q122.6344,458.2188 123.1344,457.8125 Q123.6344,457.3906 123.6344,456.6563 Q123.6344,456.0938 123.2906,455.6875 Q122.9625,455.2656 122.3375,455.0156 L121.1344,454.5625 Z "/><text fill="#000000" font-family="sans-serif" font-size="12" lengthAdjust="spacingAndGlyphs" textLength="62" x="140.35" y="458.1543">Language</text><line style="stroke: #A80036; stroke-width: 1.5;" x1="86.5" x2="225.5" y1="470" y2="470"/><ellipse cx="96.5" cy="481" fill="none" rx="3" ry="3" style="stroke: #038048; stroke-width: 1.0;"/><text fill="#000000" font-family="sans-serif" font-size="11" lengthAdjust="spacingAndGlyphs" textLength="115" x="105.5" y="484.2104">ID primitive.ObjectID</text><ellipse cx="96.5" cy="493.8047" fill="none" rx="3" ry="3" style="stroke: #038048; stroke-width: 1.0;"/><text fill="#000000" font-family="sans-serif" font-size="11" lengthAdjust="spacingAndGlyphs" textLength="83" x="105.5" y="497.0151">IsoCode string</text><ellipse cx="96.5" cy="506.6094" fill="none" rx="3" ry="3" style="stroke: #038048; stroke-width: 1.0;"/><text fill="#000000" font-family="sans-serif" font-size="11" lengthAdjust="spacingAndGlyphs" textLength="101" x="105.5" y="509.8198">Description string</text><ellipse cx="96.5" cy="519.4141" fill="none" rx="3" ry="3" style="stroke: #038048; stroke-width: 1.0;"/><text fill="#000000" font-family="sans-serif" font-size="11" lengthAdjust="spacingAndGlyphs" textLength="61" x="105.5" y="522.6245">Active bool</text><line style="stroke: #A80036; stroke-width: 1.5;" x1="86.5" x2="225.5" y1="529.2188" y2="529.2188"/><!--MD5=[31e87857781726aef1a9645d85eb2642]
class domain.Permission--><rect fill="#FEFECE" filter="url(#f1hbeb5z3jys3f)" height="99.2188" id="domain.Permission" style="stroke: #A80036; stroke-width: 1.5;" width="141" x="451.5" y="272.5"/><ellipse cx="484.95" cy="288.5" fill="#7FFFD4" rx="11" ry="11" style="stroke: #A80036; stroke-width: 1.0;"/><path d="M484.4344,289.0625 Q482.575,288.3594 481.9188,287.5938 Q481.2781,286.8125 481.2781,285.5 Q481.2781,283.8125 482.3563,282.8438 Q483.4344,281.875 485.3094,281.875 Q486.1688,281.875 487.0125,282.0781 Q487.8719,282.2656 488.7156,282.6563 L488.7156,285.0469 Q487.9344,284.4844 487.1063,284.2031 Q486.2938,283.9063 485.4969,283.9063 Q484.6219,283.9063 484.1375,284.2656 Q483.6688,284.625 483.6688,285.2813 Q483.6688,285.7969 484.0125,286.1406 Q484.3563,286.4688 485.45,286.875 L486.5125,287.2813 Q487.9969,287.8281 488.7,288.7344 Q489.4188,289.6406 489.4188,291.0156 Q489.4188,292.8906 488.3094,293.8125 Q487.2,294.7344 484.95,294.7344 Q484.0281,294.7344 483.1063,294.5156 Q482.1844,294.2969 481.325,293.875 L481.325,291.3438 Q482.2938,292.0313 483.2156,292.375 Q484.1375,292.7188 485.0281,292.7188 Q485.9344,292.7188 486.4344,292.3125 Q486.9344,291.8906 486.9344,291.1563 Q486.9344,290.5938 486.5906,290.1875 Q486.2625,289.7656 485.6375,289.5156 L484.4344,289.0625 Z "/><text fill="#000000" font-family="sans-serif" font-size="12" lengthAdjust="spacingAndGlyphs" textLength="68" x="503.05" y="292.6543">Permission</text><line style="stroke: #A80036; stroke-width: 1.5;" x1="452.5" x2="591.5" y1="304.5" y2="304.5"/><ellipse cx="462.5" cy="315.5" fill="none" rx="3" ry="3" style="stroke: #038048; stroke-width: 1.0;"/><text fill="#000000" font-family="sans-serif" font-size="11" lengthAdjust="spacingAndGlyphs" textLength="115" x="471.5" y="318.7104">ID primitive.ObjectID</text><ellipse cx="462.5" cy="328.3047" fill="none" rx="3" ry="3" style="stroke: #038048; stroke-width: 1.0;"/><text fill="#000000" font-family="sans-serif" font-size="11" lengthAdjust="spacingAndGlyphs" textLength="58" x="471.5" y="331.5151">User User</text><ellipse cx="462.5" cy="341.1094" fill="none" rx="3" ry="3" style="stroke: #038048; stroke-width: 1.0;"/><text fill="#000000" font-family="sans-serif" font-size="11" lengthAdjust="spacingAndGlyphs" textLength="74" x="471.5" y="344.3198">Group Group</text><ellipse cx="462.5" cy="353.9141" fill="none" rx="3" ry="3" style="stroke: #038048; stroke-width: 1.0;"/><text fill="#000000" font-family="sans-serif" font-size="11" lengthAdjust="spacingAndGlyphs" textLength="113" x="471.5" y="357.1245">CanWriteGroup bool</text><line style="stroke: #A80036; stroke-width: 1.5;" x1="452.5" x2="591.5" y1="363.7188" y2="363.7188"/><!--MD5=[9a7789b2fe37cd0457e308260b86b1c2]
class domain.Stage--><rect fill="#FEFECE" filter="url(#f1hbeb5z3jys3f)" height="86.4141" id="domain.Stage" style="stroke: #A80036; stroke-width: 1.5;" width="141" x="59.5" y="279"/><ellipse cx="107.25" cy="295" fill="#7FFFD4" rx="11" ry="11" style="stroke: #A80036; stroke-width: 1.0;"/><path d="M106.7344,295.5625 Q104.875,294.8594 104.2188,294.0938 Q103.5781,293.3125 103.5781,292 Q103.5781,290.3125 104.6563,289.3438 Q105.7344,288.375 107.6094,288.375 Q108.4688,288.375 109.3125,288.5781 Q110.1719,288.7656 111.0156,289.1563 L111.0156,291.5469 Q110.2344,290.9844 109.4063,290.7031 Q108.5938,290.4063 107.7969,290.4063 Q106.9219,290.4063 106.4375,290.7656 Q105.9688,291.125 105.9688,291.7813 Q105.9688,292.2969 106.3125,292.6406 Q106.6563,292.9688 107.75,293.375 L108.8125,293.7813 Q110.2969,294.3281 111,295.2344 Q111.7188,296.1406 111.7188,297.5156 Q111.7188,299.3906 110.6094,300.3125 Q109.5,301.2344 107.25,301.2344 Q106.3281,301.2344 105.4063,301.0156 Q104.4844,300.7969 103.625,300.375 L103.625,297.8438 Q104.5938,298.5313 105.5156,298.875 Q106.4375,299.2188 107.3281,299.2188 Q108.2344,299.2188 108.7344,298.8125 Q109.2344,298.3906 109.2344,297.6563 Q109.2344,297.0938 108.8906,296.6875 Q108.5625,296.2656 107.9375,296.0156 L106.7344,295.5625 Z "/><text fill="#000000" font-family="sans-serif" font-size="12" lengthAdjust="spacingAndGlyphs" textLength="37" x="127.75" y="299.1543">Stage</text><line style="stroke: #A80036; stroke-width: 1.5;" x1="60.5" x2="199.5" y1="311" y2="311"/><ellipse cx="70.5" cy="322" fill="none" rx="3" ry="3" style="stroke: #038048; stroke-width: 1.0;"/><text fill="#000000" font-family="sans-serif" font-size="11" lengthAdjust="spacingAndGlyphs" textLength="115" x="79.5" y="325.2104">ID primitive.ObjectID</text><ellipse cx="70.5" cy="334.8047" fill="none" rx="3" ry="3" style="stroke: #038048; stroke-width: 1.0;"/><text fill="#000000" font-family="sans-serif" font-size="11" lengthAdjust="spacingAndGlyphs" textLength="70" x="79.5" y="338.0151">Name string</text><ellipse cx="70.5" cy="347.6094" fill="none" rx="3" ry="3" style="stroke: #038048; stroke-width: 1.0;"/><text fill="#000000" font-family="sans-serif" font-size="11" lengthAdjust="spacingAndGlyphs" textLength="61" x="79.5" y="350.8198">Active bool</text><line style="stroke: #A80036; stroke-width: 1.5;" x1="60.5" x2="199.5" y1="357.4141" y2="357.4141"/><!--MD5=[0134179867525364293e41d4802e5b11]
class domain.Translation--><rect fill="#FEFECE" filter="url(#f1hbeb5z3jys3f)" height="163.2422" id="domain.Translation" style="stroke: #A80036; stroke-width: 1.5;" width="156" x="150" y="43"/><ellipse cx="189.3" cy="59" fill="#7FFFD4" rx="11" ry="11" style="stroke: #A80036; stroke-width: 1.0;"/><path d="M188.7844,59.5625 Q186.925,58.8594 186.2688,58.0938 Q185.6281,57.3125 185.6281,56 Q185.6281,54.3125 186.7063,53.3438 Q187.7844,52.375 189.6594,52.375 Q190.5188,52.375 191.3625,52.5781 Q192.2219,52.7656 193.0656,53.1563 L193.0656,55.5469 Q192.2844,54.9844 191.4563,54.7031 Q190.6438,54.4063 189.8469,54.4063 Q188.9719,54.4063 188.4875,54.7656 Q188.0188,55.125 188.0188,55.7813 Q188.0188,56.2969 188.3625,56.6406 Q188.7063,56.9688 189.8,57.375 L190.8625,57.7813 Q192.3469,58.3281 193.05,59.2344 Q193.7688,60.1406 193.7688,61.5156 Q193.7688,63.3906 192.6594,64.3125 Q191.55,65.2344 189.3,65.2344 Q188.3781,65.2344 187.4563,65.0156 Q186.5344,64.7969 185.675,64.375 L185.675,61.8438 Q186.6438,62.5313 187.5656,62.875 Q188.4875,63.2188 189.3781,63.2188 Q190.2844,63.2188 190.7844,62.8125 Q191.2844,62.3906 191.2844,61.6563 Q191.2844,61.0938 190.9406,60.6875 Q190.6125,60.2656 189.9875,60.0156 L188.7844,59.5625 Z "/><text fill="#000000" font-family="sans-serif" font-size="12" lengthAdjust="spacingAndGlyphs" textLength="70" x="208.7" y="63.1543">Translation</text><line style="stroke: #A80036; stroke-width: 1.5;" x1="151" x2="305" y1="75" y2="75"/><ellipse cx="161" cy="86" fill="none" rx="3" ry="3" style="stroke: #038048; stroke-width: 1.0;"/><text fill="#000000" font-family="sans-serif" font-size="11" lengthAdjust="spacingAndGlyphs" textLength="115" x="170" y="89.2104">ID primitive.ObjectID</text><ellipse cx="161" cy="98.8047" fill="none" rx="3" ry="3" style="stroke: #038048; stroke-width: 1.0;"/><text fill="#000000" font-family="sans-serif" font-size="11" lengthAdjust="spacingAndGlyphs" textLength="81" x="170" y="102.0151">Content string</text><ellipse cx="161" cy="111.6094" fill="none" rx="3" ry="3" style="stroke: #038048; stroke-width: 1.0;"/><text fill="#000000" font-family="sans-serif" font-size="11" lengthAdjust="spacingAndGlyphs" textLength="114" x="170" y="114.8198">Language Language</text><ellipse cx="161" cy="124.4141" fill="none" rx="3" ry="3" style="stroke: #038048; stroke-width: 1.0;"/><text fill="#000000" font-family="sans-serif" font-size="11" lengthAdjust="spacingAndGlyphs" textLength="61" x="170" y="127.6245">Version int</text><ellipse cx="161" cy="137.2188" fill="none" rx="3" ry="3" style="stroke: #038048; stroke-width: 1.0;"/><text fill="#000000" font-family="sans-serif" font-size="11" lengthAdjust="spacingAndGlyphs" textLength="61" x="170" y="140.4292">Active bool</text><ellipse cx="161" cy="150.0234" fill="none" rx="3" ry="3" style="stroke: #038048; stroke-width: 1.0;"/><text fill="#000000" font-family="sans-serif" font-size="11" lengthAdjust="spacingAndGlyphs" textLength="130" x="170" y="153.2339">BaseString BaseString</text><ellipse cx="161" cy="162.8281" fill="none" rx="3" ry="3" style="stroke: #038048; stroke-width: 1.0;"/><text fill="#000000" font-family="sans-serif" font-size="11" lengthAdjust="spacingAndGlyphs" textLength="68" x="170" y="166.0386">Author User</text><ellipse cx="161" cy="175.6328" fill="none" rx="3" ry="3" style="stroke: #038048; stroke-width: 1.0;"/><text fill="#000000" font-family="sans-serif" font-size="11" lengthAdjust="spacingAndGlyphs" textLength="87" x="170" y="178.8433">Date time.Time</text><ellipse cx="161" cy="188.4375" fill="none" rx="3" ry="3" style="stroke: #038048; stroke-width: 1.0;"/><text fill="#000000" font-family="sans-serif" font-size="11" lengthAdjust="spacingAndGlyphs" textLength="70" x="170" y="191.6479">Stage Stage</text><line style="stroke: #A80036; stroke-width: 1.5;" x1="151" x2="305" y1="198.2422" y2="198.2422"/><!--MD5=[8650bc9010346a63b380831969c88903]
class domain.User--><rect fill="#FEFECE" filter="url(#f1hbeb5z3jys3f)" height="112.0234" id="domain.User" style="stroke: #A80036; stroke-width: 1.5;" width="141" x="415.5" y="597"/><ellipse cx="467.25" cy="613" fill="#7FFFD4" rx="11" ry="11" style="stroke: #A80036; stroke-width: 1.0;"/><path d="M466.7344,613.5625 Q464.875,612.8594 464.2188,612.0938 Q463.5781,611.3125 463.5781,610 Q463.5781,608.3125 464.6563,607.3438 Q465.7344,606.375 467.6094,606.375 Q468.4688,606.375 469.3125,606.5781 Q470.1719,606.7656 471.0156,607.1563 L471.0156,609.5469 Q470.2344,608.9844 469.4063,608.7031 Q468.5938,608.4063 467.7969,608.4063 Q466.9219,608.4063 466.4375,608.7656 Q465.9688,609.125 465.9688,609.7813 Q465.9688,610.2969 466.3125,610.6406 Q466.6563,610.9688 467.75,611.375 L468.8125,611.7813 Q470.2969,612.3281 471,613.2344 Q471.7188,614.1406 471.7188,615.5156 Q471.7188,617.3906 470.6094,618.3125 Q469.5,619.2344 467.25,619.2344 Q466.3281,619.2344 465.4063,619.0156 Q464.4844,618.7969 463.625,618.375 L463.625,615.8438 Q464.5938,616.5313 465.5156,616.875 Q466.4375,617.2188 467.3281,617.2188 Q468.2344,617.2188 468.7344,616.8125 Q469.2344,616.3906 469.2344,615.6563 Q469.2344,615.0938 468.8906,614.6875 Q468.5625,614.2656 467.9375,614.0156 L466.7344,613.5625 Z "/><text fill="#000000" font-family="sans-serif" font-size="12" lengthAdjust="spacingAndGlyphs" textLength="29" x="487.75" y="617.1543">User</text><line style="stroke: #A80036; stroke-width: 1.5;" x1="416.5" x2="555.5" y1="629" y2="629"/><ellipse cx="426.5" cy="640" fill="none" rx="3" ry="3" style="stroke: #038048; stroke-width: 1.0;"/><text fill="#000000" font-family="sans-serif" font-size="11" lengthAdjust="spacingAndGlyphs" textLength="115" x="435.5" y="643.2104">ID primitive.ObjectID</text><ellipse cx="426.5" cy="652.8047" fill="none" rx="3" ry="3" style="stroke: #038048; stroke-width: 1.0;"/><text fill="#000000" font-family="sans-serif" font-size="11" lengthAdjust="spacingAndGlyphs" textLength="68" x="435.5" y="656.0151">Email string</text><ellipse cx="426.5" cy="665.6094" fill="none" rx="3" ry="3" style="stroke: #038048; stroke-width: 1.0;"/><text fill="#000000" font-family="sans-serif" font-size="11" lengthAdjust="spacingAndGlyphs" textLength="93" x="435.5" y="668.8198">Password string</text><ellipse cx="426.5" cy="678.4141" fill="none" rx="3" ry="3" style="stroke: #038048; stroke-width: 1.0;"/><text fill="#000000" font-family="sans-serif" font-size="11" lengthAdjust="spacingAndGlyphs" textLength="63" x="435.5" y="681.6245">Admin bool</text><ellipse cx="426.5" cy="691.2188" fill="none" rx="3" ry="3" style="stroke: #038048; stroke-width: 1.0;"/><text fill="#000000" font-family="sans-serif" font-size="11" lengthAdjust="spacingAndGlyphs" textLength="61" x="435.5" y="694.4292">Active bool</text><line style="stroke: #A80036; stroke-width: 1.5;" x1="416.5" x2="555.5" y1="701.0234" y2="701.0234"/><!--MD5=[a58f670ca5da764943dbfd91898f76ec]
reverse link domain.BaseString to domain.Group--><path d="M369.4112,389.1454 C381.454,407.7723 394.2044,427.4938 405.1009,444.3477 " fill="none" id="domain.BaseString&lt;-domain.Group" style="stroke: #A80036; stroke-width: 1.0;"/><polygon fill="#FFFFFF" points="362.2253,378.0308,362.1238,385.2412,368.7405,388.1081,368.842,380.8977,362.2253,378.0308" style="stroke: #A80036; stroke-width: 1.0;"/><!--MD5=[8f85cd1f7e91c3dd879d00692f2a4a02]
reverse link domain.BaseString to domain.Language--><path d="M258.9533,387.2719 C241.6392,404.1278 223.2836,421.9974 206.9408,437.9076 " fill="none" id="domain.BaseString&lt;-domain.Language" style="stroke: #A80036; stroke-width: 1.0;"/><polygon fill="#FFFFFF" points="268.4458,378.0308,261.3564,379.3501,259.8475,386.4015,266.9369,385.0823,268.4458,378.0308" style="stroke: #A80036; stroke-width: 1.0;"/><!--MD5=[a970db55fdda3fd5dba5999d7a7488e2]
reverse link domain.BaseString to domain.User--><path d="M318.8791,391.5617 C317.4637,435.6532 321.5574,492.543 345,537 C361.0421,567.4225 388.8139,592.8943 415.491,612.1471 " fill="none" id="domain.BaseString&lt;-domain.User" style="stroke: #A80036; stroke-width: 1.0;"/><polygon fill="#FFFFFF" points="319.4799,378.317,315.212,384.1295,318.9359,390.3047,323.2038,384.4922,319.4799,378.317" style="stroke: #A80036; stroke-width: 1.0;"/><!--MD5=[b095e4e198b25f375cd07fcaab573238]
reverse link domain.Group to domain.User--><path d="M450.7951,543.0677 C456.3308,560.3536 462.4366,579.4199 467.987,596.7519 " fill="none" id="domain.Group&lt;-domain.User" style="stroke: #A80036; stroke-width: 1.0;"/><polygon fill="#FFFFFF" points="446.7868,530.5511,444.8073,537.4852,450.4466,541.9794,452.4261,535.0453,446.7868,530.5511" style="stroke: #A80036; stroke-width: 1.0;"/><!--MD5=[c40b0910f93893ed51eadcb1cacd64b2]
reverse link domain.Permission to domain.Group--><path d="M489.0154,383.3365 C478.1156,403.6053 466.2258,425.7149 456.2157,444.3292 " fill="none" id="domain.Permission&lt;-domain.Group" style="stroke: #A80036; stroke-width: 1.0;"/><polygon fill="#FFFFFF" points="495.2971,371.6555,488.9324,375.0453,489.6136,382.2242,495.9782,378.8344,495.2971,371.6555" style="stroke: #A80036; stroke-width: 1.0;"/><!--MD5=[5dbfd629f36032bae3f0c07711dbd3d6]
reverse link domain.Permission to domain.User--><path d="M526.45,384.9716 C528.335,428.0254 528.6086,486.2605 521,537 C518.0209,556.8669 512.3937,578.0542 506.5088,596.8121 " fill="none" id="domain.Permission&lt;-domain.User" style="stroke: #A80036; stroke-width: 1.0;"/><polygon fill="#FFFFFF" points="525.8048,371.8392,522.1041,378.0283,526.3937,383.8247,530.0944,377.6357,525.8048,371.8392" style="stroke: #A80036; stroke-width: 1.0;"/><!--MD5=[257603dc96d23d59db0ce3c08258fc6a]
reverse link domain.Translation to domain.BaseString--><path d="M274.4411,218.0931 C282.5475,234.4299 290.7474,250.9553 298.1504,265.8745 " fill="none" id="domain.Translation&lt;-domain.BaseString" style="stroke: #A80036; stroke-width: 1.0;"/><polygon fill="#FFFFFF" points="268.5678,206.2565,267.6516,213.4092,273.9017,217.0059,274.8179,209.8532,268.5678,206.2565" style="stroke: #A80036; stroke-width: 1.0;"/><!--MD5=[9e4ca911e1cc4d6d466066babcc23625]
reverse link domain.Translation to domain.Language--><path d="M138.5063,168.7229 C101.4929,192.1178 62.4959,224.655 42,266 C19.8912,310.5985 22.4889,332.2054 42,378 C51.6809,400.7221 68.6449,421.0016 86.5745,437.7474 " fill="none" id="domain.Translation&lt;-domain.Language" style="stroke: #A80036; stroke-width: 1.0;"/><polygon fill="#FFFFFF" points="149.9069,161.7563,142.7014,161.4718,139.6674,168.0135,146.8729,168.2981,149.9069,161.7563" style="stroke: #A80036; stroke-width: 1.0;"/><!--MD5=[fb4756a55770ea16f00e7e6869b144ec]
reverse link domain.Translation to domain.Stage--><path d="M181.5901,218.0302 C171.0218,239.3285 160.2924,260.9515 151.3757,278.9214 " fill="none" id="domain.Translation&lt;-domain.Stage" style="stroke: #A80036; stroke-width: 1.0;"/><polygon fill="#FFFFFF" points="187.4322,206.2565,181.1821,209.8532,182.0983,217.0059,188.3484,213.4092,187.4322,206.2565" style="stroke: #A80036; stroke-width: 1.0;"/><!--MD5=[752fd56d52fdfdd37179b84cd78292a4]
reverse link domain.Translation to domain.User--><path d="M318.9362,145.5237 C420.7211,171.1133 575.9059,217.0129 610,266 C682.041,369.51 593.0227,517.1487 532.7388,596.8256 " fill="none" id="domain.Translation&lt;-domain.User" style="stroke: #A80036; stroke-width: 1.0;"/><polygon fill="#FFFFFF" points="306.1829,142.3531,311.0405,147.6826,317.8284,145.2484,312.9707,139.9189,306.1829,142.3531" style="stroke: #A80036; stroke-width: 1.0;"/><!--MD5=[f4876869b2f6616661b9cdba4cda4806]
@startuml
namespace domain {
    class BaseString << (S,Aquamarine) >> {
        + ID primitive.ObjectID
        + SourceLanguage Language
        + Description string
        + Group Group
        + Author User

    }
    class Group << (S,Aquamarine) >> {
        + ID primitive.ObjectID
        + Name string
        + Owner User

    }
    class Language << (S,Aquamarine) >> {
        + ID primitive.ObjectID
        + IsoCode string
        + Description string
        + Active bool

    }
    class Permission << (S,Aquamarine) >> {
        + ID primitive.ObjectID
        + User User
        + Group Group
        + CanWriteGroup bool

    }
    class Stage << (S,Aquamarine) >> {
        + ID primitive.ObjectID
        + Name string
        + Active bool

    }
    class Translation << (S,Aquamarine) >> {
        + ID primitive.ObjectID
        + Content string
        + Language Language
        + Version int
        + Active bool
        + BaseString BaseString
        + Author User
        + Date time.Time
        + Stage Stage

    }
    class User << (S,Aquamarine) >> {
        + ID primitive.ObjectID
        + Email string
        + Password string
        + Admin bool
        + Active bool

    }
}


"domain.BaseString" o- - "domain.Group"
"domain.BaseString" o- - "domain.Language"
"domain.BaseString" o- - "domain.User"
"domain.Group" o- - "domain.User"
"domain.Permission" o- - "domain.Group"
"domain.Permission" o- - "domain.User"
"domain.Translation" o- - "domain.BaseString"
"domain.Translation" o- - "domain.Language"
"domain.Translation" o- - "domain.Stage"
"domain.Translation" o- - "domain.User"

@enduml

PlantUML version 1.2020.06(Sun Apr 05 12:38:32 GMT 2020)
(GPL source distribution)
Java Runtime: OpenJDK Runtime Environment
JVM: OpenJDK 64-Bit Server VM
Java Version: 14-ea+33
Operating System: Linux
Default Encoding: UTF-8
Language: en
Country: US
--></g></svg>